G04 #@! TF.GenerationSoftware,KiCad,Pcbnew,(6.0.0-rc1-dev-557-ge985f797c)*
G04 #@! TF.CreationDate,2018-10-28T11:13:32+01:00*
G04 #@! TF.ProjectId,GIRA ESP8266 Jalousiesteuerung,474952412045535038323636204A616C,1.0*
G04 #@! TF.SameCoordinates,Original*
G04 #@! TF.FileFunction,Soldermask,Top*
G04 #@! TF.FilePolarity,Negative*
%FSLAX46Y46*%
G04 Gerber Fmt 4.6, Leading zero omitted, Abs format (unit mm)*
G04 Created by KiCad (PCBNEW (6.0.0-rc1-dev-557-ge985f797c)) date 10/28/18 11:13:32*
%MOMM*%
%LPD*%
G01*
G04 APERTURE LIST*
%ADD10C,0.100000*%
G04 APERTURE END LIST*
D10*
G36*
X66591000Y-87501000D02*
X65389000Y-87501000D01*
X65389000Y-84899000D01*
X66591000Y-84899000D01*
X66591000Y-87501000D01*
X66591000Y-87501000D01*
G37*
G36*
X64591000Y-87501000D02*
X63389000Y-87501000D01*
X63389000Y-84899000D01*
X64591000Y-84899000D01*
X64591000Y-87501000D01*
X64591000Y-87501000D01*
G37*
G36*
X56591000Y-87501000D02*
X55389000Y-87501000D01*
X55389000Y-84899000D01*
X56591000Y-84899000D01*
X56591000Y-87501000D01*
X56591000Y-87501000D01*
G37*
G36*
X58591000Y-87501000D02*
X57389000Y-87501000D01*
X57389000Y-84899000D01*
X58591000Y-84899000D01*
X58591000Y-87501000D01*
X58591000Y-87501000D01*
G37*
G36*
X62591000Y-87501000D02*
X61389000Y-87501000D01*
X61389000Y-84899000D01*
X62591000Y-84899000D01*
X62591000Y-87501000D01*
X62591000Y-87501000D01*
G37*
G36*
X60591000Y-87501000D02*
X59389000Y-87501000D01*
X59389000Y-84899000D01*
X60591000Y-84899000D01*
X60591000Y-87501000D01*
X60591000Y-87501000D01*
G37*
G36*
X70001000Y-85101000D02*
X67399000Y-85101000D01*
X67399000Y-83899000D01*
X70001000Y-83899000D01*
X70001000Y-85101000D01*
X70001000Y-85101000D01*
G37*
G36*
X54601000Y-85101000D02*
X51999000Y-85101000D01*
X51999000Y-83899000D01*
X54601000Y-83899000D01*
X54601000Y-85101000D01*
X54601000Y-85101000D01*
G37*
G36*
X72501000Y-84551000D02*
X71499000Y-84551000D01*
X71499000Y-83949000D01*
X72501000Y-83949000D01*
X72501000Y-84551000D01*
X72501000Y-84551000D01*
G37*
G36*
X70001000Y-83101000D02*
X67399000Y-83101000D01*
X67399000Y-81899000D01*
X70001000Y-81899000D01*
X70001000Y-83101000D01*
X70001000Y-83101000D01*
G37*
G36*
X54601000Y-83101000D02*
X51999000Y-83101000D01*
X51999000Y-81899000D01*
X54601000Y-81899000D01*
X54601000Y-83101000D01*
X54601000Y-83101000D01*
G37*
G36*
X72501000Y-83051000D02*
X71499000Y-83051000D01*
X71499000Y-82449000D01*
X72501000Y-82449000D01*
X72501000Y-83051000D01*
X72501000Y-83051000D01*
G37*
G36*
X54601000Y-81101000D02*
X51999000Y-81101000D01*
X51999000Y-79899000D01*
X54601000Y-79899000D01*
X54601000Y-81101000D01*
X54601000Y-81101000D01*
G37*
G36*
X70001000Y-81101000D02*
X67399000Y-81101000D01*
X67399000Y-79899000D01*
X70001000Y-79899000D01*
X70001000Y-81101000D01*
X70001000Y-81101000D01*
G37*
G36*
X74551000Y-81001000D02*
X73949000Y-81001000D01*
X73949000Y-79999000D01*
X74551000Y-79999000D01*
X74551000Y-81001000D01*
X74551000Y-81001000D01*
G37*
G36*
X73051000Y-81001000D02*
X72449000Y-81001000D01*
X72449000Y-79999000D01*
X73051000Y-79999000D01*
X73051000Y-81001000D01*
X73051000Y-81001000D01*
G37*
G36*
X73351000Y-79332520D02*
X72249000Y-78781520D01*
X72249000Y-78218480D01*
X73351000Y-77667480D01*
X73351000Y-79332520D01*
X73351000Y-79332520D01*
G37*
G36*
X74751000Y-78218480D02*
X74751000Y-78781520D01*
X73649000Y-79332520D01*
X73649000Y-77667480D01*
X74751000Y-78218480D01*
X74751000Y-78218480D01*
G37*
G36*
X70001000Y-79101000D02*
X67399000Y-79101000D01*
X67399000Y-77899000D01*
X70001000Y-77899000D01*
X70001000Y-79101000D01*
X70001000Y-79101000D01*
G37*
G36*
X54601000Y-79101000D02*
X51999000Y-79101000D01*
X51999000Y-77899000D01*
X54601000Y-77899000D01*
X54601000Y-79101000D01*
X54601000Y-79101000D01*
G37*
G36*
X89553643Y-77179781D02*
X89699415Y-77240162D01*
X89830611Y-77327824D01*
X89942176Y-77439389D01*
X90029838Y-77570585D01*
X90090219Y-77716357D01*
X90121000Y-77871107D01*
X90121000Y-78028893D01*
X90090219Y-78183643D01*
X90029838Y-78329415D01*
X89942176Y-78460611D01*
X89830611Y-78572176D01*
X89699415Y-78659838D01*
X89553643Y-78720219D01*
X89398893Y-78751000D01*
X89241107Y-78751000D01*
X89086357Y-78720219D01*
X88940585Y-78659838D01*
X88809389Y-78572176D01*
X88697824Y-78460611D01*
X88610162Y-78329415D01*
X88549781Y-78183643D01*
X88519000Y-78028893D01*
X88519000Y-77871107D01*
X88549781Y-77716357D01*
X88610162Y-77570585D01*
X88697824Y-77439389D01*
X88809389Y-77327824D01*
X88940585Y-77240162D01*
X89086357Y-77179781D01*
X89241107Y-77149000D01*
X89398893Y-77149000D01*
X89553643Y-77179781D01*
X89553643Y-77179781D01*
G37*
G36*
X87013643Y-77179781D02*
X87159415Y-77240162D01*
X87290611Y-77327824D01*
X87402176Y-77439389D01*
X87489838Y-77570585D01*
X87550219Y-77716357D01*
X87581000Y-77871107D01*
X87581000Y-78028893D01*
X87550219Y-78183643D01*
X87489838Y-78329415D01*
X87402176Y-78460611D01*
X87290611Y-78572176D01*
X87159415Y-78659838D01*
X87013643Y-78720219D01*
X86858893Y-78751000D01*
X86701107Y-78751000D01*
X86546357Y-78720219D01*
X86400585Y-78659838D01*
X86269389Y-78572176D01*
X86157824Y-78460611D01*
X86070162Y-78329415D01*
X86009781Y-78183643D01*
X85979000Y-78028893D01*
X85979000Y-77871107D01*
X86009781Y-77716357D01*
X86070162Y-77570585D01*
X86157824Y-77439389D01*
X86269389Y-77327824D01*
X86400585Y-77240162D01*
X86546357Y-77179781D01*
X86701107Y-77149000D01*
X86858893Y-77149000D01*
X87013643Y-77179781D01*
X87013643Y-77179781D01*
G37*
G36*
X81933643Y-77179781D02*
X82079415Y-77240162D01*
X82210611Y-77327824D01*
X82322176Y-77439389D01*
X82409838Y-77570585D01*
X82470219Y-77716357D01*
X82501000Y-77871107D01*
X82501000Y-78028893D01*
X82470219Y-78183643D01*
X82409838Y-78329415D01*
X82322176Y-78460611D01*
X82210611Y-78572176D01*
X82079415Y-78659838D01*
X81933643Y-78720219D01*
X81778893Y-78751000D01*
X81621107Y-78751000D01*
X81466357Y-78720219D01*
X81320585Y-78659838D01*
X81189389Y-78572176D01*
X81077824Y-78460611D01*
X80990162Y-78329415D01*
X80929781Y-78183643D01*
X80899000Y-78028893D01*
X80899000Y-77871107D01*
X80929781Y-77716357D01*
X80990162Y-77570585D01*
X81077824Y-77439389D01*
X81189389Y-77327824D01*
X81320585Y-77240162D01*
X81466357Y-77179781D01*
X81621107Y-77149000D01*
X81778893Y-77149000D01*
X81933643Y-77179781D01*
X81933643Y-77179781D01*
G37*
G36*
X84473643Y-77179781D02*
X84619415Y-77240162D01*
X84750611Y-77327824D01*
X84862176Y-77439389D01*
X84949838Y-77570585D01*
X85010219Y-77716357D01*
X85041000Y-77871107D01*
X85041000Y-78028893D01*
X85010219Y-78183643D01*
X84949838Y-78329415D01*
X84862176Y-78460611D01*
X84750611Y-78572176D01*
X84619415Y-78659838D01*
X84473643Y-78720219D01*
X84318893Y-78751000D01*
X84161107Y-78751000D01*
X84006357Y-78720219D01*
X83860585Y-78659838D01*
X83729389Y-78572176D01*
X83617824Y-78460611D01*
X83530162Y-78329415D01*
X83469781Y-78183643D01*
X83439000Y-78028893D01*
X83439000Y-77871107D01*
X83469781Y-77716357D01*
X83530162Y-77570585D01*
X83617824Y-77439389D01*
X83729389Y-77327824D01*
X83860585Y-77240162D01*
X84006357Y-77179781D01*
X84161107Y-77149000D01*
X84318893Y-77149000D01*
X84473643Y-77179781D01*
X84473643Y-77179781D01*
G37*
G36*
X54601000Y-77101000D02*
X51999000Y-77101000D01*
X51999000Y-75899000D01*
X54601000Y-75899000D01*
X54601000Y-77101000D01*
X54601000Y-77101000D01*
G37*
G36*
X70001000Y-77101000D02*
X67399000Y-77101000D01*
X67399000Y-75899000D01*
X70001000Y-75899000D01*
X70001000Y-77101000D01*
X70001000Y-77101000D01*
G37*
G36*
X73051000Y-77001000D02*
X72449000Y-77001000D01*
X72449000Y-75999000D01*
X73051000Y-75999000D01*
X73051000Y-77001000D01*
X73051000Y-77001000D01*
G37*
G36*
X74551000Y-77001000D02*
X73949000Y-77001000D01*
X73949000Y-75999000D01*
X74551000Y-75999000D01*
X74551000Y-77001000D01*
X74551000Y-77001000D01*
G37*
G36*
X54601000Y-75101000D02*
X51999000Y-75101000D01*
X51999000Y-73899000D01*
X54601000Y-73899000D01*
X54601000Y-75101000D01*
X54601000Y-75101000D01*
G37*
G36*
X70001000Y-75101000D02*
X67399000Y-75101000D01*
X67399000Y-73899000D01*
X70001000Y-73899000D01*
X70001000Y-75101000D01*
X70001000Y-75101000D01*
G37*
G36*
X54601000Y-73101000D02*
X51999000Y-73101000D01*
X51999000Y-71899000D01*
X54601000Y-71899000D01*
X54601000Y-73101000D01*
X54601000Y-73101000D01*
G37*
G36*
X70001000Y-73101000D02*
X67399000Y-73101000D01*
X67399000Y-71899000D01*
X70001000Y-71899000D01*
X70001000Y-73101000D01*
X70001000Y-73101000D01*
G37*
G36*
X92756000Y-73026000D02*
X92054000Y-73026000D01*
X92054000Y-71374000D01*
X92756000Y-71374000D01*
X92756000Y-73026000D01*
X92756000Y-73026000D01*
G37*
G36*
X91486000Y-73026000D02*
X90784000Y-73026000D01*
X90784000Y-71374000D01*
X91486000Y-71374000D01*
X91486000Y-73026000D01*
X91486000Y-73026000D01*
G37*
G36*
X90216000Y-73026000D02*
X89514000Y-73026000D01*
X89514000Y-71374000D01*
X90216000Y-71374000D01*
X90216000Y-73026000D01*
X90216000Y-73026000D01*
G37*
G36*
X88946000Y-73026000D02*
X88244000Y-73026000D01*
X88244000Y-71374000D01*
X88946000Y-71374000D01*
X88946000Y-73026000D01*
X88946000Y-73026000D01*
G37*
G36*
X84801000Y-72791000D02*
X81199000Y-72791000D01*
X81199000Y-71089000D01*
X84801000Y-71089000D01*
X84801000Y-72791000D01*
X84801000Y-72791000D01*
G37*
G36*
X76901000Y-72501000D02*
X74099000Y-72501000D01*
X74099000Y-69849000D01*
X76901000Y-69849000D01*
X76901000Y-72501000D01*
X76901000Y-72501000D01*
G37*
G36*
X80176000Y-72051000D02*
X78824000Y-72051000D01*
X78824000Y-70949000D01*
X80176000Y-70949000D01*
X80176000Y-72051000D01*
X80176000Y-72051000D01*
G37*
G36*
X70001000Y-71101000D02*
X67399000Y-71101000D01*
X67399000Y-69899000D01*
X70001000Y-69899000D01*
X70001000Y-71101000D01*
X70001000Y-71101000D01*
G37*
G36*
X54601000Y-71101000D02*
X51999000Y-71101000D01*
X51999000Y-69899000D01*
X54601000Y-69899000D01*
X54601000Y-71101000D01*
X54601000Y-71101000D01*
G37*
G36*
X80176000Y-70051000D02*
X78824000Y-70051000D01*
X78824000Y-68949000D01*
X80176000Y-68949000D01*
X80176000Y-70051000D01*
X80176000Y-70051000D01*
G37*
G36*
X86826000Y-69301000D02*
X85974000Y-69301000D01*
X85974000Y-68399000D01*
X86826000Y-68399000D01*
X86826000Y-69301000D01*
X86826000Y-69301000D01*
G37*
G36*
X52001000Y-68551000D02*
X50999000Y-68551000D01*
X50999000Y-67949000D01*
X52001000Y-67949000D01*
X52001000Y-68551000D01*
X52001000Y-68551000D01*
G37*
G36*
X84801000Y-67911000D02*
X81199000Y-67911000D01*
X81199000Y-66209000D01*
X84801000Y-66209000D01*
X84801000Y-67911000D01*
X84801000Y-67911000D01*
G37*
G36*
X86826000Y-67801000D02*
X85974000Y-67801000D01*
X85974000Y-66899000D01*
X86826000Y-66899000D01*
X86826000Y-67801000D01*
X86826000Y-67801000D01*
G37*
G36*
X88946000Y-67626000D02*
X88244000Y-67626000D01*
X88244000Y-65974000D01*
X88946000Y-65974000D01*
X88946000Y-67626000D01*
X88946000Y-67626000D01*
G37*
G36*
X90216000Y-67626000D02*
X89514000Y-67626000D01*
X89514000Y-65974000D01*
X90216000Y-65974000D01*
X90216000Y-67626000D01*
X90216000Y-67626000D01*
G37*
G36*
X91486000Y-67626000D02*
X90784000Y-67626000D01*
X90784000Y-65974000D01*
X91486000Y-65974000D01*
X91486000Y-67626000D01*
X91486000Y-67626000D01*
G37*
G36*
X92756000Y-67626000D02*
X92054000Y-67626000D01*
X92054000Y-65974000D01*
X92756000Y-65974000D01*
X92756000Y-67626000D01*
X92756000Y-67626000D01*
G37*
G36*
X52001000Y-67051000D02*
X50999000Y-67051000D01*
X50999000Y-66449000D01*
X52001000Y-66449000D01*
X52001000Y-67051000D01*
X52001000Y-67051000D01*
G37*
G36*
X76901000Y-66151000D02*
X74099000Y-66151000D01*
X74099000Y-63499000D01*
X76901000Y-63499000D01*
X76901000Y-66151000D01*
X76901000Y-66151000D01*
G37*
G36*
X51926000Y-65201000D02*
X51074000Y-65201000D01*
X51074000Y-64299000D01*
X51926000Y-64299000D01*
X51926000Y-65201000D01*
X51926000Y-65201000D01*
G37*
G36*
X92551000Y-64676000D02*
X91449000Y-64676000D01*
X91449000Y-63324000D01*
X92551000Y-63324000D01*
X92551000Y-64676000D01*
X92551000Y-64676000D01*
G37*
G36*
X90551000Y-64676000D02*
X89449000Y-64676000D01*
X89449000Y-63324000D01*
X90551000Y-63324000D01*
X90551000Y-64676000D01*
X90551000Y-64676000D01*
G37*
G36*
X84301000Y-64451000D02*
X81699000Y-64451000D01*
X81699000Y-62549000D01*
X84301000Y-62549000D01*
X84301000Y-64451000D01*
X84301000Y-64451000D01*
G37*
G36*
X88301000Y-64451000D02*
X85699000Y-64451000D01*
X85699000Y-62549000D01*
X88301000Y-62549000D01*
X88301000Y-64451000D01*
X88301000Y-64451000D01*
G37*
G36*
X51926000Y-63701000D02*
X51074000Y-63701000D01*
X51074000Y-62799000D01*
X51926000Y-62799000D01*
X51926000Y-63701000D01*
X51926000Y-63701000D01*
G37*
G36*
X55051000Y-60676000D02*
X53949000Y-60676000D01*
X53949000Y-59324000D01*
X55051000Y-59324000D01*
X55051000Y-60676000D01*
X55051000Y-60676000D01*
G37*
G36*
X53051000Y-60676000D02*
X51949000Y-60676000D01*
X51949000Y-59324000D01*
X53051000Y-59324000D01*
X53051000Y-60676000D01*
X53051000Y-60676000D01*
G37*
G36*
X71146000Y-60551000D02*
X69774000Y-60551000D01*
X69774000Y-56849000D01*
X71146000Y-56849000D01*
X71146000Y-60551000D01*
X71146000Y-60551000D01*
G37*
G36*
X73686000Y-60551000D02*
X72314000Y-60551000D01*
X72314000Y-56849000D01*
X73686000Y-56849000D01*
X73686000Y-60551000D01*
X73686000Y-60551000D01*
G37*
G36*
X76226000Y-60551000D02*
X74854000Y-60551000D01*
X74854000Y-56849000D01*
X76226000Y-56849000D01*
X76226000Y-60551000D01*
X76226000Y-60551000D01*
G37*
G36*
X82401000Y-60001000D02*
X79599000Y-60001000D01*
X79599000Y-57349000D01*
X82401000Y-57349000D01*
X82401000Y-60001000D01*
X82401000Y-60001000D01*
G37*
G36*
X65001000Y-59551000D02*
X63999000Y-59551000D01*
X63999000Y-58949000D01*
X65001000Y-58949000D01*
X65001000Y-59551000D01*
X65001000Y-59551000D01*
G37*
G36*
X61001000Y-59551000D02*
X59999000Y-59551000D01*
X59999000Y-58949000D01*
X61001000Y-58949000D01*
X61001000Y-59551000D01*
X61001000Y-59551000D01*
G37*
G36*
X65001000Y-58051000D02*
X63999000Y-58051000D01*
X63999000Y-57449000D01*
X65001000Y-57449000D01*
X65001000Y-58051000D01*
X65001000Y-58051000D01*
G37*
G36*
X61001000Y-58051000D02*
X59999000Y-58051000D01*
X59999000Y-57449000D01*
X61001000Y-57449000D01*
X61001000Y-58051000D01*
X61001000Y-58051000D01*
G37*
G36*
X61001000Y-56501000D02*
X60099000Y-56501000D01*
X60099000Y-55499000D01*
X61001000Y-55499000D01*
X61001000Y-56501000D01*
X61001000Y-56501000D01*
G37*
G36*
X66901000Y-56501000D02*
X65999000Y-56501000D01*
X65999000Y-55499000D01*
X66901000Y-55499000D01*
X66901000Y-56501000D01*
X66901000Y-56501000D01*
G37*
G36*
X65001000Y-56501000D02*
X64099000Y-56501000D01*
X64099000Y-55499000D01*
X65001000Y-55499000D01*
X65001000Y-56501000D01*
X65001000Y-56501000D01*
G37*
G36*
X62901000Y-56501000D02*
X61999000Y-56501000D01*
X61999000Y-55499000D01*
X62901000Y-55499000D01*
X62901000Y-56501000D01*
X62901000Y-56501000D01*
G37*
G36*
X61951000Y-54501000D02*
X61049000Y-54501000D01*
X61049000Y-53499000D01*
X61951000Y-53499000D01*
X61951000Y-54501000D01*
X61951000Y-54501000D01*
G37*
G36*
X65951000Y-54501000D02*
X65049000Y-54501000D01*
X65049000Y-53499000D01*
X65951000Y-53499000D01*
X65951000Y-54501000D01*
X65951000Y-54501000D01*
G37*
G36*
X71146000Y-54151000D02*
X69774000Y-54151000D01*
X69774000Y-50449000D01*
X71146000Y-50449000D01*
X71146000Y-54151000D01*
X71146000Y-54151000D01*
G37*
G36*
X73686000Y-54151000D02*
X72314000Y-54151000D01*
X72314000Y-50449000D01*
X73686000Y-50449000D01*
X73686000Y-54151000D01*
X73686000Y-54151000D01*
G37*
G36*
X76226000Y-54151000D02*
X74854000Y-54151000D01*
X74854000Y-50449000D01*
X76226000Y-50449000D01*
X76226000Y-54151000D01*
X76226000Y-54151000D01*
G37*
G36*
X82401000Y-53651000D02*
X79599000Y-53651000D01*
X79599000Y-50999000D01*
X82401000Y-50999000D01*
X82401000Y-53651000D01*
X82401000Y-53651000D01*
G37*
M02*
