G04 #@! TF.GenerationSoftware,KiCad,Pcbnew,(6.0.0-rc1-dev-557-ge985f797c)*
G04 #@! TF.CreationDate,2018-10-28T11:13:31+01:00*
G04 #@! TF.ProjectId,GIRA ESP8266 Jalousiesteuerung,474952412045535038323636204A616C,1.0*
G04 #@! TF.SameCoordinates,Original*
G04 #@! TF.FileFunction,Copper,L1,Top,Signal*
G04 #@! TF.FilePolarity,Positive*
%FSLAX46Y46*%
G04 Gerber Fmt 4.6, Leading zero omitted, Abs format (unit mm)*
G04 Created by KiCad (PCBNEW (6.0.0-rc1-dev-557-ge985f797c)) date 10/28/18 11:13:31*
%MOMM*%
%LPD*%
G01*
G04 APERTURE LIST*
G04 #@! TA.AperFunction,BGAPad,CuDef*
%ADD10C,1.500000*%
G04 #@! TD*
G04 #@! TA.AperFunction,ComponentPad*
%ADD11C,2.100000*%
G04 #@! TD*
G04 #@! TA.AperFunction,SMDPad,CuDef*
%ADD12R,1.000000X1.250000*%
G04 #@! TD*
G04 #@! TA.AperFunction,SMDPad,CuDef*
%ADD13R,1.250000X1.000000*%
G04 #@! TD*
G04 #@! TA.AperFunction,SMDPad,CuDef*
%ADD14R,1.100000X2.500000*%
G04 #@! TD*
G04 #@! TA.AperFunction,SMDPad,CuDef*
%ADD15R,2.500000X1.100000*%
G04 #@! TD*
G04 #@! TA.AperFunction,SMDPad,CuDef*
%ADD16R,2.700000X2.550000*%
G04 #@! TD*
G04 #@! TA.AperFunction,SMDPad,CuDef*
%ADD17R,0.750000X0.800000*%
G04 #@! TD*
G04 #@! TA.AperFunction,SMDPad,CuDef*
%ADD18R,2.500000X1.800000*%
G04 #@! TD*
G04 #@! TA.AperFunction,SMDPad,CuDef*
%ADD19R,3.500000X1.600000*%
G04 #@! TD*
G04 #@! TA.AperFunction,SMDPad,CuDef*
%ADD20R,1.270000X3.600000*%
G04 #@! TD*
G04 #@! TA.AperFunction,SMDPad,CuDef*
%ADD21R,0.800000X0.900000*%
G04 #@! TD*
G04 #@! TA.AperFunction,SMDPad,CuDef*
%ADD22R,0.900000X0.500000*%
G04 #@! TD*
G04 #@! TA.AperFunction,SMDPad,CuDef*
%ADD23R,0.500000X0.900000*%
G04 #@! TD*
G04 #@! TA.AperFunction,SMDPad,CuDef*
%ADD24R,0.600000X1.550000*%
G04 #@! TD*
G04 #@! TA.AperFunction,SMDPad,CuDef*
%ADD25C,0.894426*%
G04 #@! TD*
G04 #@! TA.AperFunction,Conductor*
%ADD26C,0.100000*%
G04 #@! TD*
G04 #@! TA.AperFunction,ViaPad*
%ADD27C,0.800000*%
G04 #@! TD*
G04 #@! TA.AperFunction,Conductor*
%ADD28C,0.500000*%
G04 #@! TD*
G04 #@! TA.AperFunction,Conductor*
%ADD29C,1.000000*%
G04 #@! TD*
G04 #@! TA.AperFunction,Conductor*
%ADD30C,0.750000*%
G04 #@! TD*
G04 #@! TA.AperFunction,Conductor*
%ADD31C,0.250000*%
G04 #@! TD*
G04 #@! TA.AperFunction,Conductor*
%ADD32C,0.254000*%
G04 #@! TD*
G04 APERTURE END LIST*
D10*
G04 #@! TO.P,TP4,1*
G04 #@! TO.N,+3V3*
X81700000Y-77950000D03*
G04 #@! TD*
D11*
G04 #@! TO.P,S1,1*
G04 #@! TO.N,Net-(S1-Pad1)*
X56100000Y-56100000D03*
G04 #@! TD*
G04 #@! TO.P,S2,1*
G04 #@! TO.N,Net-(S1-Pad1)*
X89900000Y-56100000D03*
G04 #@! TD*
G04 #@! TO.P,S3,1*
G04 #@! TO.N,Net-(S3-Pad1)*
X56100000Y-89900000D03*
G04 #@! TD*
G04 #@! TO.P,S4,1*
G04 #@! TO.N,Net-(S3-Pad1)*
X89900000Y-89900000D03*
G04 #@! TD*
D12*
G04 #@! TO.P,C7,1*
G04 #@! TO.N,GND*
X92000000Y-64000000D03*
G04 #@! TO.P,C7,2*
G04 #@! TO.N,+15V*
X90000000Y-64000000D03*
G04 #@! TD*
D13*
G04 #@! TO.P,C6,1*
G04 #@! TO.N,GND*
X79500000Y-69500000D03*
G04 #@! TO.P,C6,2*
G04 #@! TO.N,+3V3*
X79500000Y-71500000D03*
G04 #@! TD*
D14*
G04 #@! TO.P,U1,14*
G04 #@! TO.N,Net-(U1-Pad14)*
X65990000Y-86200000D03*
G04 #@! TO.P,U1,13*
G04 #@! TO.N,Net-(U1-Pad13)*
X63990000Y-86200000D03*
G04 #@! TO.P,U1,12*
G04 #@! TO.N,Net-(U1-Pad12)*
X61990000Y-86200000D03*
G04 #@! TO.P,U1,11*
G04 #@! TO.N,Net-(U1-Pad11)*
X59990000Y-86200000D03*
G04 #@! TO.P,U1,10*
G04 #@! TO.N,Net-(U1-Pad10)*
X57990000Y-86200000D03*
G04 #@! TO.P,U1,9*
G04 #@! TO.N,Net-(U1-Pad9)*
X55990000Y-86200000D03*
D15*
G04 #@! TO.P,U1,22*
G04 #@! TO.N,Net-(TP2-Pad1)*
X68700000Y-70500000D03*
G04 #@! TO.P,U1,21*
G04 #@! TO.N,Net-(TP3-Pad1)*
X68700000Y-72500000D03*
G04 #@! TO.P,U1,20*
G04 #@! TO.N,Net-(S3-Pad1)*
X68700000Y-74500000D03*
G04 #@! TO.P,U1,19*
G04 #@! TO.N,Net-(S1-Pad1)*
X68700000Y-76500000D03*
G04 #@! TO.P,U1,18*
G04 #@! TO.N,Net-(JP1-Pad1)*
X68700000Y-78500000D03*
G04 #@! TO.P,U1,17*
G04 #@! TO.N,Net-(R6-Pad1)*
X68700000Y-80500000D03*
G04 #@! TO.P,U1,16*
G04 #@! TO.N,Net-(R2-Pad2)*
X68700000Y-82500000D03*
G04 #@! TO.P,U1,15*
G04 #@! TO.N,GND*
X68700000Y-84500000D03*
G04 #@! TO.P,U1,8*
G04 #@! TO.N,+3V3*
X53300000Y-84500000D03*
G04 #@! TO.P,U1,7*
G04 #@! TO.N,Net-(R4-Pad2)*
X53300000Y-82500000D03*
G04 #@! TO.P,U1,6*
G04 #@! TO.N,Net-(R3-Pad2)*
X53300000Y-80500000D03*
G04 #@! TO.P,U1,5*
G04 #@! TO.N,Net-(U1-Pad5)*
X53300000Y-78500000D03*
G04 #@! TO.P,U1,4*
G04 #@! TO.N,Net-(U1-Pad4)*
X53300000Y-76500000D03*
G04 #@! TO.P,U1,3*
G04 #@! TO.N,+3V3*
X53300000Y-74500000D03*
G04 #@! TO.P,U1,2*
G04 #@! TO.N,Net-(U1-Pad2)*
X53300000Y-72500000D03*
G04 #@! TO.P,U1,1*
G04 #@! TO.N,Net-(R1-Pad1)*
X53300000Y-70500000D03*
G04 #@! TD*
D16*
G04 #@! TO.P,C1,1*
G04 #@! TO.N,+15V*
X81000000Y-52325000D03*
G04 #@! TO.P,C1,2*
G04 #@! TO.N,GND*
X81000000Y-58675000D03*
G04 #@! TD*
D17*
G04 #@! TO.P,C2,2*
G04 #@! TO.N,Net-(C2-Pad2)*
X86400000Y-67350000D03*
G04 #@! TO.P,C2,1*
G04 #@! TO.N,Net-(C2-Pad1)*
X86400000Y-68850000D03*
G04 #@! TD*
D12*
G04 #@! TO.P,C3,2*
G04 #@! TO.N,+3V3*
X54500000Y-60000000D03*
G04 #@! TO.P,C3,1*
G04 #@! TO.N,GND*
X52500000Y-60000000D03*
G04 #@! TD*
D16*
G04 #@! TO.P,C4,2*
G04 #@! TO.N,GND*
X75500000Y-64825000D03*
G04 #@! TO.P,C4,1*
G04 #@! TO.N,+3V3*
X75500000Y-71175000D03*
G04 #@! TD*
D17*
G04 #@! TO.P,C5,1*
G04 #@! TO.N,GND*
X51500000Y-63250000D03*
G04 #@! TO.P,C5,2*
G04 #@! TO.N,+3V3*
X51500000Y-64750000D03*
G04 #@! TD*
D18*
G04 #@! TO.P,D1,2*
G04 #@! TO.N,GND*
X87000000Y-63500000D03*
G04 #@! TO.P,D1,1*
G04 #@! TO.N,Net-(C2-Pad2)*
X83000000Y-63500000D03*
G04 #@! TD*
D19*
G04 #@! TO.P,L1,2*
G04 #@! TO.N,+3V3*
X83000000Y-71940000D03*
G04 #@! TO.P,L1,1*
G04 #@! TO.N,Net-(C2-Pad2)*
X83000000Y-67060000D03*
G04 #@! TD*
D20*
G04 #@! TO.P,P1,2*
G04 #@! TO.N,/DOWN*
X70460000Y-52300000D03*
G04 #@! TO.P,P1,4*
G04 #@! TO.N,/UP*
X73000000Y-52300000D03*
G04 #@! TO.P,P1,6*
G04 #@! TO.N,+15V*
X75540000Y-52300000D03*
G04 #@! TO.P,P1,5*
G04 #@! TO.N,Net-(P1-Pad5)*
X75540000Y-58700000D03*
G04 #@! TO.P,P1,3*
G04 #@! TO.N,GND*
X73000000Y-58700000D03*
G04 #@! TO.P,P1,1*
G04 #@! TO.N,Net-(P1-Pad1)*
X70460000Y-58700000D03*
G04 #@! TD*
D21*
G04 #@! TO.P,Q1,1*
G04 #@! TO.N,Net-(Q1-Pad1)*
X60550000Y-56000000D03*
G04 #@! TO.P,Q1,2*
G04 #@! TO.N,GND*
X62450000Y-56000000D03*
G04 #@! TO.P,Q1,3*
G04 #@! TO.N,/DOWN*
X61500000Y-54000000D03*
G04 #@! TD*
G04 #@! TO.P,Q2,3*
G04 #@! TO.N,/UP*
X65500000Y-54000000D03*
G04 #@! TO.P,Q2,2*
G04 #@! TO.N,GND*
X66450000Y-56000000D03*
G04 #@! TO.P,Q2,1*
G04 #@! TO.N,Net-(Q2-Pad1)*
X64550000Y-56000000D03*
G04 #@! TD*
D22*
G04 #@! TO.P,R1,2*
G04 #@! TO.N,+3V3*
X51500000Y-66750000D03*
G04 #@! TO.P,R1,1*
G04 #@! TO.N,Net-(R1-Pad1)*
X51500000Y-68250000D03*
G04 #@! TD*
G04 #@! TO.P,R2,1*
G04 #@! TO.N,GND*
X72000000Y-84250000D03*
G04 #@! TO.P,R2,2*
G04 #@! TO.N,Net-(R2-Pad2)*
X72000000Y-82750000D03*
G04 #@! TD*
G04 #@! TO.P,R3,2*
G04 #@! TO.N,Net-(R3-Pad2)*
X60500000Y-59250000D03*
G04 #@! TO.P,R3,1*
G04 #@! TO.N,Net-(Q1-Pad1)*
X60500000Y-57750000D03*
G04 #@! TD*
G04 #@! TO.P,R4,1*
G04 #@! TO.N,Net-(Q2-Pad1)*
X64500000Y-57750000D03*
G04 #@! TO.P,R4,2*
G04 #@! TO.N,Net-(R4-Pad2)*
X64500000Y-59250000D03*
G04 #@! TD*
D23*
G04 #@! TO.P,R5,1*
G04 #@! TO.N,Net-(JP1-Pad1)*
X72750000Y-76500000D03*
G04 #@! TO.P,R5,2*
G04 #@! TO.N,+3V3*
X74250000Y-76500000D03*
G04 #@! TD*
G04 #@! TO.P,R6,2*
G04 #@! TO.N,+3V3*
X74250000Y-80500000D03*
G04 #@! TO.P,R6,1*
G04 #@! TO.N,Net-(R6-Pad1)*
X72750000Y-80500000D03*
G04 #@! TD*
D10*
G04 #@! TO.P,TP1,1*
G04 #@! TO.N,GND*
X89320000Y-77950000D03*
G04 #@! TD*
G04 #@! TO.P,TP2,1*
G04 #@! TO.N,Net-(TP2-Pad1)*
X86780000Y-77950000D03*
G04 #@! TD*
G04 #@! TO.P,TP3,1*
G04 #@! TO.N,Net-(TP3-Pad1)*
X84240000Y-77950000D03*
G04 #@! TD*
D24*
G04 #@! TO.P,U2,8*
G04 #@! TO.N,Net-(C2-Pad2)*
X88595000Y-66800000D03*
G04 #@! TO.P,U2,7*
G04 #@! TO.N,+15V*
X89865000Y-66800000D03*
G04 #@! TO.P,U2,6*
G04 #@! TO.N,GND*
X91135000Y-66800000D03*
G04 #@! TO.P,U2,5*
G04 #@! TO.N,Net-(U2-Pad5)*
X92405000Y-66800000D03*
G04 #@! TO.P,U2,4*
G04 #@! TO.N,+3V3*
X92405000Y-72200000D03*
G04 #@! TO.P,U2,3*
G04 #@! TO.N,N/C*
X91135000Y-72200000D03*
G04 #@! TO.P,U2,2*
X89865000Y-72200000D03*
G04 #@! TO.P,U2,1*
G04 #@! TO.N,Net-(C2-Pad1)*
X88595000Y-72200000D03*
G04 #@! TD*
D25*
G04 #@! TO.P,JP1,1*
G04 #@! TO.N,Net-(JP1-Pad1)*
X72800000Y-78500000D03*
D26*
G04 #@! TD*
G04 #@! TO.N,Net-(JP1-Pad1)*
G04 #@! TO.C,JP1*
G36*
X72300000Y-78750000D02*
X72300000Y-78250000D01*
X73300000Y-77750000D01*
X73300000Y-79250000D01*
X72300000Y-78750000D01*
X72300000Y-78750000D01*
G37*
D25*
G04 #@! TO.P,JP1,2*
G04 #@! TO.N,GND*
X74200000Y-78500000D03*
D26*
G04 #@! TD*
G04 #@! TO.N,GND*
G04 #@! TO.C,JP1*
G36*
X74700000Y-78250000D02*
X74700000Y-78750000D01*
X73700000Y-79250000D01*
X73700000Y-77750000D01*
X74700000Y-78250000D01*
X74700000Y-78250000D01*
G37*
D27*
G04 #@! TO.N,GND*
X56000000Y-52000000D03*
X90000000Y-52000000D03*
X90000000Y-85600000D03*
X52500000Y-87500000D03*
X68000000Y-57000000D03*
X62500000Y-57500000D03*
G04 #@! TO.N,+3V3*
X76200000Y-77900000D03*
X77600000Y-72500000D03*
X56200000Y-60700000D03*
X75400000Y-80500000D03*
G04 #@! TO.N,Net-(S1-Pad1)*
X86000000Y-53800000D03*
X72600000Y-61900000D03*
X72400000Y-70100000D03*
X71100000Y-75100000D03*
X58300000Y-59700000D03*
G04 #@! TO.N,Net-(S3-Pad1)*
X60400000Y-89900000D03*
X65700000Y-74500000D03*
G04 #@! TD*
D28*
G04 #@! TO.N,+15V*
X89865000Y-64135000D02*
X90000000Y-64000000D01*
X89865000Y-66800000D02*
X89865000Y-64135000D01*
D29*
X80975000Y-52300000D02*
X81000000Y-52325000D01*
X75540000Y-52300000D02*
X80975000Y-52300000D01*
X90000000Y-62375000D02*
X90000000Y-64000000D01*
X90000000Y-61250000D02*
X90000000Y-62375000D01*
X81075000Y-52325000D02*
X90000000Y-61250000D01*
X81000000Y-52325000D02*
X81075000Y-52325000D01*
D28*
G04 #@! TO.N,Net-(C2-Pad1)*
X88595000Y-71045000D02*
X86400000Y-68850000D01*
X88595000Y-72200000D02*
X88595000Y-71045000D01*
D29*
G04 #@! TO.N,+3V3*
X79175000Y-71175000D02*
X79500000Y-71500000D01*
X79940000Y-71940000D02*
X79500000Y-71500000D01*
X83000000Y-71940000D02*
X79940000Y-71940000D01*
D28*
X92405000Y-73475000D02*
X91880000Y-74000000D01*
X92405000Y-72200000D02*
X92405000Y-73475000D01*
X85250000Y-71940000D02*
X83000000Y-71940000D01*
X87310000Y-74000000D02*
X85250000Y-71940000D01*
X91880000Y-74000000D02*
X87310000Y-74000000D01*
X51500000Y-64750000D02*
X51500000Y-66750000D01*
X55750000Y-74000000D02*
X55250000Y-74500000D01*
X55250000Y-74500000D02*
X54000000Y-74500000D01*
X55750000Y-69250000D02*
X55750000Y-74000000D01*
X51700000Y-66750000D02*
X52500000Y-67550000D01*
X51500000Y-66750000D02*
X51700000Y-66750000D01*
X52500000Y-67550000D02*
X52500000Y-68136412D01*
X52500000Y-68136412D02*
X53113588Y-68750000D01*
X53113588Y-68750000D02*
X55250000Y-68750000D01*
X55250000Y-68750000D02*
X55750000Y-69250000D01*
X54500000Y-61125000D02*
X54500000Y-60000000D01*
X51500000Y-64750000D02*
X51500000Y-64725000D01*
X51500000Y-64725000D02*
X52375000Y-63850000D01*
X52375000Y-63850000D02*
X52375000Y-61988588D01*
X52375000Y-61988588D02*
X52863588Y-61500000D01*
X52863588Y-61500000D02*
X54125000Y-61500000D01*
X54125000Y-61500000D02*
X54500000Y-61125000D01*
X77600000Y-72500000D02*
X77600000Y-71175000D01*
D29*
X75500000Y-71175000D02*
X77600000Y-71175000D01*
X77600000Y-71175000D02*
X79175000Y-71175000D01*
D28*
X75650000Y-77900000D02*
X74250000Y-76500000D01*
X76200000Y-77900000D02*
X75650000Y-77900000D01*
D30*
X54500000Y-60000000D02*
X55500000Y-60000000D01*
X55500000Y-60000000D02*
X56200000Y-60700000D01*
D28*
X74250000Y-80500000D02*
X75400000Y-80500000D01*
X54000000Y-74500000D02*
X51900000Y-74500000D01*
X51900000Y-74500000D02*
X51100000Y-75300000D01*
X51100000Y-75300000D02*
X51100000Y-83900000D01*
X51700000Y-84500000D02*
X54000000Y-84500000D01*
X51100000Y-83900000D02*
X51700000Y-84500000D01*
X81650000Y-77900000D02*
X81700000Y-77950000D01*
X76200000Y-77900000D02*
X81650000Y-77900000D01*
G04 #@! TO.N,Net-(JP1-Pad1)*
X71500000Y-77000000D02*
X71500000Y-78500000D01*
X72000000Y-76500000D02*
X71500000Y-77000000D01*
X72750000Y-76500000D02*
X72000000Y-76500000D01*
X68000000Y-78500000D02*
X71500000Y-78500000D01*
X71500000Y-78500000D02*
X72800000Y-78500000D01*
G04 #@! TO.N,/UP*
X73000000Y-54600000D02*
X73000000Y-52300000D01*
X72600000Y-55000000D02*
X73000000Y-54600000D01*
X67400000Y-55000000D02*
X72600000Y-55000000D01*
X66400000Y-54000000D02*
X67400000Y-55000000D01*
X65500000Y-54000000D02*
X66400000Y-54000000D01*
G04 #@! TO.N,/DOWN*
X69325000Y-52300000D02*
X70460000Y-52300000D01*
X64100000Y-52300000D02*
X69325000Y-52300000D01*
X62400000Y-54000000D02*
X64100000Y-52300000D01*
X61500000Y-54000000D02*
X62400000Y-54000000D01*
G04 #@! TO.N,Net-(Q1-Pad1)*
X60550000Y-57700000D02*
X60500000Y-57750000D01*
X60550000Y-56000000D02*
X60550000Y-57700000D01*
G04 #@! TO.N,Net-(Q2-Pad1)*
X64550000Y-57700000D02*
X64500000Y-57750000D01*
X64550000Y-56000000D02*
X64550000Y-57700000D01*
G04 #@! TO.N,Net-(R1-Pad1)*
X54000000Y-70500000D02*
X52250000Y-70500000D01*
X51500000Y-69750000D02*
X51500000Y-68250000D01*
X52250000Y-70500000D02*
X51500000Y-69750000D01*
G04 #@! TO.N,Net-(R2-Pad2)*
X72000000Y-82750000D02*
X71000000Y-82750000D01*
X70750000Y-82500000D02*
X68000000Y-82500000D01*
X71000000Y-82750000D02*
X70750000Y-82500000D01*
D31*
G04 #@! TO.N,Net-(R3-Pad2)*
X69575010Y-68134626D02*
X69209636Y-68500000D01*
X69575010Y-61865374D02*
X69575010Y-68134626D01*
X69384626Y-61674990D02*
X69575010Y-61865374D01*
X63124990Y-61674990D02*
X69384626Y-61674990D01*
X60500000Y-59250000D02*
X60700000Y-59250000D01*
X60700000Y-59250000D02*
X63124990Y-61674990D01*
X66000000Y-68500000D02*
X54000000Y-80500000D01*
X69209636Y-68500000D02*
X66000000Y-68500000D01*
G04 #@! TO.N,Net-(R4-Pad2)*
X54314998Y-82500000D02*
X54000000Y-82500000D01*
X67564998Y-69250000D02*
X54314998Y-82500000D01*
X69750000Y-69250000D02*
X67564998Y-69250000D01*
X64500000Y-59250000D02*
X66959636Y-59250000D01*
X66959636Y-59250000D02*
X68709636Y-61000000D01*
X68709636Y-61000000D02*
X69750000Y-61000000D01*
X69750000Y-61000000D02*
X70250000Y-61500000D01*
X70250000Y-61500000D02*
X70250000Y-68750000D01*
X70250000Y-68750000D02*
X69750000Y-69250000D01*
D28*
G04 #@! TO.N,Net-(R6-Pad1)*
X68000000Y-80500000D02*
X72750000Y-80500000D01*
G04 #@! TO.N,Net-(S1-Pad1)*
X89900000Y-56100000D02*
X88300000Y-56100000D01*
X88300000Y-56100000D02*
X86000000Y-53800000D01*
X72600000Y-61900000D02*
X72600000Y-69900000D01*
X72600000Y-69900000D02*
X72400000Y-70100000D01*
X69700000Y-76500000D02*
X68000000Y-76500000D01*
X71100000Y-75100000D02*
X69700000Y-76500000D01*
X56100000Y-56100000D02*
X56100000Y-57500000D01*
X56100000Y-57500000D02*
X58300000Y-59700000D01*
G04 #@! TO.N,Net-(S3-Pad1)*
X56100000Y-89900000D02*
X60400000Y-89900000D01*
X65700000Y-74500000D02*
X68000000Y-74500000D01*
X89900000Y-89900000D02*
X60400000Y-89900000D01*
G04 #@! TO.N,Net-(TP2-Pad1)*
X82330000Y-73500000D02*
X86780000Y-77950000D01*
X73800000Y-73500000D02*
X82330000Y-73500000D01*
X68000000Y-70500000D02*
X70800000Y-70500000D01*
X70800000Y-70500000D02*
X73800000Y-73500000D01*
G04 #@! TO.N,Net-(TP3-Pad1)*
X80890000Y-74600000D02*
X84240000Y-77950000D01*
X73300000Y-74600000D02*
X80890000Y-74600000D01*
X68000000Y-72500000D02*
X71200000Y-72500000D01*
X71200000Y-72500000D02*
X73300000Y-74600000D01*
G04 #@! TD*
D32*
G04 #@! TO.N,Net-(C2-Pad2)*
G36*
X84873000Y-62802606D02*
X84873000Y-65000000D01*
X84882667Y-65048601D01*
X84910197Y-65089803D01*
X85410197Y-65589803D01*
X85451399Y-65617333D01*
X85500000Y-65627000D01*
X88697394Y-65627000D01*
X88947064Y-65876670D01*
X88917560Y-66025000D01*
X88917560Y-67575000D01*
X88930473Y-67639921D01*
X88697394Y-67873000D01*
X87054428Y-67873000D01*
X87022765Y-67851843D01*
X86775000Y-67802560D01*
X86025000Y-67802560D01*
X85777235Y-67851843D01*
X85745572Y-67873000D01*
X81552606Y-67873000D01*
X81127000Y-67447394D01*
X81127000Y-62802606D01*
X81552606Y-62377000D01*
X84447394Y-62377000D01*
X84873000Y-62802606D01*
X84873000Y-62802606D01*
G37*
X84873000Y-62802606D02*
X84873000Y-65000000D01*
X84882667Y-65048601D01*
X84910197Y-65089803D01*
X85410197Y-65589803D01*
X85451399Y-65617333D01*
X85500000Y-65627000D01*
X88697394Y-65627000D01*
X88947064Y-65876670D01*
X88917560Y-66025000D01*
X88917560Y-67575000D01*
X88930473Y-67639921D01*
X88697394Y-67873000D01*
X87054428Y-67873000D01*
X87022765Y-67851843D01*
X86775000Y-67802560D01*
X86025000Y-67802560D01*
X85777235Y-67851843D01*
X85745572Y-67873000D01*
X81552606Y-67873000D01*
X81127000Y-67447394D01*
X81127000Y-62802606D01*
X81552606Y-62377000D01*
X84447394Y-62377000D01*
X84873000Y-62802606D01*
G04 #@! TO.N,GND*
G36*
X95340001Y-95340000D02*
X50660000Y-95340000D01*
X50660000Y-89564833D01*
X54415000Y-89564833D01*
X54415000Y-90235167D01*
X54671526Y-90854476D01*
X55145524Y-91328474D01*
X55764833Y-91585000D01*
X56435167Y-91585000D01*
X57054476Y-91328474D01*
X57528474Y-90854476D01*
X57557252Y-90785000D01*
X59831993Y-90785000D01*
X60194126Y-90935000D01*
X60605874Y-90935000D01*
X60968007Y-90785000D01*
X88442748Y-90785000D01*
X88471526Y-90854476D01*
X88945524Y-91328474D01*
X89564833Y-91585000D01*
X90235167Y-91585000D01*
X90854476Y-91328474D01*
X91328474Y-90854476D01*
X91585000Y-90235167D01*
X91585000Y-89564833D01*
X91328474Y-88945524D01*
X90854476Y-88471526D01*
X90235167Y-88215000D01*
X89564833Y-88215000D01*
X88945524Y-88471526D01*
X88471526Y-88945524D01*
X88442748Y-89015000D01*
X60968007Y-89015000D01*
X60605874Y-88865000D01*
X60194126Y-88865000D01*
X59831993Y-89015000D01*
X57557252Y-89015000D01*
X57528474Y-88945524D01*
X57054476Y-88471526D01*
X56435167Y-88215000D01*
X55764833Y-88215000D01*
X55145524Y-88471526D01*
X54671526Y-88945524D01*
X54415000Y-89564833D01*
X50660000Y-89564833D01*
X50660000Y-84711578D01*
X51012577Y-85064156D01*
X51061951Y-85138049D01*
X51135844Y-85187423D01*
X51135845Y-85187424D01*
X51246880Y-85261615D01*
X51354690Y-85333652D01*
X51494389Y-85361440D01*
X51592191Y-85507809D01*
X51802235Y-85648157D01*
X52050000Y-85697440D01*
X54550000Y-85697440D01*
X54792560Y-85649192D01*
X54792560Y-87450000D01*
X54841843Y-87697765D01*
X54982191Y-87907809D01*
X55192235Y-88048157D01*
X55440000Y-88097440D01*
X56540000Y-88097440D01*
X56787765Y-88048157D01*
X56990000Y-87913027D01*
X57192235Y-88048157D01*
X57440000Y-88097440D01*
X58540000Y-88097440D01*
X58787765Y-88048157D01*
X58990000Y-87913027D01*
X59192235Y-88048157D01*
X59440000Y-88097440D01*
X60540000Y-88097440D01*
X60787765Y-88048157D01*
X60990000Y-87913027D01*
X61192235Y-88048157D01*
X61440000Y-88097440D01*
X62540000Y-88097440D01*
X62787765Y-88048157D01*
X62990000Y-87913027D01*
X63192235Y-88048157D01*
X63440000Y-88097440D01*
X64540000Y-88097440D01*
X64787765Y-88048157D01*
X64990000Y-87913027D01*
X65192235Y-88048157D01*
X65440000Y-88097440D01*
X66540000Y-88097440D01*
X66787765Y-88048157D01*
X66997809Y-87907809D01*
X67138157Y-87697765D01*
X67187440Y-87450000D01*
X67187440Y-84950000D01*
X67138157Y-84702235D01*
X66997809Y-84492191D01*
X66787765Y-84351843D01*
X66540000Y-84302560D01*
X65440000Y-84302560D01*
X65192235Y-84351843D01*
X64990000Y-84486973D01*
X64787765Y-84351843D01*
X64540000Y-84302560D01*
X63440000Y-84302560D01*
X63192235Y-84351843D01*
X62990000Y-84486973D01*
X62787765Y-84351843D01*
X62540000Y-84302560D01*
X61440000Y-84302560D01*
X61192235Y-84351843D01*
X60990000Y-84486973D01*
X60787765Y-84351843D01*
X60540000Y-84302560D01*
X59440000Y-84302560D01*
X59192235Y-84351843D01*
X58990000Y-84486973D01*
X58787765Y-84351843D01*
X58540000Y-84302560D01*
X57440000Y-84302560D01*
X57192235Y-84351843D01*
X56990000Y-84486973D01*
X56787765Y-84351843D01*
X56540000Y-84302560D01*
X55440000Y-84302560D01*
X55197440Y-84350808D01*
X55197440Y-83950000D01*
X55148157Y-83702235D01*
X55013027Y-83500000D01*
X55148157Y-83297765D01*
X55197440Y-83050000D01*
X55197440Y-82692359D01*
X66808738Y-71081061D01*
X66851843Y-71297765D01*
X66986973Y-71500000D01*
X66851843Y-71702235D01*
X66802560Y-71950000D01*
X66802560Y-73050000D01*
X66851843Y-73297765D01*
X66986973Y-73500000D01*
X66910132Y-73615000D01*
X66268007Y-73615000D01*
X65905874Y-73465000D01*
X65494126Y-73465000D01*
X65113720Y-73622569D01*
X64822569Y-73913720D01*
X64665000Y-74294126D01*
X64665000Y-74705874D01*
X64822569Y-75086280D01*
X65113720Y-75377431D01*
X65494126Y-75535000D01*
X65905874Y-75535000D01*
X66268007Y-75385000D01*
X66910132Y-75385000D01*
X66986973Y-75500000D01*
X66851843Y-75702235D01*
X66802560Y-75950000D01*
X66802560Y-77050000D01*
X66851843Y-77297765D01*
X66986973Y-77500000D01*
X66851843Y-77702235D01*
X66802560Y-77950000D01*
X66802560Y-79050000D01*
X66851843Y-79297765D01*
X66986973Y-79500000D01*
X66851843Y-79702235D01*
X66802560Y-79950000D01*
X66802560Y-81050000D01*
X66851843Y-81297765D01*
X66986973Y-81500000D01*
X66851843Y-81702235D01*
X66802560Y-81950000D01*
X66802560Y-83050000D01*
X66851843Y-83297765D01*
X66992191Y-83507809D01*
X67202235Y-83648157D01*
X67450000Y-83697440D01*
X69950000Y-83697440D01*
X70197765Y-83648157D01*
X70407809Y-83507809D01*
X70448977Y-83446198D01*
X70654690Y-83583652D01*
X70912835Y-83635000D01*
X70912840Y-83635000D01*
X70999999Y-83652337D01*
X71087159Y-83635000D01*
X71487459Y-83635000D01*
X71550000Y-83647440D01*
X72450000Y-83647440D01*
X72697765Y-83598157D01*
X72907809Y-83457809D01*
X73048157Y-83247765D01*
X73097440Y-83000000D01*
X73097440Y-82500000D01*
X73048157Y-82252235D01*
X72907809Y-82042191D01*
X72697765Y-81901843D01*
X72450000Y-81852560D01*
X71550000Y-81852560D01*
X71487459Y-81865000D01*
X71390086Y-81865000D01*
X71388049Y-81861951D01*
X71095310Y-81666348D01*
X70837165Y-81615000D01*
X70837161Y-81615000D01*
X70750000Y-81597663D01*
X70662839Y-81615000D01*
X70489868Y-81615000D01*
X70413027Y-81500000D01*
X70489868Y-81385000D01*
X72026950Y-81385000D01*
X72042191Y-81407809D01*
X72252235Y-81548157D01*
X72500000Y-81597440D01*
X73000000Y-81597440D01*
X73247765Y-81548157D01*
X73457809Y-81407809D01*
X73500000Y-81344666D01*
X73542191Y-81407809D01*
X73752235Y-81548157D01*
X74000000Y-81597440D01*
X74500000Y-81597440D01*
X74747765Y-81548157D01*
X74930734Y-81425900D01*
X75194126Y-81535000D01*
X75605874Y-81535000D01*
X75986280Y-81377431D01*
X76277431Y-81086280D01*
X76435000Y-80705874D01*
X76435000Y-80294126D01*
X76277431Y-79913720D01*
X75986280Y-79622569D01*
X75605874Y-79465000D01*
X75194126Y-79465000D01*
X74930734Y-79574100D01*
X74747765Y-79451843D01*
X74500000Y-79402560D01*
X74000000Y-79402560D01*
X73913679Y-79419730D01*
X73947440Y-79250000D01*
X73947440Y-77750000D01*
X73907061Y-77578954D01*
X74000000Y-77597440D01*
X74095862Y-77597440D01*
X74962577Y-78464156D01*
X75011951Y-78538049D01*
X75085844Y-78587423D01*
X75085845Y-78587424D01*
X75160675Y-78637424D01*
X75304690Y-78733652D01*
X75562835Y-78785000D01*
X75562839Y-78785000D01*
X75650000Y-78802337D01*
X75666112Y-78799132D01*
X75994126Y-78935000D01*
X76405874Y-78935000D01*
X76768007Y-78785000D01*
X80576313Y-78785000D01*
X80915460Y-79124147D01*
X81424506Y-79335000D01*
X81975494Y-79335000D01*
X82484540Y-79124147D01*
X82874147Y-78734540D01*
X82970000Y-78503130D01*
X83065853Y-78734540D01*
X83455460Y-79124147D01*
X83964506Y-79335000D01*
X84515494Y-79335000D01*
X85024540Y-79124147D01*
X85414147Y-78734540D01*
X85510000Y-78503130D01*
X85605853Y-78734540D01*
X85995460Y-79124147D01*
X86504506Y-79335000D01*
X87055494Y-79335000D01*
X87564540Y-79124147D01*
X87954147Y-78734540D01*
X88165000Y-78225494D01*
X88165000Y-77674506D01*
X87954147Y-77165460D01*
X87564540Y-76775853D01*
X87055494Y-76565000D01*
X86646579Y-76565000D01*
X83469018Y-73387440D01*
X84750000Y-73387440D01*
X84997765Y-73338157D01*
X85207809Y-73197809D01*
X85227204Y-73168782D01*
X86622577Y-74564156D01*
X86671951Y-74638049D01*
X86745844Y-74687423D01*
X86745845Y-74687424D01*
X86846517Y-74754691D01*
X86964690Y-74833652D01*
X87222835Y-74885000D01*
X87222839Y-74885000D01*
X87310000Y-74902337D01*
X87397161Y-74885000D01*
X91792839Y-74885000D01*
X91880000Y-74902337D01*
X91967161Y-74885000D01*
X91967165Y-74885000D01*
X92225310Y-74833652D01*
X92518049Y-74638049D01*
X92567425Y-74564153D01*
X92969153Y-74162425D01*
X93043049Y-74113049D01*
X93238652Y-73820310D01*
X93290000Y-73562165D01*
X93290000Y-73562161D01*
X93307337Y-73475001D01*
X93290000Y-73387841D01*
X93290000Y-73242456D01*
X93303157Y-73222765D01*
X93352440Y-72975000D01*
X93352440Y-71425000D01*
X93303157Y-71177235D01*
X93162809Y-70967191D01*
X92952765Y-70826843D01*
X92705000Y-70777560D01*
X92105000Y-70777560D01*
X91857235Y-70826843D01*
X91770000Y-70885132D01*
X91682765Y-70826843D01*
X91435000Y-70777560D01*
X90835000Y-70777560D01*
X90587235Y-70826843D01*
X90500000Y-70885132D01*
X90412765Y-70826843D01*
X90165000Y-70777560D01*
X89565000Y-70777560D01*
X89448741Y-70800685D01*
X89428652Y-70699690D01*
X89419692Y-70686280D01*
X89282424Y-70480845D01*
X89282423Y-70480844D01*
X89233049Y-70406951D01*
X89159156Y-70357577D01*
X87436578Y-68635000D01*
X88750000Y-68635000D01*
X88993004Y-68586664D01*
X89199013Y-68449013D01*
X89448716Y-68199310D01*
X89565000Y-68222440D01*
X90165000Y-68222440D01*
X90412765Y-68173157D01*
X90622809Y-68032809D01*
X90763157Y-67822765D01*
X90812440Y-67575000D01*
X90812440Y-66025000D01*
X91457560Y-66025000D01*
X91457560Y-67575000D01*
X91506843Y-67822765D01*
X91647191Y-68032809D01*
X91857235Y-68173157D01*
X92105000Y-68222440D01*
X92705000Y-68222440D01*
X92952765Y-68173157D01*
X93162809Y-68032809D01*
X93303157Y-67822765D01*
X93352440Y-67575000D01*
X93352440Y-66025000D01*
X93303157Y-65777235D01*
X93162809Y-65567191D01*
X92952765Y-65426843D01*
X92705000Y-65377560D01*
X92105000Y-65377560D01*
X91857235Y-65426843D01*
X91647191Y-65567191D01*
X91506843Y-65777235D01*
X91457560Y-66025000D01*
X90812440Y-66025000D01*
X90763157Y-65777235D01*
X90750000Y-65757544D01*
X90750000Y-65221664D01*
X90957809Y-65082809D01*
X91098157Y-64872765D01*
X91147440Y-64625000D01*
X91147440Y-63375000D01*
X91135000Y-63312459D01*
X91135000Y-61361782D01*
X91157235Y-61249999D01*
X91069146Y-60807145D01*
X91050802Y-60779691D01*
X90818289Y-60431711D01*
X90723522Y-60368390D01*
X83949258Y-53594126D01*
X84965000Y-53594126D01*
X84965000Y-54005874D01*
X85122569Y-54386280D01*
X85413720Y-54677431D01*
X85775853Y-54827431D01*
X87612577Y-56664156D01*
X87661951Y-56738049D01*
X87735844Y-56787423D01*
X87735845Y-56787424D01*
X87751169Y-56797663D01*
X87954690Y-56933652D01*
X88212835Y-56985000D01*
X88212839Y-56985000D01*
X88299999Y-57002337D01*
X88387159Y-56985000D01*
X88442748Y-56985000D01*
X88471526Y-57054476D01*
X88945524Y-57528474D01*
X89564833Y-57785000D01*
X90235167Y-57785000D01*
X90854476Y-57528474D01*
X91328474Y-57054476D01*
X91585000Y-56435167D01*
X91585000Y-55764833D01*
X91328474Y-55145524D01*
X90854476Y-54671526D01*
X90235167Y-54415000D01*
X89564833Y-54415000D01*
X88945524Y-54671526D01*
X88534314Y-55082736D01*
X87027431Y-53575853D01*
X86877431Y-53213720D01*
X86586280Y-52922569D01*
X86205874Y-52765000D01*
X85794126Y-52765000D01*
X85413720Y-52922569D01*
X85122569Y-53213720D01*
X84965000Y-53594126D01*
X83949258Y-53594126D01*
X82997440Y-52642309D01*
X82997440Y-51050000D01*
X82948157Y-50802235D01*
X82853118Y-50660000D01*
X95340000Y-50660000D01*
X95340001Y-95340000D01*
X95340001Y-95340000D01*
G37*
X95340001Y-95340000D02*
X50660000Y-95340000D01*
X50660000Y-89564833D01*
X54415000Y-89564833D01*
X54415000Y-90235167D01*
X54671526Y-90854476D01*
X55145524Y-91328474D01*
X55764833Y-91585000D01*
X56435167Y-91585000D01*
X57054476Y-91328474D01*
X57528474Y-90854476D01*
X57557252Y-90785000D01*
X59831993Y-90785000D01*
X60194126Y-90935000D01*
X60605874Y-90935000D01*
X60968007Y-90785000D01*
X88442748Y-90785000D01*
X88471526Y-90854476D01*
X88945524Y-91328474D01*
X89564833Y-91585000D01*
X90235167Y-91585000D01*
X90854476Y-91328474D01*
X91328474Y-90854476D01*
X91585000Y-90235167D01*
X91585000Y-89564833D01*
X91328474Y-88945524D01*
X90854476Y-88471526D01*
X90235167Y-88215000D01*
X89564833Y-88215000D01*
X88945524Y-88471526D01*
X88471526Y-88945524D01*
X88442748Y-89015000D01*
X60968007Y-89015000D01*
X60605874Y-88865000D01*
X60194126Y-88865000D01*
X59831993Y-89015000D01*
X57557252Y-89015000D01*
X57528474Y-88945524D01*
X57054476Y-88471526D01*
X56435167Y-88215000D01*
X55764833Y-88215000D01*
X55145524Y-88471526D01*
X54671526Y-88945524D01*
X54415000Y-89564833D01*
X50660000Y-89564833D01*
X50660000Y-84711578D01*
X51012577Y-85064156D01*
X51061951Y-85138049D01*
X51135844Y-85187423D01*
X51135845Y-85187424D01*
X51246880Y-85261615D01*
X51354690Y-85333652D01*
X51494389Y-85361440D01*
X51592191Y-85507809D01*
X51802235Y-85648157D01*
X52050000Y-85697440D01*
X54550000Y-85697440D01*
X54792560Y-85649192D01*
X54792560Y-87450000D01*
X54841843Y-87697765D01*
X54982191Y-87907809D01*
X55192235Y-88048157D01*
X55440000Y-88097440D01*
X56540000Y-88097440D01*
X56787765Y-88048157D01*
X56990000Y-87913027D01*
X57192235Y-88048157D01*
X57440000Y-88097440D01*
X58540000Y-88097440D01*
X58787765Y-88048157D01*
X58990000Y-87913027D01*
X59192235Y-88048157D01*
X59440000Y-88097440D01*
X60540000Y-88097440D01*
X60787765Y-88048157D01*
X60990000Y-87913027D01*
X61192235Y-88048157D01*
X61440000Y-88097440D01*
X62540000Y-88097440D01*
X62787765Y-88048157D01*
X62990000Y-87913027D01*
X63192235Y-88048157D01*
X63440000Y-88097440D01*
X64540000Y-88097440D01*
X64787765Y-88048157D01*
X64990000Y-87913027D01*
X65192235Y-88048157D01*
X65440000Y-88097440D01*
X66540000Y-88097440D01*
X66787765Y-88048157D01*
X66997809Y-87907809D01*
X67138157Y-87697765D01*
X67187440Y-87450000D01*
X67187440Y-84950000D01*
X67138157Y-84702235D01*
X66997809Y-84492191D01*
X66787765Y-84351843D01*
X66540000Y-84302560D01*
X65440000Y-84302560D01*
X65192235Y-84351843D01*
X64990000Y-84486973D01*
X64787765Y-84351843D01*
X64540000Y-84302560D01*
X63440000Y-84302560D01*
X63192235Y-84351843D01*
X62990000Y-84486973D01*
X62787765Y-84351843D01*
X62540000Y-84302560D01*
X61440000Y-84302560D01*
X61192235Y-84351843D01*
X60990000Y-84486973D01*
X60787765Y-84351843D01*
X60540000Y-84302560D01*
X59440000Y-84302560D01*
X59192235Y-84351843D01*
X58990000Y-84486973D01*
X58787765Y-84351843D01*
X58540000Y-84302560D01*
X57440000Y-84302560D01*
X57192235Y-84351843D01*
X56990000Y-84486973D01*
X56787765Y-84351843D01*
X56540000Y-84302560D01*
X55440000Y-84302560D01*
X55197440Y-84350808D01*
X55197440Y-83950000D01*
X55148157Y-83702235D01*
X55013027Y-83500000D01*
X55148157Y-83297765D01*
X55197440Y-83050000D01*
X55197440Y-82692359D01*
X66808738Y-71081061D01*
X66851843Y-71297765D01*
X66986973Y-71500000D01*
X66851843Y-71702235D01*
X66802560Y-71950000D01*
X66802560Y-73050000D01*
X66851843Y-73297765D01*
X66986973Y-73500000D01*
X66910132Y-73615000D01*
X66268007Y-73615000D01*
X65905874Y-73465000D01*
X65494126Y-73465000D01*
X65113720Y-73622569D01*
X64822569Y-73913720D01*
X64665000Y-74294126D01*
X64665000Y-74705874D01*
X64822569Y-75086280D01*
X65113720Y-75377431D01*
X65494126Y-75535000D01*
X65905874Y-75535000D01*
X66268007Y-75385000D01*
X66910132Y-75385000D01*
X66986973Y-75500000D01*
X66851843Y-75702235D01*
X66802560Y-75950000D01*
X66802560Y-77050000D01*
X66851843Y-77297765D01*
X66986973Y-77500000D01*
X66851843Y-77702235D01*
X66802560Y-77950000D01*
X66802560Y-79050000D01*
X66851843Y-79297765D01*
X66986973Y-79500000D01*
X66851843Y-79702235D01*
X66802560Y-79950000D01*
X66802560Y-81050000D01*
X66851843Y-81297765D01*
X66986973Y-81500000D01*
X66851843Y-81702235D01*
X66802560Y-81950000D01*
X66802560Y-83050000D01*
X66851843Y-83297765D01*
X66992191Y-83507809D01*
X67202235Y-83648157D01*
X67450000Y-83697440D01*
X69950000Y-83697440D01*
X70197765Y-83648157D01*
X70407809Y-83507809D01*
X70448977Y-83446198D01*
X70654690Y-83583652D01*
X70912835Y-83635000D01*
X70912840Y-83635000D01*
X70999999Y-83652337D01*
X71087159Y-83635000D01*
X71487459Y-83635000D01*
X71550000Y-83647440D01*
X72450000Y-83647440D01*
X72697765Y-83598157D01*
X72907809Y-83457809D01*
X73048157Y-83247765D01*
X73097440Y-83000000D01*
X73097440Y-82500000D01*
X73048157Y-82252235D01*
X72907809Y-82042191D01*
X72697765Y-81901843D01*
X72450000Y-81852560D01*
X71550000Y-81852560D01*
X71487459Y-81865000D01*
X71390086Y-81865000D01*
X71388049Y-81861951D01*
X71095310Y-81666348D01*
X70837165Y-81615000D01*
X70837161Y-81615000D01*
X70750000Y-81597663D01*
X70662839Y-81615000D01*
X70489868Y-81615000D01*
X70413027Y-81500000D01*
X70489868Y-81385000D01*
X72026950Y-81385000D01*
X72042191Y-81407809D01*
X72252235Y-81548157D01*
X72500000Y-81597440D01*
X73000000Y-81597440D01*
X73247765Y-81548157D01*
X73457809Y-81407809D01*
X73500000Y-81344666D01*
X73542191Y-81407809D01*
X73752235Y-81548157D01*
X74000000Y-81597440D01*
X74500000Y-81597440D01*
X74747765Y-81548157D01*
X74930734Y-81425900D01*
X75194126Y-81535000D01*
X75605874Y-81535000D01*
X75986280Y-81377431D01*
X76277431Y-81086280D01*
X76435000Y-80705874D01*
X76435000Y-80294126D01*
X76277431Y-79913720D01*
X75986280Y-79622569D01*
X75605874Y-79465000D01*
X75194126Y-79465000D01*
X74930734Y-79574100D01*
X74747765Y-79451843D01*
X74500000Y-79402560D01*
X74000000Y-79402560D01*
X73913679Y-79419730D01*
X73947440Y-79250000D01*
X73947440Y-77750000D01*
X73907061Y-77578954D01*
X74000000Y-77597440D01*
X74095862Y-77597440D01*
X74962577Y-78464156D01*
X75011951Y-78538049D01*
X75085844Y-78587423D01*
X75085845Y-78587424D01*
X75160675Y-78637424D01*
X75304690Y-78733652D01*
X75562835Y-78785000D01*
X75562839Y-78785000D01*
X75650000Y-78802337D01*
X75666112Y-78799132D01*
X75994126Y-78935000D01*
X76405874Y-78935000D01*
X76768007Y-78785000D01*
X80576313Y-78785000D01*
X80915460Y-79124147D01*
X81424506Y-79335000D01*
X81975494Y-79335000D01*
X82484540Y-79124147D01*
X82874147Y-78734540D01*
X82970000Y-78503130D01*
X83065853Y-78734540D01*
X83455460Y-79124147D01*
X83964506Y-79335000D01*
X84515494Y-79335000D01*
X85024540Y-79124147D01*
X85414147Y-78734540D01*
X85510000Y-78503130D01*
X85605853Y-78734540D01*
X85995460Y-79124147D01*
X86504506Y-79335000D01*
X87055494Y-79335000D01*
X87564540Y-79124147D01*
X87954147Y-78734540D01*
X88165000Y-78225494D01*
X88165000Y-77674506D01*
X87954147Y-77165460D01*
X87564540Y-76775853D01*
X87055494Y-76565000D01*
X86646579Y-76565000D01*
X83469018Y-73387440D01*
X84750000Y-73387440D01*
X84997765Y-73338157D01*
X85207809Y-73197809D01*
X85227204Y-73168782D01*
X86622577Y-74564156D01*
X86671951Y-74638049D01*
X86745844Y-74687423D01*
X86745845Y-74687424D01*
X86846517Y-74754691D01*
X86964690Y-74833652D01*
X87222835Y-74885000D01*
X87222839Y-74885000D01*
X87310000Y-74902337D01*
X87397161Y-74885000D01*
X91792839Y-74885000D01*
X91880000Y-74902337D01*
X91967161Y-74885000D01*
X91967165Y-74885000D01*
X92225310Y-74833652D01*
X92518049Y-74638049D01*
X92567425Y-74564153D01*
X92969153Y-74162425D01*
X93043049Y-74113049D01*
X93238652Y-73820310D01*
X93290000Y-73562165D01*
X93290000Y-73562161D01*
X93307337Y-73475001D01*
X93290000Y-73387841D01*
X93290000Y-73242456D01*
X93303157Y-73222765D01*
X93352440Y-72975000D01*
X93352440Y-71425000D01*
X93303157Y-71177235D01*
X93162809Y-70967191D01*
X92952765Y-70826843D01*
X92705000Y-70777560D01*
X92105000Y-70777560D01*
X91857235Y-70826843D01*
X91770000Y-70885132D01*
X91682765Y-70826843D01*
X91435000Y-70777560D01*
X90835000Y-70777560D01*
X90587235Y-70826843D01*
X90500000Y-70885132D01*
X90412765Y-70826843D01*
X90165000Y-70777560D01*
X89565000Y-70777560D01*
X89448741Y-70800685D01*
X89428652Y-70699690D01*
X89419692Y-70686280D01*
X89282424Y-70480845D01*
X89282423Y-70480844D01*
X89233049Y-70406951D01*
X89159156Y-70357577D01*
X87436578Y-68635000D01*
X88750000Y-68635000D01*
X88993004Y-68586664D01*
X89199013Y-68449013D01*
X89448716Y-68199310D01*
X89565000Y-68222440D01*
X90165000Y-68222440D01*
X90412765Y-68173157D01*
X90622809Y-68032809D01*
X90763157Y-67822765D01*
X90812440Y-67575000D01*
X90812440Y-66025000D01*
X91457560Y-66025000D01*
X91457560Y-67575000D01*
X91506843Y-67822765D01*
X91647191Y-68032809D01*
X91857235Y-68173157D01*
X92105000Y-68222440D01*
X92705000Y-68222440D01*
X92952765Y-68173157D01*
X93162809Y-68032809D01*
X93303157Y-67822765D01*
X93352440Y-67575000D01*
X93352440Y-66025000D01*
X93303157Y-65777235D01*
X93162809Y-65567191D01*
X92952765Y-65426843D01*
X92705000Y-65377560D01*
X92105000Y-65377560D01*
X91857235Y-65426843D01*
X91647191Y-65567191D01*
X91506843Y-65777235D01*
X91457560Y-66025000D01*
X90812440Y-66025000D01*
X90763157Y-65777235D01*
X90750000Y-65757544D01*
X90750000Y-65221664D01*
X90957809Y-65082809D01*
X91098157Y-64872765D01*
X91147440Y-64625000D01*
X91147440Y-63375000D01*
X91135000Y-63312459D01*
X91135000Y-61361782D01*
X91157235Y-61249999D01*
X91069146Y-60807145D01*
X91050802Y-60779691D01*
X90818289Y-60431711D01*
X90723522Y-60368390D01*
X83949258Y-53594126D01*
X84965000Y-53594126D01*
X84965000Y-54005874D01*
X85122569Y-54386280D01*
X85413720Y-54677431D01*
X85775853Y-54827431D01*
X87612577Y-56664156D01*
X87661951Y-56738049D01*
X87735844Y-56787423D01*
X87735845Y-56787424D01*
X87751169Y-56797663D01*
X87954690Y-56933652D01*
X88212835Y-56985000D01*
X88212839Y-56985000D01*
X88299999Y-57002337D01*
X88387159Y-56985000D01*
X88442748Y-56985000D01*
X88471526Y-57054476D01*
X88945524Y-57528474D01*
X89564833Y-57785000D01*
X90235167Y-57785000D01*
X90854476Y-57528474D01*
X91328474Y-57054476D01*
X91585000Y-56435167D01*
X91585000Y-55764833D01*
X91328474Y-55145524D01*
X90854476Y-54671526D01*
X90235167Y-54415000D01*
X89564833Y-54415000D01*
X88945524Y-54671526D01*
X88534314Y-55082736D01*
X87027431Y-53575853D01*
X86877431Y-53213720D01*
X86586280Y-52922569D01*
X86205874Y-52765000D01*
X85794126Y-52765000D01*
X85413720Y-52922569D01*
X85122569Y-53213720D01*
X84965000Y-53594126D01*
X83949258Y-53594126D01*
X82997440Y-52642309D01*
X82997440Y-51050000D01*
X82948157Y-50802235D01*
X82853118Y-50660000D01*
X95340000Y-50660000D01*
X95340001Y-95340000D01*
G36*
X79002560Y-53600000D02*
X79051843Y-53847765D01*
X79192191Y-54057809D01*
X79402235Y-54198157D01*
X79650000Y-54247440D01*
X81392309Y-54247440D01*
X88865000Y-61720132D01*
X88865000Y-63312459D01*
X88852560Y-63375000D01*
X88852560Y-64625000D01*
X88901843Y-64872765D01*
X88919134Y-64898642D01*
X88750000Y-64865000D01*
X85763026Y-64865000D01*
X85635000Y-64736974D01*
X85635000Y-62750000D01*
X85586664Y-62506996D01*
X85449013Y-62300987D01*
X84949013Y-61800987D01*
X84743004Y-61663336D01*
X84500000Y-61615000D01*
X81500000Y-61615000D01*
X81256996Y-61663336D01*
X81050987Y-61800987D01*
X80550987Y-62300987D01*
X80413336Y-62506996D01*
X80365000Y-62750000D01*
X80365000Y-67500000D01*
X80413336Y-67743004D01*
X80550987Y-67949013D01*
X80637467Y-68035493D01*
X80651843Y-68107765D01*
X80792191Y-68317809D01*
X81002235Y-68458157D01*
X81091137Y-68475841D01*
X81256996Y-68586664D01*
X81500000Y-68635000D01*
X85377560Y-68635000D01*
X85377560Y-69250000D01*
X85426843Y-69497765D01*
X85567191Y-69707809D01*
X85777235Y-69848157D01*
X86025000Y-69897440D01*
X86195862Y-69897440D01*
X87660146Y-71361725D01*
X87647560Y-71425000D01*
X87647560Y-72975000D01*
X87675117Y-73113538D01*
X85937425Y-71375847D01*
X85888049Y-71301951D01*
X85595310Y-71106348D01*
X85382319Y-71063982D01*
X85348157Y-70892235D01*
X85207809Y-70682191D01*
X84997765Y-70541843D01*
X84750000Y-70492560D01*
X81250000Y-70492560D01*
X81002235Y-70541843D01*
X80792191Y-70682191D01*
X80728257Y-70777874D01*
X80723157Y-70752235D01*
X80582809Y-70542191D01*
X80372765Y-70401843D01*
X80125000Y-70352560D01*
X79987077Y-70352560D01*
X79617855Y-70105854D01*
X79286783Y-70040000D01*
X79175000Y-70017765D01*
X79063217Y-70040000D01*
X77497440Y-70040000D01*
X77497440Y-69900000D01*
X77448157Y-69652235D01*
X77307809Y-69442191D01*
X77097765Y-69301843D01*
X76850000Y-69252560D01*
X74150000Y-69252560D01*
X73902235Y-69301843D01*
X73692191Y-69442191D01*
X73551843Y-69652235D01*
X73502560Y-69900000D01*
X73502560Y-71950981D01*
X72662941Y-71111362D01*
X72986280Y-70977431D01*
X73277431Y-70686280D01*
X73435000Y-70305874D01*
X73435000Y-70238533D01*
X73485000Y-69987165D01*
X73485000Y-69987161D01*
X73502337Y-69900000D01*
X73485000Y-69812839D01*
X73485000Y-62468007D01*
X73635000Y-62105874D01*
X73635000Y-61694126D01*
X73477431Y-61313720D01*
X73186280Y-61022569D01*
X72805874Y-60865000D01*
X72394126Y-60865000D01*
X72013720Y-61022569D01*
X71722569Y-61313720D01*
X71565000Y-61694126D01*
X71565000Y-62105874D01*
X71715000Y-62468007D01*
X71715001Y-69321288D01*
X71522569Y-69513720D01*
X71391273Y-69830696D01*
X71145310Y-69666348D01*
X70887165Y-69615000D01*
X70887161Y-69615000D01*
X70800000Y-69597663D01*
X70712839Y-69615000D01*
X70489868Y-69615000D01*
X70477825Y-69596976D01*
X70734472Y-69340329D01*
X70797929Y-69297929D01*
X70866498Y-69195309D01*
X70965904Y-69046538D01*
X70983553Y-68957809D01*
X71010000Y-68824852D01*
X71010000Y-68824848D01*
X71024888Y-68750000D01*
X71010000Y-68675152D01*
X71010000Y-61574848D01*
X71024888Y-61500000D01*
X71010000Y-61425152D01*
X71010000Y-61425148D01*
X70975161Y-61249999D01*
X70965904Y-61203462D01*
X70928471Y-61147440D01*
X71095000Y-61147440D01*
X71342765Y-61098157D01*
X71552809Y-60957809D01*
X71693157Y-60747765D01*
X71742440Y-60500000D01*
X71742440Y-56900000D01*
X74257560Y-56900000D01*
X74257560Y-60500000D01*
X74306843Y-60747765D01*
X74447191Y-60957809D01*
X74657235Y-61098157D01*
X74905000Y-61147440D01*
X76175000Y-61147440D01*
X76422765Y-61098157D01*
X76632809Y-60957809D01*
X76773157Y-60747765D01*
X76822440Y-60500000D01*
X76822440Y-56900000D01*
X76773157Y-56652235D01*
X76632809Y-56442191D01*
X76422765Y-56301843D01*
X76175000Y-56252560D01*
X74905000Y-56252560D01*
X74657235Y-56301843D01*
X74447191Y-56442191D01*
X74306843Y-56652235D01*
X74257560Y-56900000D01*
X71742440Y-56900000D01*
X71693157Y-56652235D01*
X71552809Y-56442191D01*
X71342765Y-56301843D01*
X71095000Y-56252560D01*
X69825000Y-56252560D01*
X69577235Y-56301843D01*
X69367191Y-56442191D01*
X69226843Y-56652235D01*
X69177560Y-56900000D01*
X69177560Y-60240000D01*
X69024438Y-60240000D01*
X67549967Y-58765530D01*
X67507565Y-58702071D01*
X67256173Y-58534096D01*
X67034488Y-58490000D01*
X67034483Y-58490000D01*
X66959636Y-58475112D01*
X66884789Y-58490000D01*
X65359632Y-58490000D01*
X65407809Y-58457809D01*
X65548157Y-58247765D01*
X65597440Y-58000000D01*
X65597440Y-57500000D01*
X65548157Y-57252235D01*
X65435000Y-57082885D01*
X65435000Y-56867115D01*
X65548157Y-56697765D01*
X65597440Y-56450000D01*
X65597440Y-55550000D01*
X65548157Y-55302235D01*
X65411316Y-55097440D01*
X65900000Y-55097440D01*
X66147765Y-55048157D01*
X66177027Y-55028605D01*
X66712577Y-55564156D01*
X66761951Y-55638049D01*
X66835844Y-55687423D01*
X66835845Y-55687424D01*
X67054690Y-55833652D01*
X67312835Y-55885000D01*
X67312839Y-55885000D01*
X67400000Y-55902337D01*
X67487161Y-55885000D01*
X72512839Y-55885000D01*
X72600000Y-55902337D01*
X72687161Y-55885000D01*
X72687165Y-55885000D01*
X72945310Y-55833652D01*
X73238049Y-55638049D01*
X73287425Y-55564153D01*
X73564154Y-55287424D01*
X73638049Y-55238049D01*
X73833652Y-54945310D01*
X73882821Y-54698120D01*
X74092809Y-54557809D01*
X74233157Y-54347765D01*
X74270000Y-54162541D01*
X74306843Y-54347765D01*
X74447191Y-54557809D01*
X74657235Y-54698157D01*
X74905000Y-54747440D01*
X76175000Y-54747440D01*
X76422765Y-54698157D01*
X76632809Y-54557809D01*
X76773157Y-54347765D01*
X76822440Y-54100000D01*
X76822440Y-53435000D01*
X79002560Y-53435000D01*
X79002560Y-53600000D01*
X79002560Y-53600000D01*
G37*
X79002560Y-53600000D02*
X79051843Y-53847765D01*
X79192191Y-54057809D01*
X79402235Y-54198157D01*
X79650000Y-54247440D01*
X81392309Y-54247440D01*
X88865000Y-61720132D01*
X88865000Y-63312459D01*
X88852560Y-63375000D01*
X88852560Y-64625000D01*
X88901843Y-64872765D01*
X88919134Y-64898642D01*
X88750000Y-64865000D01*
X85763026Y-64865000D01*
X85635000Y-64736974D01*
X85635000Y-62750000D01*
X85586664Y-62506996D01*
X85449013Y-62300987D01*
X84949013Y-61800987D01*
X84743004Y-61663336D01*
X84500000Y-61615000D01*
X81500000Y-61615000D01*
X81256996Y-61663336D01*
X81050987Y-61800987D01*
X80550987Y-62300987D01*
X80413336Y-62506996D01*
X80365000Y-62750000D01*
X80365000Y-67500000D01*
X80413336Y-67743004D01*
X80550987Y-67949013D01*
X80637467Y-68035493D01*
X80651843Y-68107765D01*
X80792191Y-68317809D01*
X81002235Y-68458157D01*
X81091137Y-68475841D01*
X81256996Y-68586664D01*
X81500000Y-68635000D01*
X85377560Y-68635000D01*
X85377560Y-69250000D01*
X85426843Y-69497765D01*
X85567191Y-69707809D01*
X85777235Y-69848157D01*
X86025000Y-69897440D01*
X86195862Y-69897440D01*
X87660146Y-71361725D01*
X87647560Y-71425000D01*
X87647560Y-72975000D01*
X87675117Y-73113538D01*
X85937425Y-71375847D01*
X85888049Y-71301951D01*
X85595310Y-71106348D01*
X85382319Y-71063982D01*
X85348157Y-70892235D01*
X85207809Y-70682191D01*
X84997765Y-70541843D01*
X84750000Y-70492560D01*
X81250000Y-70492560D01*
X81002235Y-70541843D01*
X80792191Y-70682191D01*
X80728257Y-70777874D01*
X80723157Y-70752235D01*
X80582809Y-70542191D01*
X80372765Y-70401843D01*
X80125000Y-70352560D01*
X79987077Y-70352560D01*
X79617855Y-70105854D01*
X79286783Y-70040000D01*
X79175000Y-70017765D01*
X79063217Y-70040000D01*
X77497440Y-70040000D01*
X77497440Y-69900000D01*
X77448157Y-69652235D01*
X77307809Y-69442191D01*
X77097765Y-69301843D01*
X76850000Y-69252560D01*
X74150000Y-69252560D01*
X73902235Y-69301843D01*
X73692191Y-69442191D01*
X73551843Y-69652235D01*
X73502560Y-69900000D01*
X73502560Y-71950981D01*
X72662941Y-71111362D01*
X72986280Y-70977431D01*
X73277431Y-70686280D01*
X73435000Y-70305874D01*
X73435000Y-70238533D01*
X73485000Y-69987165D01*
X73485000Y-69987161D01*
X73502337Y-69900000D01*
X73485000Y-69812839D01*
X73485000Y-62468007D01*
X73635000Y-62105874D01*
X73635000Y-61694126D01*
X73477431Y-61313720D01*
X73186280Y-61022569D01*
X72805874Y-60865000D01*
X72394126Y-60865000D01*
X72013720Y-61022569D01*
X71722569Y-61313720D01*
X71565000Y-61694126D01*
X71565000Y-62105874D01*
X71715000Y-62468007D01*
X71715001Y-69321288D01*
X71522569Y-69513720D01*
X71391273Y-69830696D01*
X71145310Y-69666348D01*
X70887165Y-69615000D01*
X70887161Y-69615000D01*
X70800000Y-69597663D01*
X70712839Y-69615000D01*
X70489868Y-69615000D01*
X70477825Y-69596976D01*
X70734472Y-69340329D01*
X70797929Y-69297929D01*
X70866498Y-69195309D01*
X70965904Y-69046538D01*
X70983553Y-68957809D01*
X71010000Y-68824852D01*
X71010000Y-68824848D01*
X71024888Y-68750000D01*
X71010000Y-68675152D01*
X71010000Y-61574848D01*
X71024888Y-61500000D01*
X71010000Y-61425152D01*
X71010000Y-61425148D01*
X70975161Y-61249999D01*
X70965904Y-61203462D01*
X70928471Y-61147440D01*
X71095000Y-61147440D01*
X71342765Y-61098157D01*
X71552809Y-60957809D01*
X71693157Y-60747765D01*
X71742440Y-60500000D01*
X71742440Y-56900000D01*
X74257560Y-56900000D01*
X74257560Y-60500000D01*
X74306843Y-60747765D01*
X74447191Y-60957809D01*
X74657235Y-61098157D01*
X74905000Y-61147440D01*
X76175000Y-61147440D01*
X76422765Y-61098157D01*
X76632809Y-60957809D01*
X76773157Y-60747765D01*
X76822440Y-60500000D01*
X76822440Y-56900000D01*
X76773157Y-56652235D01*
X76632809Y-56442191D01*
X76422765Y-56301843D01*
X76175000Y-56252560D01*
X74905000Y-56252560D01*
X74657235Y-56301843D01*
X74447191Y-56442191D01*
X74306843Y-56652235D01*
X74257560Y-56900000D01*
X71742440Y-56900000D01*
X71693157Y-56652235D01*
X71552809Y-56442191D01*
X71342765Y-56301843D01*
X71095000Y-56252560D01*
X69825000Y-56252560D01*
X69577235Y-56301843D01*
X69367191Y-56442191D01*
X69226843Y-56652235D01*
X69177560Y-56900000D01*
X69177560Y-60240000D01*
X69024438Y-60240000D01*
X67549967Y-58765530D01*
X67507565Y-58702071D01*
X67256173Y-58534096D01*
X67034488Y-58490000D01*
X67034483Y-58490000D01*
X66959636Y-58475112D01*
X66884789Y-58490000D01*
X65359632Y-58490000D01*
X65407809Y-58457809D01*
X65548157Y-58247765D01*
X65597440Y-58000000D01*
X65597440Y-57500000D01*
X65548157Y-57252235D01*
X65435000Y-57082885D01*
X65435000Y-56867115D01*
X65548157Y-56697765D01*
X65597440Y-56450000D01*
X65597440Y-55550000D01*
X65548157Y-55302235D01*
X65411316Y-55097440D01*
X65900000Y-55097440D01*
X66147765Y-55048157D01*
X66177027Y-55028605D01*
X66712577Y-55564156D01*
X66761951Y-55638049D01*
X66835844Y-55687423D01*
X66835845Y-55687424D01*
X67054690Y-55833652D01*
X67312835Y-55885000D01*
X67312839Y-55885000D01*
X67400000Y-55902337D01*
X67487161Y-55885000D01*
X72512839Y-55885000D01*
X72600000Y-55902337D01*
X72687161Y-55885000D01*
X72687165Y-55885000D01*
X72945310Y-55833652D01*
X73238049Y-55638049D01*
X73287425Y-55564153D01*
X73564154Y-55287424D01*
X73638049Y-55238049D01*
X73833652Y-54945310D01*
X73882821Y-54698120D01*
X74092809Y-54557809D01*
X74233157Y-54347765D01*
X74270000Y-54162541D01*
X74306843Y-54347765D01*
X74447191Y-54557809D01*
X74657235Y-54698157D01*
X74905000Y-54747440D01*
X76175000Y-54747440D01*
X76422765Y-54698157D01*
X76632809Y-54557809D01*
X76773157Y-54347765D01*
X76822440Y-54100000D01*
X76822440Y-53435000D01*
X79002560Y-53435000D01*
X79002560Y-53600000D01*
G36*
X69177560Y-51415000D02*
X64187159Y-51415000D01*
X64099999Y-51397663D01*
X64012840Y-51415000D01*
X64012835Y-51415000D01*
X63754690Y-51466348D01*
X63591586Y-51575331D01*
X63535845Y-51612576D01*
X63535844Y-51612577D01*
X63461951Y-51661951D01*
X63412577Y-51735844D01*
X62177027Y-52971395D01*
X62147765Y-52951843D01*
X61900000Y-52902560D01*
X61100000Y-52902560D01*
X60852235Y-52951843D01*
X60642191Y-53092191D01*
X60501843Y-53302235D01*
X60452560Y-53550000D01*
X60452560Y-54450000D01*
X60501843Y-54697765D01*
X60638684Y-54902560D01*
X60150000Y-54902560D01*
X59902235Y-54951843D01*
X59692191Y-55092191D01*
X59551843Y-55302235D01*
X59502560Y-55550000D01*
X59502560Y-56450000D01*
X59551843Y-56697765D01*
X59665001Y-56867116D01*
X59665001Y-56993541D01*
X59592191Y-57042191D01*
X59451843Y-57252235D01*
X59402560Y-57500000D01*
X59402560Y-58000000D01*
X59451843Y-58247765D01*
X59592191Y-58457809D01*
X59655334Y-58500000D01*
X59592191Y-58542191D01*
X59451843Y-58752235D01*
X59402560Y-59000000D01*
X59402560Y-59500000D01*
X59451843Y-59747765D01*
X59592191Y-59957809D01*
X59802235Y-60098157D01*
X60050000Y-60147440D01*
X60522639Y-60147440D01*
X62248198Y-61873000D01*
X55003578Y-61873000D01*
X55064154Y-61812424D01*
X55138049Y-61763049D01*
X55333652Y-61470310D01*
X55362346Y-61326057D01*
X55613720Y-61577431D01*
X55994126Y-61735000D01*
X56405874Y-61735000D01*
X56786280Y-61577431D01*
X57077431Y-61286280D01*
X57235000Y-60905874D01*
X57235000Y-60494126D01*
X57077431Y-60113720D01*
X56786280Y-59822569D01*
X56725925Y-59797569D01*
X56284517Y-59356162D01*
X56228169Y-59271831D01*
X55894082Y-59048601D01*
X55599476Y-58990000D01*
X55599471Y-58990000D01*
X55500000Y-58970214D01*
X55494031Y-58971401D01*
X55457809Y-58917191D01*
X55247765Y-58776843D01*
X55000000Y-58727560D01*
X54000000Y-58727560D01*
X53752235Y-58776843D01*
X53542191Y-58917191D01*
X53401843Y-59127235D01*
X53352560Y-59375000D01*
X53352560Y-60615000D01*
X52950749Y-60615000D01*
X52863588Y-60597663D01*
X52776427Y-60615000D01*
X52776423Y-60615000D01*
X52518278Y-60666348D01*
X52225539Y-60861951D01*
X52176164Y-60935846D01*
X51810845Y-61301165D01*
X51736952Y-61350539D01*
X51687578Y-61424432D01*
X51687576Y-61424434D01*
X51541348Y-61643279D01*
X51472663Y-61988588D01*
X51490001Y-62075753D01*
X51490000Y-63483421D01*
X51270862Y-63702560D01*
X51125000Y-63702560D01*
X50877235Y-63751843D01*
X50667191Y-63892191D01*
X50660000Y-63902953D01*
X50660000Y-55764833D01*
X54415000Y-55764833D01*
X54415000Y-56435167D01*
X54671526Y-57054476D01*
X55145524Y-57528474D01*
X55208517Y-57554566D01*
X55266348Y-57845309D01*
X55412576Y-58064154D01*
X55412578Y-58064156D01*
X55461952Y-58138049D01*
X55535845Y-58187423D01*
X57272569Y-59924148D01*
X57422569Y-60286280D01*
X57713720Y-60577431D01*
X58094126Y-60735000D01*
X58505874Y-60735000D01*
X58886280Y-60577431D01*
X59177431Y-60286280D01*
X59335000Y-59905874D01*
X59335000Y-59494126D01*
X59177431Y-59113720D01*
X58886280Y-58822569D01*
X58524148Y-58672569D01*
X57217264Y-57365686D01*
X57528474Y-57054476D01*
X57785000Y-56435167D01*
X57785000Y-55764833D01*
X57528474Y-55145524D01*
X57054476Y-54671526D01*
X56435167Y-54415000D01*
X55764833Y-54415000D01*
X55145524Y-54671526D01*
X54671526Y-55145524D01*
X54415000Y-55764833D01*
X50660000Y-55764833D01*
X50660000Y-50660000D01*
X69177560Y-50660000D01*
X69177560Y-51415000D01*
X69177560Y-51415000D01*
G37*
X69177560Y-51415000D02*
X64187159Y-51415000D01*
X64099999Y-51397663D01*
X64012840Y-51415000D01*
X64012835Y-51415000D01*
X63754690Y-51466348D01*
X63591586Y-51575331D01*
X63535845Y-51612576D01*
X63535844Y-51612577D01*
X63461951Y-51661951D01*
X63412577Y-51735844D01*
X62177027Y-52971395D01*
X62147765Y-52951843D01*
X61900000Y-52902560D01*
X61100000Y-52902560D01*
X60852235Y-52951843D01*
X60642191Y-53092191D01*
X60501843Y-53302235D01*
X60452560Y-53550000D01*
X60452560Y-54450000D01*
X60501843Y-54697765D01*
X60638684Y-54902560D01*
X60150000Y-54902560D01*
X59902235Y-54951843D01*
X59692191Y-55092191D01*
X59551843Y-55302235D01*
X59502560Y-55550000D01*
X59502560Y-56450000D01*
X59551843Y-56697765D01*
X59665001Y-56867116D01*
X59665001Y-56993541D01*
X59592191Y-57042191D01*
X59451843Y-57252235D01*
X59402560Y-57500000D01*
X59402560Y-58000000D01*
X59451843Y-58247765D01*
X59592191Y-58457809D01*
X59655334Y-58500000D01*
X59592191Y-58542191D01*
X59451843Y-58752235D01*
X59402560Y-59000000D01*
X59402560Y-59500000D01*
X59451843Y-59747765D01*
X59592191Y-59957809D01*
X59802235Y-60098157D01*
X60050000Y-60147440D01*
X60522639Y-60147440D01*
X62248198Y-61873000D01*
X55003578Y-61873000D01*
X55064154Y-61812424D01*
X55138049Y-61763049D01*
X55333652Y-61470310D01*
X55362346Y-61326057D01*
X55613720Y-61577431D01*
X55994126Y-61735000D01*
X56405874Y-61735000D01*
X56786280Y-61577431D01*
X57077431Y-61286280D01*
X57235000Y-60905874D01*
X57235000Y-60494126D01*
X57077431Y-60113720D01*
X56786280Y-59822569D01*
X56725925Y-59797569D01*
X56284517Y-59356162D01*
X56228169Y-59271831D01*
X55894082Y-59048601D01*
X55599476Y-58990000D01*
X55599471Y-58990000D01*
X55500000Y-58970214D01*
X55494031Y-58971401D01*
X55457809Y-58917191D01*
X55247765Y-58776843D01*
X55000000Y-58727560D01*
X54000000Y-58727560D01*
X53752235Y-58776843D01*
X53542191Y-58917191D01*
X53401843Y-59127235D01*
X53352560Y-59375000D01*
X53352560Y-60615000D01*
X52950749Y-60615000D01*
X52863588Y-60597663D01*
X52776427Y-60615000D01*
X52776423Y-60615000D01*
X52518278Y-60666348D01*
X52225539Y-60861951D01*
X52176164Y-60935846D01*
X51810845Y-61301165D01*
X51736952Y-61350539D01*
X51687578Y-61424432D01*
X51687576Y-61424434D01*
X51541348Y-61643279D01*
X51472663Y-61988588D01*
X51490001Y-62075753D01*
X51490000Y-63483421D01*
X51270862Y-63702560D01*
X51125000Y-63702560D01*
X50877235Y-63751843D01*
X50667191Y-63892191D01*
X50660000Y-63902953D01*
X50660000Y-55764833D01*
X54415000Y-55764833D01*
X54415000Y-56435167D01*
X54671526Y-57054476D01*
X55145524Y-57528474D01*
X55208517Y-57554566D01*
X55266348Y-57845309D01*
X55412576Y-58064154D01*
X55412578Y-58064156D01*
X55461952Y-58138049D01*
X55535845Y-58187423D01*
X57272569Y-59924148D01*
X57422569Y-60286280D01*
X57713720Y-60577431D01*
X58094126Y-60735000D01*
X58505874Y-60735000D01*
X58886280Y-60577431D01*
X59177431Y-60286280D01*
X59335000Y-59905874D01*
X59335000Y-59494126D01*
X59177431Y-59113720D01*
X58886280Y-58822569D01*
X58524148Y-58672569D01*
X57217264Y-57365686D01*
X57528474Y-57054476D01*
X57785000Y-56435167D01*
X57785000Y-55764833D01*
X57528474Y-55145524D01*
X57054476Y-54671526D01*
X56435167Y-54415000D01*
X55764833Y-54415000D01*
X55145524Y-54671526D01*
X54671526Y-55145524D01*
X54415000Y-55764833D01*
X50660000Y-55764833D01*
X50660000Y-50660000D01*
X69177560Y-50660000D01*
X69177560Y-51415000D01*
G36*
X64501843Y-53302235D02*
X64452560Y-53550000D01*
X64452560Y-54450000D01*
X64501843Y-54697765D01*
X64638684Y-54902560D01*
X64150000Y-54902560D01*
X63902235Y-54951843D01*
X63692191Y-55092191D01*
X63551843Y-55302235D01*
X63502560Y-55550000D01*
X63502560Y-56450000D01*
X63551843Y-56697765D01*
X63665001Y-56867116D01*
X63665001Y-56993541D01*
X63592191Y-57042191D01*
X63451843Y-57252235D01*
X63402560Y-57500000D01*
X63402560Y-58000000D01*
X63451843Y-58247765D01*
X63592191Y-58457809D01*
X63655334Y-58500000D01*
X63592191Y-58542191D01*
X63451843Y-58752235D01*
X63402560Y-59000000D01*
X63402560Y-59500000D01*
X63451843Y-59747765D01*
X63592191Y-59957809D01*
X63802235Y-60098157D01*
X64050000Y-60147440D01*
X64950000Y-60147440D01*
X65197765Y-60098157D01*
X65329700Y-60010000D01*
X66644835Y-60010000D01*
X67549824Y-60914990D01*
X63439792Y-60914990D01*
X61597440Y-59072639D01*
X61597440Y-59000000D01*
X61548157Y-58752235D01*
X61407809Y-58542191D01*
X61344666Y-58500000D01*
X61407809Y-58457809D01*
X61548157Y-58247765D01*
X61597440Y-58000000D01*
X61597440Y-57500000D01*
X61548157Y-57252235D01*
X61435000Y-57082885D01*
X61435000Y-56867115D01*
X61548157Y-56697765D01*
X61597440Y-56450000D01*
X61597440Y-55550000D01*
X61548157Y-55302235D01*
X61411316Y-55097440D01*
X61900000Y-55097440D01*
X62147765Y-55048157D01*
X62357809Y-54907809D01*
X62365986Y-54895571D01*
X62400000Y-54902337D01*
X62487161Y-54885000D01*
X62487165Y-54885000D01*
X62745310Y-54833652D01*
X63038049Y-54638049D01*
X63087425Y-54564153D01*
X64466579Y-53185000D01*
X64580178Y-53185000D01*
X64501843Y-53302235D01*
X64501843Y-53302235D01*
G37*
X64501843Y-53302235D02*
X64452560Y-53550000D01*
X64452560Y-54450000D01*
X64501843Y-54697765D01*
X64638684Y-54902560D01*
X64150000Y-54902560D01*
X63902235Y-54951843D01*
X63692191Y-55092191D01*
X63551843Y-55302235D01*
X63502560Y-55550000D01*
X63502560Y-56450000D01*
X63551843Y-56697765D01*
X63665001Y-56867116D01*
X63665001Y-56993541D01*
X63592191Y-57042191D01*
X63451843Y-57252235D01*
X63402560Y-57500000D01*
X63402560Y-58000000D01*
X63451843Y-58247765D01*
X63592191Y-58457809D01*
X63655334Y-58500000D01*
X63592191Y-58542191D01*
X63451843Y-58752235D01*
X63402560Y-59000000D01*
X63402560Y-59500000D01*
X63451843Y-59747765D01*
X63592191Y-59957809D01*
X63802235Y-60098157D01*
X64050000Y-60147440D01*
X64950000Y-60147440D01*
X65197765Y-60098157D01*
X65329700Y-60010000D01*
X66644835Y-60010000D01*
X67549824Y-60914990D01*
X63439792Y-60914990D01*
X61597440Y-59072639D01*
X61597440Y-59000000D01*
X61548157Y-58752235D01*
X61407809Y-58542191D01*
X61344666Y-58500000D01*
X61407809Y-58457809D01*
X61548157Y-58247765D01*
X61597440Y-58000000D01*
X61597440Y-57500000D01*
X61548157Y-57252235D01*
X61435000Y-57082885D01*
X61435000Y-56867115D01*
X61548157Y-56697765D01*
X61597440Y-56450000D01*
X61597440Y-55550000D01*
X61548157Y-55302235D01*
X61411316Y-55097440D01*
X61900000Y-55097440D01*
X62147765Y-55048157D01*
X62357809Y-54907809D01*
X62365986Y-54895571D01*
X62400000Y-54902337D01*
X62487161Y-54885000D01*
X62487165Y-54885000D01*
X62745310Y-54833652D01*
X63038049Y-54638049D01*
X63087425Y-54564153D01*
X64466579Y-53185000D01*
X64580178Y-53185000D01*
X64501843Y-53302235D01*
G04 #@! TD*
M02*
