G04 #@! TF.GenerationSoftware,KiCad,Pcbnew,(6.0.0-rc1-dev-557-ge985f797c)*
G04 #@! TF.CreationDate,2018-10-28T11:13:31+01:00*
G04 #@! TF.ProjectId,GIRA ESP8266 Jalousiesteuerung,474952412045535038323636204A616C,1.0*
G04 #@! TF.SameCoordinates,Original*
G04 #@! TF.FileFunction,Paste,Top*
G04 #@! TF.FilePolarity,Positive*
%FSLAX46Y46*%
G04 Gerber Fmt 4.6, Leading zero omitted, Abs format (unit mm)*
G04 Created by KiCad (PCBNEW (6.0.0-rc1-dev-557-ge985f797c)) date 10/28/18 11:13:31*
%MOMM*%
%LPD*%
G01*
G04 APERTURE LIST*
%ADD10R,1.000000X1.250000*%
%ADD11R,1.250000X1.000000*%
%ADD12R,1.100000X2.500000*%
%ADD13R,2.500000X1.100000*%
%ADD14R,2.700000X2.550000*%
%ADD15R,0.750000X0.800000*%
%ADD16R,2.500000X1.800000*%
%ADD17R,3.500000X1.600000*%
%ADD18R,1.270000X3.600000*%
%ADD19R,0.800000X0.900000*%
%ADD20R,0.900000X0.500000*%
%ADD21R,0.500000X0.900000*%
%ADD22R,0.600000X1.550000*%
G04 APERTURE END LIST*
D10*
G04 #@! TO.C,C7*
X92000000Y-64000000D03*
X90000000Y-64000000D03*
G04 #@! TD*
D11*
G04 #@! TO.C,C6*
X79500000Y-69500000D03*
X79500000Y-71500000D03*
G04 #@! TD*
D12*
G04 #@! TO.C,U1*
X65990000Y-86200000D03*
X63990000Y-86200000D03*
X61990000Y-86200000D03*
X59990000Y-86200000D03*
X57990000Y-86200000D03*
X55990000Y-86200000D03*
D13*
X68700000Y-70500000D03*
X68700000Y-72500000D03*
X68700000Y-74500000D03*
X68700000Y-76500000D03*
X68700000Y-78500000D03*
X68700000Y-80500000D03*
X68700000Y-82500000D03*
X68700000Y-84500000D03*
X53300000Y-84500000D03*
X53300000Y-82500000D03*
X53300000Y-80500000D03*
X53300000Y-78500000D03*
X53300000Y-76500000D03*
X53300000Y-74500000D03*
X53300000Y-72500000D03*
X53300000Y-70500000D03*
G04 #@! TD*
D14*
G04 #@! TO.C,C1*
X81000000Y-52325000D03*
X81000000Y-58675000D03*
G04 #@! TD*
D15*
G04 #@! TO.C,C2*
X86400000Y-67350000D03*
X86400000Y-68850000D03*
G04 #@! TD*
D10*
G04 #@! TO.C,C3*
X54500000Y-60000000D03*
X52500000Y-60000000D03*
G04 #@! TD*
D14*
G04 #@! TO.C,C4*
X75500000Y-64825000D03*
X75500000Y-71175000D03*
G04 #@! TD*
D15*
G04 #@! TO.C,C5*
X51500000Y-63250000D03*
X51500000Y-64750000D03*
G04 #@! TD*
D16*
G04 #@! TO.C,D1*
X87000000Y-63500000D03*
X83000000Y-63500000D03*
G04 #@! TD*
D17*
G04 #@! TO.C,L1*
X83000000Y-71940000D03*
X83000000Y-67060000D03*
G04 #@! TD*
D18*
G04 #@! TO.C,P1*
X70460000Y-52300000D03*
X73000000Y-52300000D03*
X75540000Y-52300000D03*
X75540000Y-58700000D03*
X73000000Y-58700000D03*
X70460000Y-58700000D03*
G04 #@! TD*
D19*
G04 #@! TO.C,Q1*
X60550000Y-56000000D03*
X62450000Y-56000000D03*
X61500000Y-54000000D03*
G04 #@! TD*
G04 #@! TO.C,Q2*
X65500000Y-54000000D03*
X66450000Y-56000000D03*
X64550000Y-56000000D03*
G04 #@! TD*
D20*
G04 #@! TO.C,R1*
X51500000Y-66750000D03*
X51500000Y-68250000D03*
G04 #@! TD*
G04 #@! TO.C,R2*
X72000000Y-84250000D03*
X72000000Y-82750000D03*
G04 #@! TD*
G04 #@! TO.C,R3*
X60500000Y-59250000D03*
X60500000Y-57750000D03*
G04 #@! TD*
G04 #@! TO.C,R4*
X64500000Y-57750000D03*
X64500000Y-59250000D03*
G04 #@! TD*
D21*
G04 #@! TO.C,R5*
X72750000Y-76500000D03*
X74250000Y-76500000D03*
G04 #@! TD*
G04 #@! TO.C,R6*
X74250000Y-80500000D03*
X72750000Y-80500000D03*
G04 #@! TD*
D22*
G04 #@! TO.C,U2*
X88595000Y-66800000D03*
X89865000Y-66800000D03*
X91135000Y-66800000D03*
X92405000Y-66800000D03*
X92405000Y-72200000D03*
X91135000Y-72200000D03*
X89865000Y-72200000D03*
X88595000Y-72200000D03*
G04 #@! TD*
M02*
