G04 #@! TF.GenerationSoftware,KiCad,Pcbnew,(6.0.0-rc1-dev-557-ge985f797c)*
G04 #@! TF.CreationDate,2018-10-28T11:13:32+01:00*
G04 #@! TF.ProjectId,GIRA ESP8266 Jalousiesteuerung,474952412045535038323636204A616C,1.0*
G04 #@! TF.SameCoordinates,Original*
G04 #@! TF.FileFunction,Legend,Bot*
G04 #@! TF.FilePolarity,Positive*
%FSLAX46Y46*%
G04 Gerber Fmt 4.6, Leading zero omitted, Abs format (unit mm)*
G04 Created by KiCad (PCBNEW (6.0.0-rc1-dev-557-ge985f797c)) date 10/28/18 11:13:32*
%MOMM*%
%LPD*%
G01*
G04 APERTURE LIST*
%ADD10C,0.300000*%
%ADD11C,0.010000*%
G04 APERTURE END LIST*
D10*
X85428571Y-72425000D02*
X85571428Y-72353571D01*
X85785714Y-72353571D01*
X86000000Y-72425000D01*
X86142857Y-72567857D01*
X86214285Y-72710714D01*
X86285714Y-72996428D01*
X86285714Y-73210714D01*
X86214285Y-73496428D01*
X86142857Y-73639285D01*
X86000000Y-73782142D01*
X85785714Y-73853571D01*
X85642857Y-73853571D01*
X85428571Y-73782142D01*
X85357142Y-73710714D01*
X85357142Y-73210714D01*
X85642857Y-73210714D01*
X84714285Y-73853571D02*
X84714285Y-72353571D01*
X83142857Y-73853571D02*
X83642857Y-73139285D01*
X84000000Y-73853571D02*
X84000000Y-72353571D01*
X83428571Y-72353571D01*
X83285714Y-72425000D01*
X83214285Y-72496428D01*
X83142857Y-72639285D01*
X83142857Y-72853571D01*
X83214285Y-72996428D01*
X83285714Y-73067857D01*
X83428571Y-73139285D01*
X84000000Y-73139285D01*
X82571428Y-73425000D02*
X81857142Y-73425000D01*
X82714285Y-73853571D02*
X82214285Y-72353571D01*
X81714285Y-73853571D01*
X80071428Y-73067857D02*
X79571428Y-73067857D01*
X79357142Y-73853571D02*
X80071428Y-73853571D01*
X80071428Y-72353571D01*
X79357142Y-72353571D01*
X78785714Y-73782142D02*
X78571428Y-73853571D01*
X78214285Y-73853571D01*
X78071428Y-73782142D01*
X78000000Y-73710714D01*
X77928571Y-73567857D01*
X77928571Y-73425000D01*
X78000000Y-73282142D01*
X78071428Y-73210714D01*
X78214285Y-73139285D01*
X78500000Y-73067857D01*
X78642857Y-72996428D01*
X78714285Y-72925000D01*
X78785714Y-72782142D01*
X78785714Y-72639285D01*
X78714285Y-72496428D01*
X78642857Y-72425000D01*
X78500000Y-72353571D01*
X78142857Y-72353571D01*
X77928571Y-72425000D01*
X77285714Y-73853571D02*
X77285714Y-72353571D01*
X76714285Y-72353571D01*
X76571428Y-72425000D01*
X76500000Y-72496428D01*
X76428571Y-72639285D01*
X76428571Y-72853571D01*
X76500000Y-72996428D01*
X76571428Y-73067857D01*
X76714285Y-73139285D01*
X77285714Y-73139285D01*
X75571428Y-72996428D02*
X75714285Y-72925000D01*
X75785714Y-72853571D01*
X75857142Y-72710714D01*
X75857142Y-72639285D01*
X75785714Y-72496428D01*
X75714285Y-72425000D01*
X75571428Y-72353571D01*
X75285714Y-72353571D01*
X75142857Y-72425000D01*
X75071428Y-72496428D01*
X75000000Y-72639285D01*
X75000000Y-72710714D01*
X75071428Y-72853571D01*
X75142857Y-72925000D01*
X75285714Y-72996428D01*
X75571428Y-72996428D01*
X75714285Y-73067857D01*
X75785714Y-73139285D01*
X75857142Y-73282142D01*
X75857142Y-73567857D01*
X75785714Y-73710714D01*
X75714285Y-73782142D01*
X75571428Y-73853571D01*
X75285714Y-73853571D01*
X75142857Y-73782142D01*
X75071428Y-73710714D01*
X75000000Y-73567857D01*
X75000000Y-73282142D01*
X75071428Y-73139285D01*
X75142857Y-73067857D01*
X75285714Y-72996428D01*
X74428571Y-72496428D02*
X74357142Y-72425000D01*
X74214285Y-72353571D01*
X73857142Y-72353571D01*
X73714285Y-72425000D01*
X73642857Y-72496428D01*
X73571428Y-72639285D01*
X73571428Y-72782142D01*
X73642857Y-72996428D01*
X74500000Y-73853571D01*
X73571428Y-73853571D01*
X72285714Y-72353571D02*
X72571428Y-72353571D01*
X72714285Y-72425000D01*
X72785714Y-72496428D01*
X72928571Y-72710714D01*
X73000000Y-72996428D01*
X73000000Y-73567857D01*
X72928571Y-73710714D01*
X72857142Y-73782142D01*
X72714285Y-73853571D01*
X72428571Y-73853571D01*
X72285714Y-73782142D01*
X72214285Y-73710714D01*
X72142857Y-73567857D01*
X72142857Y-73210714D01*
X72214285Y-73067857D01*
X72285714Y-72996428D01*
X72428571Y-72925000D01*
X72714285Y-72925000D01*
X72857142Y-72996428D01*
X72928571Y-73067857D01*
X73000000Y-73210714D01*
X70857142Y-72353571D02*
X71142857Y-72353571D01*
X71285714Y-72425000D01*
X71357142Y-72496428D01*
X71500000Y-72710714D01*
X71571428Y-72996428D01*
X71571428Y-73567857D01*
X71500000Y-73710714D01*
X71428571Y-73782142D01*
X71285714Y-73853571D01*
X71000000Y-73853571D01*
X70857142Y-73782142D01*
X70785714Y-73710714D01*
X70714285Y-73567857D01*
X70714285Y-73210714D01*
X70785714Y-73067857D01*
X70857142Y-72996428D01*
X71000000Y-72925000D01*
X71285714Y-72925000D01*
X71428571Y-72996428D01*
X71500000Y-73067857D01*
X71571428Y-73210714D01*
X70214285Y-72353571D02*
X69214285Y-72353571D01*
X69857142Y-73853571D01*
X67571428Y-73425000D02*
X66857142Y-73425000D01*
X67714285Y-73853571D02*
X67214285Y-72353571D01*
X66714285Y-73853571D01*
X65571428Y-73853571D02*
X65571428Y-72353571D01*
X65571428Y-73782142D02*
X65714285Y-73853571D01*
X66000000Y-73853571D01*
X66142857Y-73782142D01*
X66214285Y-73710714D01*
X66285714Y-73567857D01*
X66285714Y-73139285D01*
X66214285Y-72996428D01*
X66142857Y-72925000D01*
X66000000Y-72853571D01*
X65714285Y-72853571D01*
X65571428Y-72925000D01*
X64214285Y-73853571D02*
X64214285Y-73067857D01*
X64285714Y-72925000D01*
X64428571Y-72853571D01*
X64714285Y-72853571D01*
X64857142Y-72925000D01*
X64214285Y-73782142D02*
X64357142Y-73853571D01*
X64714285Y-73853571D01*
X64857142Y-73782142D01*
X64928571Y-73639285D01*
X64928571Y-73496428D01*
X64857142Y-73353571D01*
X64714285Y-73282142D01*
X64357142Y-73282142D01*
X64214285Y-73210714D01*
X63500000Y-72853571D02*
X63500000Y-74353571D01*
X63500000Y-72925000D02*
X63357142Y-72853571D01*
X63071428Y-72853571D01*
X62928571Y-72925000D01*
X62857142Y-72996428D01*
X62785714Y-73139285D01*
X62785714Y-73567857D01*
X62857142Y-73710714D01*
X62928571Y-73782142D01*
X63071428Y-73853571D01*
X63357142Y-73853571D01*
X63500000Y-73782142D01*
X62357142Y-72853571D02*
X61785714Y-72853571D01*
X62142857Y-72353571D02*
X62142857Y-73639285D01*
X62071428Y-73782142D01*
X61928571Y-73853571D01*
X61785714Y-73853571D01*
X60714285Y-73782142D02*
X60857142Y-73853571D01*
X61142857Y-73853571D01*
X61285714Y-73782142D01*
X61357142Y-73639285D01*
X61357142Y-73067857D01*
X61285714Y-72925000D01*
X61142857Y-72853571D01*
X60857142Y-72853571D01*
X60714285Y-72925000D01*
X60642857Y-73067857D01*
X60642857Y-73210714D01*
X61357142Y-73353571D01*
X60000000Y-73853571D02*
X60000000Y-72853571D01*
X60000000Y-73139285D02*
X59928571Y-72996428D01*
X59857142Y-72925000D01*
X59714285Y-72853571D01*
X59571428Y-72853571D01*
X83500000Y-75403571D02*
X83142857Y-76403571D01*
X82785714Y-75403571D01*
X81428571Y-76403571D02*
X82285714Y-76403571D01*
X81857142Y-76403571D02*
X81857142Y-74903571D01*
X82000000Y-75117857D01*
X82142857Y-75260714D01*
X82285714Y-75332142D01*
X80785714Y-76260714D02*
X80714285Y-76332142D01*
X80785714Y-76403571D01*
X80857142Y-76332142D01*
X80785714Y-76260714D01*
X80785714Y-76403571D01*
X79785714Y-74903571D02*
X79642857Y-74903571D01*
X79500000Y-74975000D01*
X79428571Y-75046428D01*
X79357142Y-75189285D01*
X79285714Y-75475000D01*
X79285714Y-75832142D01*
X79357142Y-76117857D01*
X79428571Y-76260714D01*
X79500000Y-76332142D01*
X79642857Y-76403571D01*
X79785714Y-76403571D01*
X79928571Y-76332142D01*
X80000000Y-76260714D01*
X80071428Y-76117857D01*
X80142857Y-75832142D01*
X80142857Y-75475000D01*
X80071428Y-75189285D01*
X80000000Y-75046428D01*
X79928571Y-74975000D01*
X79785714Y-74903571D01*
X76428571Y-74832142D02*
X77714285Y-76760714D01*
X74857142Y-75046428D02*
X74785714Y-74975000D01*
X74642857Y-74903571D01*
X74285714Y-74903571D01*
X74142857Y-74975000D01*
X74071428Y-75046428D01*
X74000000Y-75189285D01*
X74000000Y-75332142D01*
X74071428Y-75546428D01*
X74928571Y-76403571D01*
X74000000Y-76403571D01*
X73142857Y-75546428D02*
X73285714Y-75475000D01*
X73357142Y-75403571D01*
X73428571Y-75260714D01*
X73428571Y-75189285D01*
X73357142Y-75046428D01*
X73285714Y-74975000D01*
X73142857Y-74903571D01*
X72857142Y-74903571D01*
X72714285Y-74975000D01*
X72642857Y-75046428D01*
X72571428Y-75189285D01*
X72571428Y-75260714D01*
X72642857Y-75403571D01*
X72714285Y-75475000D01*
X72857142Y-75546428D01*
X73142857Y-75546428D01*
X73285714Y-75617857D01*
X73357142Y-75689285D01*
X73428571Y-75832142D01*
X73428571Y-76117857D01*
X73357142Y-76260714D01*
X73285714Y-76332142D01*
X73142857Y-76403571D01*
X72857142Y-76403571D01*
X72714285Y-76332142D01*
X72642857Y-76260714D01*
X72571428Y-76117857D01*
X72571428Y-75832142D01*
X72642857Y-75689285D01*
X72714285Y-75617857D01*
X72857142Y-75546428D01*
X71928571Y-76260714D02*
X71857142Y-76332142D01*
X71928571Y-76403571D01*
X72000000Y-76332142D01*
X71928571Y-76260714D01*
X71928571Y-76403571D01*
X70428571Y-76403571D02*
X71285714Y-76403571D01*
X70857142Y-76403571D02*
X70857142Y-74903571D01*
X71000000Y-75117857D01*
X71142857Y-75260714D01*
X71285714Y-75332142D01*
X69500000Y-74903571D02*
X69357142Y-74903571D01*
X69214285Y-74975000D01*
X69142857Y-75046428D01*
X69071428Y-75189285D01*
X69000000Y-75475000D01*
X69000000Y-75832142D01*
X69071428Y-76117857D01*
X69142857Y-76260714D01*
X69214285Y-76332142D01*
X69357142Y-76403571D01*
X69500000Y-76403571D01*
X69642857Y-76332142D01*
X69714285Y-76260714D01*
X69785714Y-76117857D01*
X69857142Y-75832142D01*
X69857142Y-75475000D01*
X69785714Y-75189285D01*
X69714285Y-75046428D01*
X69642857Y-74975000D01*
X69500000Y-74903571D01*
X68357142Y-76260714D02*
X68285714Y-76332142D01*
X68357142Y-76403571D01*
X68428571Y-76332142D01*
X68357142Y-76260714D01*
X68357142Y-76403571D01*
X67714285Y-75046428D02*
X67642857Y-74975000D01*
X67500000Y-74903571D01*
X67142857Y-74903571D01*
X67000000Y-74975000D01*
X66928571Y-75046428D01*
X66857142Y-75189285D01*
X66857142Y-75332142D01*
X66928571Y-75546428D01*
X67785714Y-76403571D01*
X66857142Y-76403571D01*
X65928571Y-74903571D02*
X65785714Y-74903571D01*
X65642857Y-74975000D01*
X65571428Y-75046428D01*
X65500000Y-75189285D01*
X65428571Y-75475000D01*
X65428571Y-75832142D01*
X65500000Y-76117857D01*
X65571428Y-76260714D01*
X65642857Y-76332142D01*
X65785714Y-76403571D01*
X65928571Y-76403571D01*
X66071428Y-76332142D01*
X66142857Y-76260714D01*
X66214285Y-76117857D01*
X66285714Y-75832142D01*
X66285714Y-75475000D01*
X66214285Y-75189285D01*
X66142857Y-75046428D01*
X66071428Y-74975000D01*
X65928571Y-74903571D01*
X64000000Y-76403571D02*
X64857142Y-76403571D01*
X64428571Y-76403571D02*
X64428571Y-74903571D01*
X64571428Y-75117857D01*
X64714285Y-75260714D01*
X64857142Y-75332142D01*
X63142857Y-75546428D02*
X63285714Y-75475000D01*
X63357142Y-75403571D01*
X63428571Y-75260714D01*
X63428571Y-75189285D01*
X63357142Y-75046428D01*
X63285714Y-74975000D01*
X63142857Y-74903571D01*
X62857142Y-74903571D01*
X62714285Y-74975000D01*
X62642857Y-75046428D01*
X62571428Y-75189285D01*
X62571428Y-75260714D01*
X62642857Y-75403571D01*
X62714285Y-75475000D01*
X62857142Y-75546428D01*
X63142857Y-75546428D01*
X63285714Y-75617857D01*
X63357142Y-75689285D01*
X63428571Y-75832142D01*
X63428571Y-76117857D01*
X63357142Y-76260714D01*
X63285714Y-76332142D01*
X63142857Y-76403571D01*
X62857142Y-76403571D01*
X62714285Y-76332142D01*
X62642857Y-76260714D01*
X62571428Y-76117857D01*
X62571428Y-75832142D01*
X62642857Y-75689285D01*
X62714285Y-75617857D01*
X62857142Y-75546428D01*
X80178571Y-77453571D02*
X80178571Y-78525000D01*
X80250000Y-78739285D01*
X80392857Y-78882142D01*
X80607142Y-78953571D01*
X80750000Y-78953571D01*
X78821428Y-77953571D02*
X78821428Y-78953571D01*
X79464285Y-77953571D02*
X79464285Y-78739285D01*
X79392857Y-78882142D01*
X79250000Y-78953571D01*
X79035714Y-78953571D01*
X78892857Y-78882142D01*
X78821428Y-78810714D01*
X77892857Y-78953571D02*
X78035714Y-78882142D01*
X78107142Y-78739285D01*
X78107142Y-77453571D01*
X77321428Y-78953571D02*
X77321428Y-77953571D01*
X77321428Y-77453571D02*
X77392857Y-77525000D01*
X77321428Y-77596428D01*
X77250000Y-77525000D01*
X77321428Y-77453571D01*
X77321428Y-77596428D01*
X75964285Y-78953571D02*
X75964285Y-78167857D01*
X76035714Y-78025000D01*
X76178571Y-77953571D01*
X76464285Y-77953571D01*
X76607142Y-78025000D01*
X75964285Y-78882142D02*
X76107142Y-78953571D01*
X76464285Y-78953571D01*
X76607142Y-78882142D01*
X76678571Y-78739285D01*
X76678571Y-78596428D01*
X76607142Y-78453571D01*
X76464285Y-78382142D01*
X76107142Y-78382142D01*
X75964285Y-78310714D01*
X75250000Y-77953571D02*
X75250000Y-78953571D01*
X75250000Y-78096428D02*
X75178571Y-78025000D01*
X75035714Y-77953571D01*
X74821428Y-77953571D01*
X74678571Y-78025000D01*
X74607142Y-78167857D01*
X74607142Y-78953571D01*
X72750000Y-78953571D02*
X72750000Y-77453571D01*
X72250000Y-78525000D01*
X71750000Y-77453571D01*
X71750000Y-78953571D01*
X70464285Y-78882142D02*
X70607142Y-78953571D01*
X70892857Y-78953571D01*
X71035714Y-78882142D01*
X71107142Y-78739285D01*
X71107142Y-78167857D01*
X71035714Y-78025000D01*
X70892857Y-77953571D01*
X70607142Y-77953571D01*
X70464285Y-78025000D01*
X70392857Y-78167857D01*
X70392857Y-78310714D01*
X71107142Y-78453571D01*
X69964285Y-77953571D02*
X69392857Y-77953571D01*
X69750000Y-77453571D02*
X69750000Y-78739285D01*
X69678571Y-78882142D01*
X69535714Y-78953571D01*
X69392857Y-78953571D01*
X69035714Y-77953571D02*
X68250000Y-77953571D01*
X69035714Y-78953571D01*
X68250000Y-78953571D01*
X67464285Y-78953571D02*
X67607142Y-78882142D01*
X67678571Y-78739285D01*
X67678571Y-77453571D01*
X66321428Y-78882142D02*
X66464285Y-78953571D01*
X66750000Y-78953571D01*
X66892857Y-78882142D01*
X66964285Y-78739285D01*
X66964285Y-78167857D01*
X66892857Y-78025000D01*
X66750000Y-77953571D01*
X66464285Y-77953571D01*
X66321428Y-78025000D01*
X66250000Y-78167857D01*
X66250000Y-78310714D01*
X66964285Y-78453571D01*
X65607142Y-78953571D02*
X65607142Y-77953571D01*
X65607142Y-78239285D02*
X65535714Y-78096428D01*
X65464285Y-78025000D01*
X65321428Y-77953571D01*
X65178571Y-77953571D01*
X79535714Y-81503571D02*
X78750000Y-80503571D01*
X79535714Y-80503571D02*
X78750000Y-81503571D01*
X77535714Y-81503571D02*
X77535714Y-80717857D01*
X77607142Y-80575000D01*
X77750000Y-80503571D01*
X78035714Y-80503571D01*
X78178571Y-80575000D01*
X77535714Y-81432142D02*
X77678571Y-81503571D01*
X78035714Y-81503571D01*
X78178571Y-81432142D01*
X78250000Y-81289285D01*
X78250000Y-81146428D01*
X78178571Y-81003571D01*
X78035714Y-80932142D01*
X77678571Y-80932142D01*
X77535714Y-80860714D01*
X77035714Y-80503571D02*
X76464285Y-80503571D01*
X76821428Y-80003571D02*
X76821428Y-81289285D01*
X76750000Y-81432142D01*
X76607142Y-81503571D01*
X76464285Y-81503571D01*
X75750000Y-81503571D02*
X75892857Y-81432142D01*
X75964285Y-81289285D01*
X75964285Y-80003571D01*
X74535714Y-81503571D02*
X74535714Y-80717857D01*
X74607142Y-80575000D01*
X74750000Y-80503571D01*
X75035714Y-80503571D01*
X75178571Y-80575000D01*
X74535714Y-81432142D02*
X74678571Y-81503571D01*
X75035714Y-81503571D01*
X75178571Y-81432142D01*
X75250000Y-81289285D01*
X75250000Y-81146428D01*
X75178571Y-81003571D01*
X75035714Y-80932142D01*
X74678571Y-80932142D01*
X74535714Y-80860714D01*
X73821428Y-81503571D02*
X73821428Y-80003571D01*
X73821428Y-80575000D02*
X73678571Y-80503571D01*
X73392857Y-80503571D01*
X73250000Y-80575000D01*
X73178571Y-80646428D01*
X73107142Y-80789285D01*
X73107142Y-81217857D01*
X73178571Y-81360714D01*
X73250000Y-81432142D01*
X73392857Y-81503571D01*
X73678571Y-81503571D01*
X73821428Y-81432142D01*
X72535714Y-81432142D02*
X72392857Y-81503571D01*
X72107142Y-81503571D01*
X71964285Y-81432142D01*
X71892857Y-81289285D01*
X71892857Y-81217857D01*
X71964285Y-81075000D01*
X72107142Y-81003571D01*
X72321428Y-81003571D01*
X72464285Y-80932142D01*
X72535714Y-80789285D01*
X72535714Y-80717857D01*
X72464285Y-80575000D01*
X72321428Y-80503571D01*
X72107142Y-80503571D01*
X71964285Y-80575000D01*
X71250000Y-81360714D02*
X71178571Y-81432142D01*
X71250000Y-81503571D01*
X71321428Y-81432142D01*
X71250000Y-81360714D01*
X71250000Y-81503571D01*
X69892857Y-81432142D02*
X70035714Y-81503571D01*
X70321428Y-81503571D01*
X70464285Y-81432142D01*
X70535714Y-81360714D01*
X70607142Y-81217857D01*
X70607142Y-80789285D01*
X70535714Y-80646428D01*
X70464285Y-80575000D01*
X70321428Y-80503571D01*
X70035714Y-80503571D01*
X69892857Y-80575000D01*
X69035714Y-81503571D02*
X69178571Y-81432142D01*
X69250000Y-81360714D01*
X69321428Y-81217857D01*
X69321428Y-80789285D01*
X69250000Y-80646428D01*
X69178571Y-80575000D01*
X69035714Y-80503571D01*
X68821428Y-80503571D01*
X68678571Y-80575000D01*
X68607142Y-80646428D01*
X68535714Y-80789285D01*
X68535714Y-81217857D01*
X68607142Y-81360714D01*
X68678571Y-81432142D01*
X68821428Y-81503571D01*
X69035714Y-81503571D01*
X67892857Y-81503571D02*
X67892857Y-80503571D01*
X67892857Y-80646428D02*
X67821428Y-80575000D01*
X67678571Y-80503571D01*
X67464285Y-80503571D01*
X67321428Y-80575000D01*
X67250000Y-80717857D01*
X67250000Y-81503571D01*
X67250000Y-80717857D02*
X67178571Y-80575000D01*
X67035714Y-80503571D01*
X66821428Y-80503571D01*
X66678571Y-80575000D01*
X66607142Y-80717857D01*
X66607142Y-81503571D01*
D11*
G04 #@! TO.C,G\002A\002A\002A*
G36*
X81739450Y-62233992D02*
X81749789Y-62273334D01*
X81775379Y-62346902D01*
X81796619Y-62405006D01*
X81845318Y-62542519D01*
X81895395Y-62693290D01*
X81945298Y-62851687D01*
X81993473Y-63012075D01*
X82038369Y-63168822D01*
X82078431Y-63316295D01*
X82112109Y-63448860D01*
X82137848Y-63560884D01*
X82154096Y-63646735D01*
X82159302Y-63700779D01*
X82157384Y-63713860D01*
X82148549Y-63718188D01*
X82145671Y-63700984D01*
X82137211Y-63655642D01*
X82116445Y-63580526D01*
X82086646Y-63485225D01*
X82051087Y-63379326D01*
X82013042Y-63272419D01*
X81975784Y-63174092D01*
X81942584Y-63093934D01*
X81927249Y-63061083D01*
X81896501Y-63005498D01*
X81853280Y-62934913D01*
X81803245Y-62857659D01*
X81752056Y-62782071D01*
X81705371Y-62716480D01*
X81668848Y-62669218D01*
X81648146Y-62648618D01*
X81646941Y-62648333D01*
X81651048Y-62667129D01*
X81666638Y-62718653D01*
X81691404Y-62795609D01*
X81723035Y-62890701D01*
X81732341Y-62918208D01*
X81827444Y-63236198D01*
X81907351Y-63580791D01*
X81969590Y-63938213D01*
X82011693Y-64294694D01*
X82029382Y-64574500D01*
X82040380Y-64881417D01*
X81996339Y-64758680D01*
X81961027Y-64672403D01*
X81918768Y-64585676D01*
X81894691Y-64543390D01*
X81837083Y-64450835D01*
X81836676Y-64856626D01*
X81834065Y-65058124D01*
X81825688Y-65237119D01*
X81810076Y-65406272D01*
X81785760Y-65578246D01*
X81751272Y-65765700D01*
X81707336Y-65971500D01*
X81590986Y-66423341D01*
X81448466Y-66850476D01*
X81275819Y-67264234D01*
X81200947Y-67421417D01*
X81009725Y-67777071D01*
X80801191Y-68100858D01*
X80580917Y-68388151D01*
X80506465Y-68480013D01*
X80458696Y-68545099D01*
X80435114Y-68587302D01*
X80433224Y-68610516D01*
X80436161Y-68614078D01*
X80477369Y-68623157D01*
X80497930Y-68614995D01*
X80526547Y-68610930D01*
X80595531Y-68607454D01*
X80702920Y-68604586D01*
X80846752Y-68602347D01*
X81025065Y-68600756D01*
X81235897Y-68599832D01*
X81477285Y-68599595D01*
X81747267Y-68600064D01*
X81931811Y-68600734D01*
X83329460Y-68606750D01*
X83360675Y-68511500D01*
X83394863Y-68394650D01*
X83431460Y-68248138D01*
X83467762Y-68084324D01*
X83501069Y-67915570D01*
X83528677Y-67754236D01*
X83534191Y-67717750D01*
X83549852Y-67577847D01*
X83561550Y-67404971D01*
X83569288Y-67208294D01*
X83573073Y-66996989D01*
X83572908Y-66780231D01*
X83568798Y-66567192D01*
X83560749Y-66367045D01*
X83557779Y-66322914D01*
X83477500Y-66322914D01*
X83459624Y-66350296D01*
X83415049Y-66379671D01*
X83398125Y-66387379D01*
X83338030Y-66418112D01*
X83263441Y-66464312D01*
X83205486Y-66505016D01*
X83111974Y-66564359D01*
X83027579Y-66597556D01*
X83008457Y-66601171D01*
X82949113Y-66603968D01*
X82904522Y-66587685D01*
X82857138Y-66548288D01*
X82802102Y-66501780D01*
X82750698Y-66476273D01*
X82691945Y-66470493D01*
X82614861Y-66483164D01*
X82520889Y-66509244D01*
X82362536Y-66556365D01*
X82238533Y-66591011D01*
X82142936Y-66613685D01*
X82069802Y-66624892D01*
X82013187Y-66625136D01*
X81967145Y-66614923D01*
X81925735Y-66594757D01*
X81883012Y-66565143D01*
X81880938Y-66563578D01*
X81822033Y-66526162D01*
X81768319Y-66503632D01*
X81749895Y-66500667D01*
X81706089Y-66491566D01*
X81687868Y-66477803D01*
X81687232Y-66449049D01*
X81696509Y-66389053D01*
X81713977Y-66307273D01*
X81732196Y-66234386D01*
X81759001Y-66136351D01*
X81779456Y-66072390D01*
X81797007Y-66035393D01*
X81815099Y-66018249D01*
X81837179Y-66013848D01*
X81839078Y-66013833D01*
X81882604Y-66022138D01*
X81900583Y-66035000D01*
X81935214Y-66055663D01*
X81989018Y-66043419D01*
X82056698Y-65999901D01*
X82080547Y-65979523D01*
X82165382Y-65902879D01*
X82275004Y-65950037D01*
X82397543Y-65984582D01*
X82509556Y-65978610D01*
X82609972Y-65932193D01*
X82615767Y-65928003D01*
X82645834Y-65907366D01*
X82674689Y-65895142D01*
X82712082Y-65890622D01*
X82767763Y-65893098D01*
X82851483Y-65901859D01*
X82898813Y-65907416D01*
X83019565Y-65919834D01*
X83109042Y-65922884D01*
X83177580Y-65914978D01*
X83235518Y-65894527D01*
X83293191Y-65859942D01*
X83316579Y-65843211D01*
X83365908Y-65808813D01*
X83398984Y-65789282D01*
X83406338Y-65787449D01*
X83411202Y-65809391D01*
X83419814Y-65863578D01*
X83430872Y-65940224D01*
X83443076Y-66029544D01*
X83455125Y-66121750D01*
X83465720Y-66207058D01*
X83473558Y-66275680D01*
X83477340Y-66317831D01*
X83477500Y-66322914D01*
X83557779Y-66322914D01*
X83548764Y-66188964D01*
X83533328Y-66045583D01*
X83448110Y-65543493D01*
X83334113Y-65065179D01*
X83192069Y-64612715D01*
X83022709Y-64188175D01*
X82826767Y-63793632D01*
X82615276Y-63446417D01*
X82526130Y-63314840D01*
X82458664Y-63217739D01*
X82411930Y-63153815D01*
X82384978Y-63121767D01*
X82376833Y-63119605D01*
X82383977Y-63143022D01*
X82403162Y-63196603D01*
X82431020Y-63271082D01*
X82449069Y-63318251D01*
X82523829Y-63545013D01*
X82572272Y-63774546D01*
X82597976Y-64024006D01*
X82598632Y-64035554D01*
X82610249Y-64246417D01*
X82534587Y-63971435D01*
X82476121Y-63778986D01*
X82184662Y-63778986D01*
X82180771Y-63806439D01*
X82173545Y-63806767D01*
X82168492Y-63778438D01*
X82171874Y-63766198D01*
X82181273Y-63758180D01*
X82184662Y-63778986D01*
X82476121Y-63778986D01*
X82443283Y-63670900D01*
X82335205Y-63368470D01*
X82214480Y-63073867D01*
X82085237Y-62796815D01*
X81951604Y-62547038D01*
X81878538Y-62426083D01*
X81813906Y-62324923D01*
X81770112Y-62259427D01*
X81745759Y-62229237D01*
X81739450Y-62233992D01*
X81739450Y-62233992D01*
G37*
X81739450Y-62233992D02*
X81749789Y-62273334D01*
X81775379Y-62346902D01*
X81796619Y-62405006D01*
X81845318Y-62542519D01*
X81895395Y-62693290D01*
X81945298Y-62851687D01*
X81993473Y-63012075D01*
X82038369Y-63168822D01*
X82078431Y-63316295D01*
X82112109Y-63448860D01*
X82137848Y-63560884D01*
X82154096Y-63646735D01*
X82159302Y-63700779D01*
X82157384Y-63713860D01*
X82148549Y-63718188D01*
X82145671Y-63700984D01*
X82137211Y-63655642D01*
X82116445Y-63580526D01*
X82086646Y-63485225D01*
X82051087Y-63379326D01*
X82013042Y-63272419D01*
X81975784Y-63174092D01*
X81942584Y-63093934D01*
X81927249Y-63061083D01*
X81896501Y-63005498D01*
X81853280Y-62934913D01*
X81803245Y-62857659D01*
X81752056Y-62782071D01*
X81705371Y-62716480D01*
X81668848Y-62669218D01*
X81648146Y-62648618D01*
X81646941Y-62648333D01*
X81651048Y-62667129D01*
X81666638Y-62718653D01*
X81691404Y-62795609D01*
X81723035Y-62890701D01*
X81732341Y-62918208D01*
X81827444Y-63236198D01*
X81907351Y-63580791D01*
X81969590Y-63938213D01*
X82011693Y-64294694D01*
X82029382Y-64574500D01*
X82040380Y-64881417D01*
X81996339Y-64758680D01*
X81961027Y-64672403D01*
X81918768Y-64585676D01*
X81894691Y-64543390D01*
X81837083Y-64450835D01*
X81836676Y-64856626D01*
X81834065Y-65058124D01*
X81825688Y-65237119D01*
X81810076Y-65406272D01*
X81785760Y-65578246D01*
X81751272Y-65765700D01*
X81707336Y-65971500D01*
X81590986Y-66423341D01*
X81448466Y-66850476D01*
X81275819Y-67264234D01*
X81200947Y-67421417D01*
X81009725Y-67777071D01*
X80801191Y-68100858D01*
X80580917Y-68388151D01*
X80506465Y-68480013D01*
X80458696Y-68545099D01*
X80435114Y-68587302D01*
X80433224Y-68610516D01*
X80436161Y-68614078D01*
X80477369Y-68623157D01*
X80497930Y-68614995D01*
X80526547Y-68610930D01*
X80595531Y-68607454D01*
X80702920Y-68604586D01*
X80846752Y-68602347D01*
X81025065Y-68600756D01*
X81235897Y-68599832D01*
X81477285Y-68599595D01*
X81747267Y-68600064D01*
X81931811Y-68600734D01*
X83329460Y-68606750D01*
X83360675Y-68511500D01*
X83394863Y-68394650D01*
X83431460Y-68248138D01*
X83467762Y-68084324D01*
X83501069Y-67915570D01*
X83528677Y-67754236D01*
X83534191Y-67717750D01*
X83549852Y-67577847D01*
X83561550Y-67404971D01*
X83569288Y-67208294D01*
X83573073Y-66996989D01*
X83572908Y-66780231D01*
X83568798Y-66567192D01*
X83560749Y-66367045D01*
X83557779Y-66322914D01*
X83477500Y-66322914D01*
X83459624Y-66350296D01*
X83415049Y-66379671D01*
X83398125Y-66387379D01*
X83338030Y-66418112D01*
X83263441Y-66464312D01*
X83205486Y-66505016D01*
X83111974Y-66564359D01*
X83027579Y-66597556D01*
X83008457Y-66601171D01*
X82949113Y-66603968D01*
X82904522Y-66587685D01*
X82857138Y-66548288D01*
X82802102Y-66501780D01*
X82750698Y-66476273D01*
X82691945Y-66470493D01*
X82614861Y-66483164D01*
X82520889Y-66509244D01*
X82362536Y-66556365D01*
X82238533Y-66591011D01*
X82142936Y-66613685D01*
X82069802Y-66624892D01*
X82013187Y-66625136D01*
X81967145Y-66614923D01*
X81925735Y-66594757D01*
X81883012Y-66565143D01*
X81880938Y-66563578D01*
X81822033Y-66526162D01*
X81768319Y-66503632D01*
X81749895Y-66500667D01*
X81706089Y-66491566D01*
X81687868Y-66477803D01*
X81687232Y-66449049D01*
X81696509Y-66389053D01*
X81713977Y-66307273D01*
X81732196Y-66234386D01*
X81759001Y-66136351D01*
X81779456Y-66072390D01*
X81797007Y-66035393D01*
X81815099Y-66018249D01*
X81837179Y-66013848D01*
X81839078Y-66013833D01*
X81882604Y-66022138D01*
X81900583Y-66035000D01*
X81935214Y-66055663D01*
X81989018Y-66043419D01*
X82056698Y-65999901D01*
X82080547Y-65979523D01*
X82165382Y-65902879D01*
X82275004Y-65950037D01*
X82397543Y-65984582D01*
X82509556Y-65978610D01*
X82609972Y-65932193D01*
X82615767Y-65928003D01*
X82645834Y-65907366D01*
X82674689Y-65895142D01*
X82712082Y-65890622D01*
X82767763Y-65893098D01*
X82851483Y-65901859D01*
X82898813Y-65907416D01*
X83019565Y-65919834D01*
X83109042Y-65922884D01*
X83177580Y-65914978D01*
X83235518Y-65894527D01*
X83293191Y-65859942D01*
X83316579Y-65843211D01*
X83365908Y-65808813D01*
X83398984Y-65789282D01*
X83406338Y-65787449D01*
X83411202Y-65809391D01*
X83419814Y-65863578D01*
X83430872Y-65940224D01*
X83443076Y-66029544D01*
X83455125Y-66121750D01*
X83465720Y-66207058D01*
X83473558Y-66275680D01*
X83477340Y-66317831D01*
X83477500Y-66322914D01*
X83557779Y-66322914D01*
X83548764Y-66188964D01*
X83533328Y-66045583D01*
X83448110Y-65543493D01*
X83334113Y-65065179D01*
X83192069Y-64612715D01*
X83022709Y-64188175D01*
X82826767Y-63793632D01*
X82615276Y-63446417D01*
X82526130Y-63314840D01*
X82458664Y-63217739D01*
X82411930Y-63153815D01*
X82384978Y-63121767D01*
X82376833Y-63119605D01*
X82383977Y-63143022D01*
X82403162Y-63196603D01*
X82431020Y-63271082D01*
X82449069Y-63318251D01*
X82523829Y-63545013D01*
X82572272Y-63774546D01*
X82597976Y-64024006D01*
X82598632Y-64035554D01*
X82610249Y-64246417D01*
X82534587Y-63971435D01*
X82476121Y-63778986D01*
X82184662Y-63778986D01*
X82180771Y-63806439D01*
X82173545Y-63806767D01*
X82168492Y-63778438D01*
X82171874Y-63766198D01*
X82181273Y-63758180D01*
X82184662Y-63778986D01*
X82476121Y-63778986D01*
X82443283Y-63670900D01*
X82335205Y-63368470D01*
X82214480Y-63073867D01*
X82085237Y-62796815D01*
X81951604Y-62547038D01*
X81878538Y-62426083D01*
X81813906Y-62324923D01*
X81770112Y-62259427D01*
X81745759Y-62229237D01*
X81739450Y-62233992D01*
G36*
X75606512Y-66049865D02*
X75396980Y-66101885D01*
X75200957Y-66193519D01*
X75020323Y-66324221D01*
X74953287Y-66386831D01*
X74799167Y-66540951D01*
X74799167Y-66098500D01*
X74481667Y-66098500D01*
X74481667Y-68575000D01*
X74799167Y-68575000D01*
X74799167Y-68169083D01*
X74937219Y-68295582D01*
X75123937Y-68439594D01*
X75326284Y-68545311D01*
X75540769Y-68611854D01*
X75763901Y-68638347D01*
X75992190Y-68623909D01*
X76129253Y-68595480D01*
X76287197Y-68542644D01*
X76430309Y-68468326D01*
X76569242Y-68366082D01*
X76685440Y-68258950D01*
X76836058Y-68085062D01*
X76947125Y-67900385D01*
X77020436Y-67700568D01*
X77057790Y-67481262D01*
X77061963Y-67383471D01*
X76740252Y-67383471D01*
X76737946Y-67415594D01*
X76700492Y-67614573D01*
X76627561Y-67799266D01*
X76523081Y-67964918D01*
X76390978Y-68106774D01*
X76235179Y-68220077D01*
X76059612Y-68300075D01*
X75990882Y-68320167D01*
X75896159Y-68333462D01*
X75776811Y-68335454D01*
X75648711Y-68327162D01*
X75527733Y-68309608D01*
X75430614Y-68284126D01*
X75248388Y-68196672D01*
X75092280Y-68076238D01*
X74964376Y-67924694D01*
X74893386Y-67802417D01*
X74824797Y-67622024D01*
X74793890Y-67433180D01*
X74799579Y-67228833D01*
X74801901Y-67209019D01*
X74846006Y-67013433D01*
X74924666Y-66837501D01*
X75033544Y-66684164D01*
X75168300Y-66556363D01*
X75324597Y-66457039D01*
X75498095Y-66389131D01*
X75684456Y-66355581D01*
X75879342Y-66359329D01*
X76017095Y-66385351D01*
X76194694Y-66452622D01*
X76353944Y-66554165D01*
X76490995Y-66684480D01*
X76601999Y-66838069D01*
X76683109Y-67009430D01*
X76730476Y-67193064D01*
X76740252Y-67383471D01*
X77061963Y-67383471D01*
X77063687Y-67343083D01*
X77058130Y-67182534D01*
X77038227Y-67045401D01*
X77000043Y-66914068D01*
X76939639Y-66770919D01*
X76932398Y-66755640D01*
X76821005Y-66569637D01*
X76676862Y-66403935D01*
X76506436Y-66263632D01*
X76316195Y-66153826D01*
X76112606Y-66079615D01*
X76058583Y-66066843D01*
X75827673Y-66038003D01*
X75606512Y-66049865D01*
X75606512Y-66049865D01*
G37*
X75606512Y-66049865D02*
X75396980Y-66101885D01*
X75200957Y-66193519D01*
X75020323Y-66324221D01*
X74953287Y-66386831D01*
X74799167Y-66540951D01*
X74799167Y-66098500D01*
X74481667Y-66098500D01*
X74481667Y-68575000D01*
X74799167Y-68575000D01*
X74799167Y-68169083D01*
X74937219Y-68295582D01*
X75123937Y-68439594D01*
X75326284Y-68545311D01*
X75540769Y-68611854D01*
X75763901Y-68638347D01*
X75992190Y-68623909D01*
X76129253Y-68595480D01*
X76287197Y-68542644D01*
X76430309Y-68468326D01*
X76569242Y-68366082D01*
X76685440Y-68258950D01*
X76836058Y-68085062D01*
X76947125Y-67900385D01*
X77020436Y-67700568D01*
X77057790Y-67481262D01*
X77061963Y-67383471D01*
X76740252Y-67383471D01*
X76737946Y-67415594D01*
X76700492Y-67614573D01*
X76627561Y-67799266D01*
X76523081Y-67964918D01*
X76390978Y-68106774D01*
X76235179Y-68220077D01*
X76059612Y-68300075D01*
X75990882Y-68320167D01*
X75896159Y-68333462D01*
X75776811Y-68335454D01*
X75648711Y-68327162D01*
X75527733Y-68309608D01*
X75430614Y-68284126D01*
X75248388Y-68196672D01*
X75092280Y-68076238D01*
X74964376Y-67924694D01*
X74893386Y-67802417D01*
X74824797Y-67622024D01*
X74793890Y-67433180D01*
X74799579Y-67228833D01*
X74801901Y-67209019D01*
X74846006Y-67013433D01*
X74924666Y-66837501D01*
X75033544Y-66684164D01*
X75168300Y-66556363D01*
X75324597Y-66457039D01*
X75498095Y-66389131D01*
X75684456Y-66355581D01*
X75879342Y-66359329D01*
X76017095Y-66385351D01*
X76194694Y-66452622D01*
X76353944Y-66554165D01*
X76490995Y-66684480D01*
X76601999Y-66838069D01*
X76683109Y-67009430D01*
X76730476Y-67193064D01*
X76740252Y-67383471D01*
X77061963Y-67383471D01*
X77063687Y-67343083D01*
X77058130Y-67182534D01*
X77038227Y-67045401D01*
X77000043Y-66914068D01*
X76939639Y-66770919D01*
X76932398Y-66755640D01*
X76821005Y-66569637D01*
X76676862Y-66403935D01*
X76506436Y-66263632D01*
X76316195Y-66153826D01*
X76112606Y-66079615D01*
X76058583Y-66066843D01*
X75827673Y-66038003D01*
X75606512Y-66049865D01*
G36*
X68741418Y-66042453D02*
X68531428Y-66082238D01*
X68331618Y-66160002D01*
X68146404Y-66275008D01*
X68018657Y-66386331D01*
X67877667Y-66527321D01*
X67877667Y-66098500D01*
X67560167Y-66098500D01*
X67560167Y-68575000D01*
X67877667Y-68575000D01*
X67877667Y-68166123D01*
X68009958Y-68292761D01*
X68165148Y-68424729D01*
X68320748Y-68520354D01*
X68486721Y-68583832D01*
X68673026Y-68619362D01*
X68809000Y-68629428D01*
X68981828Y-68629482D01*
X69123342Y-68615660D01*
X69162997Y-68607905D01*
X69359669Y-68542035D01*
X69544888Y-68439115D01*
X69713794Y-68303913D01*
X69861525Y-68141196D01*
X69983222Y-67955732D01*
X70074025Y-67752287D01*
X70092108Y-67696583D01*
X70118799Y-67566437D01*
X70131332Y-67412061D01*
X70130459Y-67314730D01*
X69802207Y-67314730D01*
X69799037Y-67401141D01*
X69791424Y-67505820D01*
X69778583Y-67585876D01*
X69756226Y-67659011D01*
X69720065Y-67742926D01*
X69712199Y-67759616D01*
X69630247Y-67901221D01*
X69526434Y-68033382D01*
X69410568Y-68145128D01*
X69298883Y-68222047D01*
X69119432Y-68296721D01*
X68927439Y-68334972D01*
X68732714Y-68335572D01*
X68590842Y-68310593D01*
X68397088Y-68239882D01*
X68229214Y-68137076D01*
X68089556Y-68005260D01*
X67980447Y-67847521D01*
X67904225Y-67666945D01*
X67863224Y-67466620D01*
X67856500Y-67340155D01*
X67876031Y-67139791D01*
X67932056Y-66954319D01*
X68020729Y-66787323D01*
X68138200Y-66642387D01*
X68280621Y-66523095D01*
X68444144Y-66433031D01*
X68624920Y-66375778D01*
X68819101Y-66354920D01*
X68910695Y-66358435D01*
X69107197Y-66395238D01*
X69287902Y-66469317D01*
X69448597Y-66577227D01*
X69585067Y-66715525D01*
X69693099Y-66880769D01*
X69764490Y-67056061D01*
X69787636Y-67143252D01*
X69799618Y-67223572D01*
X69802207Y-67314730D01*
X70130459Y-67314730D01*
X70129870Y-67249063D01*
X70114575Y-67093051D01*
X70085609Y-66959633D01*
X70084408Y-66955750D01*
X69999058Y-66751339D01*
X69878007Y-66561379D01*
X69727094Y-66392560D01*
X69552155Y-66251568D01*
X69388318Y-66158312D01*
X69174278Y-66079755D01*
X68957173Y-66041380D01*
X68741418Y-66042453D01*
X68741418Y-66042453D01*
G37*
X68741418Y-66042453D02*
X68531428Y-66082238D01*
X68331618Y-66160002D01*
X68146404Y-66275008D01*
X68018657Y-66386331D01*
X67877667Y-66527321D01*
X67877667Y-66098500D01*
X67560167Y-66098500D01*
X67560167Y-68575000D01*
X67877667Y-68575000D01*
X67877667Y-68166123D01*
X68009958Y-68292761D01*
X68165148Y-68424729D01*
X68320748Y-68520354D01*
X68486721Y-68583832D01*
X68673026Y-68619362D01*
X68809000Y-68629428D01*
X68981828Y-68629482D01*
X69123342Y-68615660D01*
X69162997Y-68607905D01*
X69359669Y-68542035D01*
X69544888Y-68439115D01*
X69713794Y-68303913D01*
X69861525Y-68141196D01*
X69983222Y-67955732D01*
X70074025Y-67752287D01*
X70092108Y-67696583D01*
X70118799Y-67566437D01*
X70131332Y-67412061D01*
X70130459Y-67314730D01*
X69802207Y-67314730D01*
X69799037Y-67401141D01*
X69791424Y-67505820D01*
X69778583Y-67585876D01*
X69756226Y-67659011D01*
X69720065Y-67742926D01*
X69712199Y-67759616D01*
X69630247Y-67901221D01*
X69526434Y-68033382D01*
X69410568Y-68145128D01*
X69298883Y-68222047D01*
X69119432Y-68296721D01*
X68927439Y-68334972D01*
X68732714Y-68335572D01*
X68590842Y-68310593D01*
X68397088Y-68239882D01*
X68229214Y-68137076D01*
X68089556Y-68005260D01*
X67980447Y-67847521D01*
X67904225Y-67666945D01*
X67863224Y-67466620D01*
X67856500Y-67340155D01*
X67876031Y-67139791D01*
X67932056Y-66954319D01*
X68020729Y-66787323D01*
X68138200Y-66642387D01*
X68280621Y-66523095D01*
X68444144Y-66433031D01*
X68624920Y-66375778D01*
X68819101Y-66354920D01*
X68910695Y-66358435D01*
X69107197Y-66395238D01*
X69287902Y-66469317D01*
X69448597Y-66577227D01*
X69585067Y-66715525D01*
X69693099Y-66880769D01*
X69764490Y-67056061D01*
X69787636Y-67143252D01*
X69799618Y-67223572D01*
X69802207Y-67314730D01*
X70130459Y-67314730D01*
X70129870Y-67249063D01*
X70114575Y-67093051D01*
X70085609Y-66959633D01*
X70084408Y-66955750D01*
X69999058Y-66751339D01*
X69878007Y-66561379D01*
X69727094Y-66392560D01*
X69552155Y-66251568D01*
X69388318Y-66158312D01*
X69174278Y-66079755D01*
X68957173Y-66041380D01*
X68741418Y-66042453D01*
G36*
X66501833Y-66512041D02*
X66364455Y-66380611D01*
X66191874Y-66243080D01*
X66001663Y-66140568D01*
X65799141Y-66073264D01*
X65589630Y-66041357D01*
X65378448Y-66045035D01*
X65170916Y-66084488D01*
X64972354Y-66159904D01*
X64788081Y-66271472D01*
X64724045Y-66322415D01*
X64549217Y-66496783D01*
X64413235Y-66687604D01*
X64316387Y-66894218D01*
X64258961Y-67115962D01*
X64241247Y-67352175D01*
X64243584Y-67423360D01*
X64276899Y-67653157D01*
X64348674Y-67868832D01*
X64456269Y-68066421D01*
X64597046Y-68241958D01*
X64768368Y-68391480D01*
X64967250Y-68510855D01*
X65062805Y-68552706D01*
X65162674Y-68589001D01*
X65248071Y-68613049D01*
X65262179Y-68615876D01*
X65397825Y-68632071D01*
X65545046Y-68636093D01*
X65687092Y-68628250D01*
X65807209Y-68608852D01*
X65820144Y-68605551D01*
X65982874Y-68549464D01*
X66128858Y-68470718D01*
X66270175Y-68362169D01*
X66337792Y-68299434D01*
X66501833Y-68139788D01*
X66501833Y-68575000D01*
X66819333Y-68575000D01*
X66819333Y-67397953D01*
X66515261Y-67397953D01*
X66506292Y-67479629D01*
X66457699Y-67680807D01*
X66374856Y-67861137D01*
X66260598Y-68017158D01*
X66117760Y-68145410D01*
X65949178Y-68242431D01*
X65850706Y-68279897D01*
X65711053Y-68309682D01*
X65552539Y-68319720D01*
X65393765Y-68309971D01*
X65255644Y-68281122D01*
X65072509Y-68204671D01*
X64916469Y-68096967D01*
X64785509Y-67956214D01*
X64677610Y-67780612D01*
X64664926Y-67754614D01*
X64626939Y-67670215D01*
X64602968Y-67600927D01*
X64589161Y-67530267D01*
X64581667Y-67441750D01*
X64579159Y-67387522D01*
X64584133Y-67190831D01*
X64618263Y-67018793D01*
X64684818Y-66862563D01*
X64787067Y-66713299D01*
X64858239Y-66632515D01*
X65009000Y-66501816D01*
X65177642Y-66407469D01*
X65359315Y-66350902D01*
X65549173Y-66333543D01*
X65742364Y-66356822D01*
X65770704Y-66363743D01*
X65967857Y-66435154D01*
X66138607Y-66537863D01*
X66280638Y-66668359D01*
X66391635Y-66823129D01*
X66469281Y-66998660D01*
X66511262Y-67191439D01*
X66515261Y-67397953D01*
X66819333Y-67397953D01*
X66819333Y-65146000D01*
X66501833Y-65146000D01*
X66501833Y-66512041D01*
X66501833Y-66512041D01*
G37*
X66501833Y-66512041D02*
X66364455Y-66380611D01*
X66191874Y-66243080D01*
X66001663Y-66140568D01*
X65799141Y-66073264D01*
X65589630Y-66041357D01*
X65378448Y-66045035D01*
X65170916Y-66084488D01*
X64972354Y-66159904D01*
X64788081Y-66271472D01*
X64724045Y-66322415D01*
X64549217Y-66496783D01*
X64413235Y-66687604D01*
X64316387Y-66894218D01*
X64258961Y-67115962D01*
X64241247Y-67352175D01*
X64243584Y-67423360D01*
X64276899Y-67653157D01*
X64348674Y-67868832D01*
X64456269Y-68066421D01*
X64597046Y-68241958D01*
X64768368Y-68391480D01*
X64967250Y-68510855D01*
X65062805Y-68552706D01*
X65162674Y-68589001D01*
X65248071Y-68613049D01*
X65262179Y-68615876D01*
X65397825Y-68632071D01*
X65545046Y-68636093D01*
X65687092Y-68628250D01*
X65807209Y-68608852D01*
X65820144Y-68605551D01*
X65982874Y-68549464D01*
X66128858Y-68470718D01*
X66270175Y-68362169D01*
X66337792Y-68299434D01*
X66501833Y-68139788D01*
X66501833Y-68575000D01*
X66819333Y-68575000D01*
X66819333Y-67397953D01*
X66515261Y-67397953D01*
X66506292Y-67479629D01*
X66457699Y-67680807D01*
X66374856Y-67861137D01*
X66260598Y-68017158D01*
X66117760Y-68145410D01*
X65949178Y-68242431D01*
X65850706Y-68279897D01*
X65711053Y-68309682D01*
X65552539Y-68319720D01*
X65393765Y-68309971D01*
X65255644Y-68281122D01*
X65072509Y-68204671D01*
X64916469Y-68096967D01*
X64785509Y-67956214D01*
X64677610Y-67780612D01*
X64664926Y-67754614D01*
X64626939Y-67670215D01*
X64602968Y-67600927D01*
X64589161Y-67530267D01*
X64581667Y-67441750D01*
X64579159Y-67387522D01*
X64584133Y-67190831D01*
X64618263Y-67018793D01*
X64684818Y-66862563D01*
X64787067Y-66713299D01*
X64858239Y-66632515D01*
X65009000Y-66501816D01*
X65177642Y-66407469D01*
X65359315Y-66350902D01*
X65549173Y-66333543D01*
X65742364Y-66356822D01*
X65770704Y-66363743D01*
X65967857Y-66435154D01*
X66138607Y-66537863D01*
X66280638Y-66668359D01*
X66391635Y-66823129D01*
X66469281Y-66998660D01*
X66511262Y-67191439D01*
X66515261Y-67397953D01*
X66819333Y-67397953D01*
X66819333Y-65146000D01*
X66501833Y-65146000D01*
X66501833Y-66512041D01*
G36*
X63018754Y-66048256D02*
X62946819Y-66056471D01*
X62881599Y-66074949D01*
X62805329Y-66107425D01*
X62788743Y-66115194D01*
X62719382Y-66151812D01*
X62641569Y-66198875D01*
X62563955Y-66250337D01*
X62495191Y-66300155D01*
X62443929Y-66342283D01*
X62418821Y-66370677D01*
X62417668Y-66374462D01*
X62431118Y-66393860D01*
X62467407Y-66434031D01*
X62518816Y-66486451D01*
X62521264Y-66488865D01*
X62625861Y-66591890D01*
X62705088Y-66522327D01*
X62816684Y-66443305D01*
X62940790Y-66387043D01*
X63067716Y-66355788D01*
X63187773Y-66351785D01*
X63291271Y-66377279D01*
X63304197Y-66383490D01*
X63384495Y-66443279D01*
X63449263Y-66525249D01*
X63486220Y-66613566D01*
X63487480Y-66619748D01*
X63491958Y-66710358D01*
X63468476Y-66796398D01*
X63414498Y-66880845D01*
X63327488Y-66966677D01*
X63204910Y-67056872D01*
X63044228Y-67154408D01*
X63021064Y-67167417D01*
X62849309Y-67268854D01*
X62713547Y-67362466D01*
X62609084Y-67452109D01*
X62531224Y-67541641D01*
X62492808Y-67601333D01*
X62461666Y-67660059D01*
X62442316Y-67710358D01*
X62431995Y-67765631D01*
X62427941Y-67839279D01*
X62427352Y-67918833D01*
X62428845Y-68019131D01*
X62434834Y-68090511D01*
X62447767Y-68146337D01*
X62470091Y-68199975D01*
X62483725Y-68226716D01*
X62573242Y-68359522D01*
X62688789Y-68474917D01*
X62818468Y-68561373D01*
X62840000Y-68571874D01*
X62968262Y-68613370D01*
X63117250Y-68633422D01*
X63270769Y-68631298D01*
X63412624Y-68606265D01*
X63436949Y-68598850D01*
X63620584Y-68519776D01*
X63772218Y-68413964D01*
X63819130Y-68369294D01*
X63898677Y-68287113D01*
X63797954Y-68174655D01*
X63697230Y-68062198D01*
X63612573Y-68140459D01*
X63477019Y-68241847D01*
X63333261Y-68304511D01*
X63185218Y-68327146D01*
X63078993Y-68318080D01*
X62954539Y-68275967D01*
X62852618Y-68203713D01*
X62778505Y-68107368D01*
X62737473Y-67992980D01*
X62730922Y-67918956D01*
X62736877Y-67840228D01*
X62756281Y-67771716D01*
X62793425Y-67708891D01*
X62852600Y-67647220D01*
X62938099Y-67582173D01*
X63054211Y-67509220D01*
X63194089Y-67429945D01*
X63375999Y-67322246D01*
X63519658Y-67218698D01*
X63628333Y-67115184D01*
X63705290Y-67007587D01*
X63753796Y-66891789D01*
X63777119Y-66763674D01*
X63780377Y-66691044D01*
X63777769Y-66594911D01*
X63765847Y-66521250D01*
X63740573Y-66450530D01*
X63722800Y-66412480D01*
X63633762Y-66276519D01*
X63514329Y-66163742D01*
X63392924Y-66091579D01*
X63322510Y-66066073D01*
X63242133Y-66051917D01*
X63137115Y-66046732D01*
X63115167Y-66046570D01*
X63018754Y-66048256D01*
X63018754Y-66048256D01*
G37*
X63018754Y-66048256D02*
X62946819Y-66056471D01*
X62881599Y-66074949D01*
X62805329Y-66107425D01*
X62788743Y-66115194D01*
X62719382Y-66151812D01*
X62641569Y-66198875D01*
X62563955Y-66250337D01*
X62495191Y-66300155D01*
X62443929Y-66342283D01*
X62418821Y-66370677D01*
X62417668Y-66374462D01*
X62431118Y-66393860D01*
X62467407Y-66434031D01*
X62518816Y-66486451D01*
X62521264Y-66488865D01*
X62625861Y-66591890D01*
X62705088Y-66522327D01*
X62816684Y-66443305D01*
X62940790Y-66387043D01*
X63067716Y-66355788D01*
X63187773Y-66351785D01*
X63291271Y-66377279D01*
X63304197Y-66383490D01*
X63384495Y-66443279D01*
X63449263Y-66525249D01*
X63486220Y-66613566D01*
X63487480Y-66619748D01*
X63491958Y-66710358D01*
X63468476Y-66796398D01*
X63414498Y-66880845D01*
X63327488Y-66966677D01*
X63204910Y-67056872D01*
X63044228Y-67154408D01*
X63021064Y-67167417D01*
X62849309Y-67268854D01*
X62713547Y-67362466D01*
X62609084Y-67452109D01*
X62531224Y-67541641D01*
X62492808Y-67601333D01*
X62461666Y-67660059D01*
X62442316Y-67710358D01*
X62431995Y-67765631D01*
X62427941Y-67839279D01*
X62427352Y-67918833D01*
X62428845Y-68019131D01*
X62434834Y-68090511D01*
X62447767Y-68146337D01*
X62470091Y-68199975D01*
X62483725Y-68226716D01*
X62573242Y-68359522D01*
X62688789Y-68474917D01*
X62818468Y-68561373D01*
X62840000Y-68571874D01*
X62968262Y-68613370D01*
X63117250Y-68633422D01*
X63270769Y-68631298D01*
X63412624Y-68606265D01*
X63436949Y-68598850D01*
X63620584Y-68519776D01*
X63772218Y-68413964D01*
X63819130Y-68369294D01*
X63898677Y-68287113D01*
X63797954Y-68174655D01*
X63697230Y-68062198D01*
X63612573Y-68140459D01*
X63477019Y-68241847D01*
X63333261Y-68304511D01*
X63185218Y-68327146D01*
X63078993Y-68318080D01*
X62954539Y-68275967D01*
X62852618Y-68203713D01*
X62778505Y-68107368D01*
X62737473Y-67992980D01*
X62730922Y-67918956D01*
X62736877Y-67840228D01*
X62756281Y-67771716D01*
X62793425Y-67708891D01*
X62852600Y-67647220D01*
X62938099Y-67582173D01*
X63054211Y-67509220D01*
X63194089Y-67429945D01*
X63375999Y-67322246D01*
X63519658Y-67218698D01*
X63628333Y-67115184D01*
X63705290Y-67007587D01*
X63753796Y-66891789D01*
X63777119Y-66763674D01*
X63780377Y-66691044D01*
X63777769Y-66594911D01*
X63765847Y-66521250D01*
X63740573Y-66450530D01*
X63722800Y-66412480D01*
X63633762Y-66276519D01*
X63514329Y-66163742D01*
X63392924Y-66091579D01*
X63322510Y-66066073D01*
X63242133Y-66051917D01*
X63137115Y-66046732D01*
X63115167Y-66046570D01*
X63018754Y-66048256D01*
G36*
X79152262Y-66101847D02*
X79111350Y-66104962D01*
X79106558Y-66106164D01*
X79086626Y-66125832D01*
X79047023Y-66174315D01*
X78992299Y-66245710D01*
X78927005Y-66334114D01*
X78873354Y-66408702D01*
X78793612Y-66520482D01*
X78712337Y-66633869D01*
X78636965Y-66738522D01*
X78574933Y-66824104D01*
X78551383Y-66856322D01*
X78437884Y-67010894D01*
X78129871Y-66581155D01*
X78043994Y-66461689D01*
X77965237Y-66352786D01*
X77897267Y-66259467D01*
X77843753Y-66186751D01*
X77808364Y-66139657D01*
X77795837Y-66124081D01*
X77763916Y-66109480D01*
X77700269Y-66102435D01*
X77600128Y-66102466D01*
X77585679Y-66102914D01*
X77401542Y-66109083D01*
X77553934Y-66320750D01*
X77614861Y-66405332D01*
X77693742Y-66514776D01*
X77783754Y-66639619D01*
X77878075Y-66770396D01*
X77969880Y-66897646D01*
X77975316Y-66905180D01*
X78244307Y-67277943D01*
X77832529Y-67836513D01*
X77730055Y-67975655D01*
X77632957Y-68107757D01*
X77544809Y-68227937D01*
X77469182Y-68331316D01*
X77409650Y-68413013D01*
X77369785Y-68468149D01*
X77357775Y-68485042D01*
X77294800Y-68575000D01*
X77491608Y-68574387D01*
X77688417Y-68573775D01*
X78057744Y-68066024D01*
X78151333Y-67938225D01*
X78237221Y-67822597D01*
X78312212Y-67723313D01*
X78373112Y-67644542D01*
X78416724Y-67590455D01*
X78439854Y-67565223D01*
X78442421Y-67563928D01*
X78458256Y-67581915D01*
X78495486Y-67629980D01*
X78550877Y-67703771D01*
X78621197Y-67798935D01*
X78703210Y-67911117D01*
X78793685Y-68035966D01*
X78816061Y-68067000D01*
X79174352Y-68564417D01*
X79369764Y-68570526D01*
X79470341Y-68571739D01*
X79530585Y-68567693D01*
X79552184Y-68558234D01*
X79551275Y-68554143D01*
X79536056Y-68532359D01*
X79498868Y-68480273D01*
X79442575Y-68401865D01*
X79370044Y-68301115D01*
X79284139Y-68182003D01*
X79187727Y-68048509D01*
X79084159Y-67905288D01*
X78630945Y-67278926D01*
X78670716Y-67223171D01*
X78692846Y-67192393D01*
X78736381Y-67132058D01*
X78797902Y-67046897D01*
X78873988Y-66941643D01*
X78961218Y-66821028D01*
X79056174Y-66689784D01*
X79093469Y-66638250D01*
X79476451Y-66109083D01*
X79303870Y-66102879D01*
X79220398Y-66101087D01*
X79152262Y-66101847D01*
X79152262Y-66101847D01*
G37*
X79152262Y-66101847D02*
X79111350Y-66104962D01*
X79106558Y-66106164D01*
X79086626Y-66125832D01*
X79047023Y-66174315D01*
X78992299Y-66245710D01*
X78927005Y-66334114D01*
X78873354Y-66408702D01*
X78793612Y-66520482D01*
X78712337Y-66633869D01*
X78636965Y-66738522D01*
X78574933Y-66824104D01*
X78551383Y-66856322D01*
X78437884Y-67010894D01*
X78129871Y-66581155D01*
X78043994Y-66461689D01*
X77965237Y-66352786D01*
X77897267Y-66259467D01*
X77843753Y-66186751D01*
X77808364Y-66139657D01*
X77795837Y-66124081D01*
X77763916Y-66109480D01*
X77700269Y-66102435D01*
X77600128Y-66102466D01*
X77585679Y-66102914D01*
X77401542Y-66109083D01*
X77553934Y-66320750D01*
X77614861Y-66405332D01*
X77693742Y-66514776D01*
X77783754Y-66639619D01*
X77878075Y-66770396D01*
X77969880Y-66897646D01*
X77975316Y-66905180D01*
X78244307Y-67277943D01*
X77832529Y-67836513D01*
X77730055Y-67975655D01*
X77632957Y-68107757D01*
X77544809Y-68227937D01*
X77469182Y-68331316D01*
X77409650Y-68413013D01*
X77369785Y-68468149D01*
X77357775Y-68485042D01*
X77294800Y-68575000D01*
X77491608Y-68574387D01*
X77688417Y-68573775D01*
X78057744Y-68066024D01*
X78151333Y-67938225D01*
X78237221Y-67822597D01*
X78312212Y-67723313D01*
X78373112Y-67644542D01*
X78416724Y-67590455D01*
X78439854Y-67565223D01*
X78442421Y-67563928D01*
X78458256Y-67581915D01*
X78495486Y-67629980D01*
X78550877Y-67703771D01*
X78621197Y-67798935D01*
X78703210Y-67911117D01*
X78793685Y-68035966D01*
X78816061Y-68067000D01*
X79174352Y-68564417D01*
X79369764Y-68570526D01*
X79470341Y-68571739D01*
X79530585Y-68567693D01*
X79552184Y-68558234D01*
X79551275Y-68554143D01*
X79536056Y-68532359D01*
X79498868Y-68480273D01*
X79442575Y-68401865D01*
X79370044Y-68301115D01*
X79284139Y-68182003D01*
X79187727Y-68048509D01*
X79084159Y-67905288D01*
X78630945Y-67278926D01*
X78670716Y-67223171D01*
X78692846Y-67192393D01*
X78736381Y-67132058D01*
X78797902Y-67046897D01*
X78873988Y-66941643D01*
X78961218Y-66821028D01*
X79056174Y-66689784D01*
X79093469Y-66638250D01*
X79476451Y-66109083D01*
X79303870Y-66102879D01*
X79220398Y-66101087D01*
X79152262Y-66101847D01*
G36*
X73169333Y-66098500D02*
X72661333Y-66098500D01*
X72661333Y-66373667D01*
X73169333Y-66373667D01*
X73169333Y-68575000D01*
X73508000Y-68575000D01*
X73508000Y-66373667D01*
X73931333Y-66373667D01*
X73931333Y-66098500D01*
X73508000Y-66098500D01*
X73508000Y-65188333D01*
X73169333Y-65188333D01*
X73169333Y-66098500D01*
X73169333Y-66098500D01*
G37*
X73169333Y-66098500D02*
X72661333Y-66098500D01*
X72661333Y-66373667D01*
X73169333Y-66373667D01*
X73169333Y-68575000D01*
X73508000Y-68575000D01*
X73508000Y-66373667D01*
X73931333Y-66373667D01*
X73931333Y-66098500D01*
X73508000Y-66098500D01*
X73508000Y-65188333D01*
X73169333Y-65188333D01*
X73169333Y-66098500D01*
G36*
X71788350Y-66738792D02*
X71782917Y-68246917D01*
X70502333Y-68258121D01*
X70502333Y-68575000D01*
X72132167Y-68575000D01*
X72132167Y-65230667D01*
X71962975Y-65230667D01*
X71793782Y-65230666D01*
X71788350Y-66738792D01*
X71788350Y-66738792D01*
G37*
X71788350Y-66738792D02*
X71782917Y-68246917D01*
X70502333Y-68258121D01*
X70502333Y-68575000D01*
X72132167Y-68575000D01*
X72132167Y-65230667D01*
X71962975Y-65230667D01*
X71793782Y-65230666D01*
X71788350Y-66738792D01*
G04 #@! TD*
M02*
