G04 #@! TF.GenerationSoftware,KiCad,Pcbnew,(6.0.0-rc1-dev-557-ge985f797c)*
G04 #@! TF.CreationDate,2018-10-28T11:13:31+01:00*
G04 #@! TF.ProjectId,GIRA ESP8266 Jalousiesteuerung,474952412045535038323636204A616C,1.0*
G04 #@! TF.SameCoordinates,Original*
G04 #@! TF.FileFunction,Copper,L2,Bot,Signal*
G04 #@! TF.FilePolarity,Positive*
%FSLAX46Y46*%
G04 Gerber Fmt 4.6, Leading zero omitted, Abs format (unit mm)*
G04 Created by KiCad (PCBNEW (6.0.0-rc1-dev-557-ge985f797c)) date 10/28/18 11:13:31*
%MOMM*%
%LPD*%
G01*
G04 APERTURE LIST*
G04 #@! TA.AperFunction,SMDPad,CuDef*
%ADD10C,1.000000*%
G04 #@! TD*
G04 #@! TA.AperFunction,Conductor*
%ADD11C,0.100000*%
G04 #@! TD*
G04 #@! TA.AperFunction,ComponentPad*
%ADD12C,2.100000*%
G04 #@! TD*
G04 #@! TA.AperFunction,ViaPad*
%ADD13C,0.800000*%
G04 #@! TD*
G04 #@! TA.AperFunction,Conductor*
%ADD14C,0.500000*%
G04 #@! TD*
G04 #@! TA.AperFunction,Conductor*
%ADD15C,0.750000*%
G04 #@! TD*
G04 #@! TA.AperFunction,Conductor*
%ADD16C,0.254000*%
G04 #@! TD*
G04 APERTURE END LIST*
D10*
G04 #@! TO.P,S1,2*
G04 #@! TO.N,GND*
X53600000Y-56100000D03*
D11*
G04 #@! TD*
G04 #@! TO.N,GND*
G04 #@! TO.C,S1*
G36*
X56337829Y-53009136D02*
X56638309Y-53047096D01*
X56933651Y-53114196D01*
X57221036Y-53209796D01*
X57497720Y-53332984D01*
X57761063Y-53482583D01*
X58008551Y-53657167D01*
X58237821Y-53855067D01*
X58446685Y-54074396D01*
X58633149Y-54313060D01*
X58795434Y-54568780D01*
X58931991Y-54839116D01*
X59041516Y-55121488D01*
X59122963Y-55413200D01*
X59175556Y-55711467D01*
X59198791Y-56013443D01*
X59200000Y-56100000D01*
X59185205Y-56402507D01*
X59140961Y-56702126D01*
X59067690Y-56995999D01*
X58966093Y-57281318D01*
X58837138Y-57555362D01*
X58682056Y-57815514D01*
X58502328Y-58059291D01*
X58299669Y-58284366D01*
X58076014Y-58488591D01*
X57833498Y-58670016D01*
X57574435Y-58826911D01*
X57301298Y-58957776D01*
X57016695Y-59061363D01*
X56723342Y-59136683D01*
X56424038Y-59183018D01*
X56121642Y-59199924D01*
X55819039Y-59187242D01*
X55519118Y-59145090D01*
X55224741Y-59073873D01*
X54938720Y-58974270D01*
X54663782Y-58847231D01*
X54402554Y-58693969D01*
X54157528Y-58515948D01*
X53931044Y-58314865D01*
X53725262Y-58092642D01*
X53542148Y-57851398D01*
X53383449Y-57593436D01*
X53250680Y-57321220D01*
X53145109Y-57037347D01*
X53067742Y-56744526D01*
X53019319Y-56445554D01*
X53000302Y-56143283D01*
X53002739Y-56073472D01*
X54200185Y-56073472D01*
X54206664Y-56258988D01*
X54231214Y-56442986D01*
X54273603Y-56623711D01*
X54333425Y-56799437D01*
X54410109Y-56968486D01*
X54502923Y-57129246D01*
X54610982Y-57280181D01*
X54733254Y-57419851D01*
X54868572Y-57546923D01*
X55015644Y-57660183D01*
X55173067Y-57758552D01*
X55339337Y-57841089D01*
X55512868Y-57907007D01*
X55692003Y-57955677D01*
X55875032Y-57986634D01*
X56060209Y-57999583D01*
X56245766Y-57994400D01*
X56429932Y-57971135D01*
X56610948Y-57930009D01*
X56787087Y-57871415D01*
X56956667Y-57795913D01*
X57118071Y-57704223D01*
X57269757Y-57597220D01*
X57410277Y-57475927D01*
X57538291Y-57341499D01*
X57652575Y-57195221D01*
X57752040Y-57038490D01*
X57835736Y-56872800D01*
X57902864Y-56699733D01*
X57952784Y-56520942D01*
X57985018Y-56338133D01*
X57999259Y-56153051D01*
X58000000Y-56100000D01*
X57990932Y-55914592D01*
X57963815Y-55730955D01*
X57918907Y-55550840D01*
X57856637Y-55375966D01*
X57777600Y-55208004D01*
X57682550Y-55048556D01*
X57572395Y-54899144D01*
X57448184Y-54761195D01*
X57311106Y-54636025D01*
X57162467Y-54524829D01*
X57003686Y-54428668D01*
X56836280Y-54348460D01*
X56661845Y-54284971D01*
X56482048Y-54238807D01*
X56298604Y-54210408D01*
X56113264Y-54200046D01*
X55927798Y-54207820D01*
X55743976Y-54233654D01*
X55563551Y-54277303D01*
X55388247Y-54338351D01*
X55219738Y-54416213D01*
X55059630Y-54510148D01*
X54909453Y-54619258D01*
X54770640Y-54742502D01*
X54644516Y-54878704D01*
X54532284Y-55026563D01*
X54435017Y-55184668D01*
X54353643Y-55351510D01*
X54288938Y-55525497D01*
X54241520Y-55704968D01*
X54211841Y-55888209D01*
X54200185Y-56073472D01*
X53002739Y-56073472D01*
X53010872Y-55840599D01*
X53050928Y-55540391D01*
X53120089Y-55245524D01*
X53217693Y-54958814D01*
X53342809Y-54682996D01*
X53494244Y-54420705D01*
X53670550Y-54174442D01*
X53870047Y-53946559D01*
X54090828Y-53739231D01*
X54330788Y-53554437D01*
X54587635Y-53393942D01*
X54858918Y-53259276D01*
X55142047Y-53151725D01*
X55434320Y-53072316D01*
X55732948Y-53021807D01*
X56035078Y-53000680D01*
X56337829Y-53009136D01*
X56337829Y-53009136D01*
G37*
D12*
G04 #@! TO.P,S1,1*
G04 #@! TO.N,Net-(S1-Pad1)*
X56100000Y-56100000D03*
G04 #@! TD*
D10*
G04 #@! TO.P,S2,2*
G04 #@! TO.N,GND*
X87400000Y-56100000D03*
D11*
G04 #@! TD*
G04 #@! TO.N,GND*
G04 #@! TO.C,S2*
G36*
X90137829Y-53009136D02*
X90438309Y-53047096D01*
X90733651Y-53114196D01*
X91021036Y-53209796D01*
X91297720Y-53332984D01*
X91561063Y-53482583D01*
X91808551Y-53657167D01*
X92037821Y-53855067D01*
X92246685Y-54074396D01*
X92433149Y-54313060D01*
X92595434Y-54568780D01*
X92731991Y-54839116D01*
X92841516Y-55121488D01*
X92922963Y-55413200D01*
X92975556Y-55711467D01*
X92998791Y-56013443D01*
X93000000Y-56100000D01*
X92985205Y-56402507D01*
X92940961Y-56702126D01*
X92867690Y-56995999D01*
X92766093Y-57281318D01*
X92637138Y-57555362D01*
X92482056Y-57815514D01*
X92302328Y-58059291D01*
X92099669Y-58284366D01*
X91876014Y-58488591D01*
X91633498Y-58670016D01*
X91374435Y-58826911D01*
X91101298Y-58957776D01*
X90816695Y-59061363D01*
X90523342Y-59136683D01*
X90224038Y-59183018D01*
X89921642Y-59199924D01*
X89619039Y-59187242D01*
X89319118Y-59145090D01*
X89024741Y-59073873D01*
X88738720Y-58974270D01*
X88463782Y-58847231D01*
X88202554Y-58693969D01*
X87957528Y-58515948D01*
X87731044Y-58314865D01*
X87525262Y-58092642D01*
X87342148Y-57851398D01*
X87183449Y-57593436D01*
X87050680Y-57321220D01*
X86945109Y-57037347D01*
X86867742Y-56744526D01*
X86819319Y-56445554D01*
X86800302Y-56143283D01*
X86802739Y-56073472D01*
X88000185Y-56073472D01*
X88006664Y-56258988D01*
X88031214Y-56442986D01*
X88073603Y-56623711D01*
X88133425Y-56799437D01*
X88210109Y-56968486D01*
X88302923Y-57129246D01*
X88410982Y-57280181D01*
X88533254Y-57419851D01*
X88668572Y-57546923D01*
X88815644Y-57660183D01*
X88973067Y-57758552D01*
X89139337Y-57841089D01*
X89312868Y-57907007D01*
X89492003Y-57955677D01*
X89675032Y-57986634D01*
X89860209Y-57999583D01*
X90045766Y-57994400D01*
X90229932Y-57971135D01*
X90410948Y-57930009D01*
X90587087Y-57871415D01*
X90756667Y-57795913D01*
X90918071Y-57704223D01*
X91069757Y-57597220D01*
X91210277Y-57475927D01*
X91338291Y-57341499D01*
X91452575Y-57195221D01*
X91552040Y-57038490D01*
X91635736Y-56872800D01*
X91702864Y-56699733D01*
X91752784Y-56520942D01*
X91785018Y-56338133D01*
X91799259Y-56153051D01*
X91800000Y-56100000D01*
X91790932Y-55914592D01*
X91763815Y-55730955D01*
X91718907Y-55550840D01*
X91656637Y-55375966D01*
X91577600Y-55208004D01*
X91482550Y-55048556D01*
X91372395Y-54899144D01*
X91248184Y-54761195D01*
X91111106Y-54636025D01*
X90962467Y-54524829D01*
X90803686Y-54428668D01*
X90636280Y-54348460D01*
X90461845Y-54284971D01*
X90282048Y-54238807D01*
X90098604Y-54210408D01*
X89913264Y-54200046D01*
X89727798Y-54207820D01*
X89543976Y-54233654D01*
X89363551Y-54277303D01*
X89188247Y-54338351D01*
X89019738Y-54416213D01*
X88859630Y-54510148D01*
X88709453Y-54619258D01*
X88570640Y-54742502D01*
X88444516Y-54878704D01*
X88332284Y-55026563D01*
X88235017Y-55184668D01*
X88153643Y-55351510D01*
X88088938Y-55525497D01*
X88041520Y-55704968D01*
X88011841Y-55888209D01*
X88000185Y-56073472D01*
X86802739Y-56073472D01*
X86810872Y-55840599D01*
X86850928Y-55540391D01*
X86920089Y-55245524D01*
X87017693Y-54958814D01*
X87142809Y-54682996D01*
X87294244Y-54420705D01*
X87470550Y-54174442D01*
X87670047Y-53946559D01*
X87890828Y-53739231D01*
X88130788Y-53554437D01*
X88387635Y-53393942D01*
X88658918Y-53259276D01*
X88942047Y-53151725D01*
X89234320Y-53072316D01*
X89532948Y-53021807D01*
X89835078Y-53000680D01*
X90137829Y-53009136D01*
X90137829Y-53009136D01*
G37*
D12*
G04 #@! TO.P,S2,1*
G04 #@! TO.N,Net-(S1-Pad1)*
X89900000Y-56100000D03*
G04 #@! TD*
D10*
G04 #@! TO.P,S3,2*
G04 #@! TO.N,GND*
X53600000Y-89900000D03*
D11*
G04 #@! TD*
G04 #@! TO.N,GND*
G04 #@! TO.C,S3*
G36*
X56337829Y-86809136D02*
X56638309Y-86847096D01*
X56933651Y-86914196D01*
X57221036Y-87009796D01*
X57497720Y-87132984D01*
X57761063Y-87282583D01*
X58008551Y-87457167D01*
X58237821Y-87655067D01*
X58446685Y-87874396D01*
X58633149Y-88113060D01*
X58795434Y-88368780D01*
X58931991Y-88639116D01*
X59041516Y-88921488D01*
X59122963Y-89213200D01*
X59175556Y-89511467D01*
X59198791Y-89813443D01*
X59200000Y-89900000D01*
X59185205Y-90202507D01*
X59140961Y-90502126D01*
X59067690Y-90795999D01*
X58966093Y-91081318D01*
X58837138Y-91355362D01*
X58682056Y-91615514D01*
X58502328Y-91859291D01*
X58299669Y-92084366D01*
X58076014Y-92288591D01*
X57833498Y-92470016D01*
X57574435Y-92626911D01*
X57301298Y-92757776D01*
X57016695Y-92861363D01*
X56723342Y-92936683D01*
X56424038Y-92983018D01*
X56121642Y-92999924D01*
X55819039Y-92987242D01*
X55519118Y-92945090D01*
X55224741Y-92873873D01*
X54938720Y-92774270D01*
X54663782Y-92647231D01*
X54402554Y-92493969D01*
X54157528Y-92315948D01*
X53931044Y-92114865D01*
X53725262Y-91892642D01*
X53542148Y-91651398D01*
X53383449Y-91393436D01*
X53250680Y-91121220D01*
X53145109Y-90837347D01*
X53067742Y-90544526D01*
X53019319Y-90245554D01*
X53000302Y-89943283D01*
X53002739Y-89873472D01*
X54200185Y-89873472D01*
X54206664Y-90058988D01*
X54231214Y-90242986D01*
X54273603Y-90423711D01*
X54333425Y-90599437D01*
X54410109Y-90768486D01*
X54502923Y-90929246D01*
X54610982Y-91080181D01*
X54733254Y-91219851D01*
X54868572Y-91346923D01*
X55015644Y-91460183D01*
X55173067Y-91558552D01*
X55339337Y-91641089D01*
X55512868Y-91707007D01*
X55692003Y-91755677D01*
X55875032Y-91786634D01*
X56060209Y-91799583D01*
X56245766Y-91794400D01*
X56429932Y-91771135D01*
X56610948Y-91730009D01*
X56787087Y-91671415D01*
X56956667Y-91595913D01*
X57118071Y-91504223D01*
X57269757Y-91397220D01*
X57410277Y-91275927D01*
X57538291Y-91141499D01*
X57652575Y-90995221D01*
X57752040Y-90838490D01*
X57835736Y-90672800D01*
X57902864Y-90499733D01*
X57952784Y-90320942D01*
X57985018Y-90138133D01*
X57999259Y-89953051D01*
X58000000Y-89900000D01*
X57990932Y-89714592D01*
X57963815Y-89530955D01*
X57918907Y-89350840D01*
X57856637Y-89175966D01*
X57777600Y-89008004D01*
X57682550Y-88848556D01*
X57572395Y-88699144D01*
X57448184Y-88561195D01*
X57311106Y-88436025D01*
X57162467Y-88324829D01*
X57003686Y-88228668D01*
X56836280Y-88148460D01*
X56661845Y-88084971D01*
X56482048Y-88038807D01*
X56298604Y-88010408D01*
X56113264Y-88000046D01*
X55927798Y-88007820D01*
X55743976Y-88033654D01*
X55563551Y-88077303D01*
X55388247Y-88138351D01*
X55219738Y-88216213D01*
X55059630Y-88310148D01*
X54909453Y-88419258D01*
X54770640Y-88542502D01*
X54644516Y-88678704D01*
X54532284Y-88826563D01*
X54435017Y-88984668D01*
X54353643Y-89151510D01*
X54288938Y-89325497D01*
X54241520Y-89504968D01*
X54211841Y-89688209D01*
X54200185Y-89873472D01*
X53002739Y-89873472D01*
X53010872Y-89640599D01*
X53050928Y-89340391D01*
X53120089Y-89045524D01*
X53217693Y-88758814D01*
X53342809Y-88482996D01*
X53494244Y-88220705D01*
X53670550Y-87974442D01*
X53870047Y-87746559D01*
X54090828Y-87539231D01*
X54330788Y-87354437D01*
X54587635Y-87193942D01*
X54858918Y-87059276D01*
X55142047Y-86951725D01*
X55434320Y-86872316D01*
X55732948Y-86821807D01*
X56035078Y-86800680D01*
X56337829Y-86809136D01*
X56337829Y-86809136D01*
G37*
D12*
G04 #@! TO.P,S3,1*
G04 #@! TO.N,Net-(S3-Pad1)*
X56100000Y-89900000D03*
G04 #@! TD*
D10*
G04 #@! TO.P,S4,2*
G04 #@! TO.N,GND*
X87400000Y-89900000D03*
D11*
G04 #@! TD*
G04 #@! TO.N,GND*
G04 #@! TO.C,S4*
G36*
X90137829Y-86809136D02*
X90438309Y-86847096D01*
X90733651Y-86914196D01*
X91021036Y-87009796D01*
X91297720Y-87132984D01*
X91561063Y-87282583D01*
X91808551Y-87457167D01*
X92037821Y-87655067D01*
X92246685Y-87874396D01*
X92433149Y-88113060D01*
X92595434Y-88368780D01*
X92731991Y-88639116D01*
X92841516Y-88921488D01*
X92922963Y-89213200D01*
X92975556Y-89511467D01*
X92998791Y-89813443D01*
X93000000Y-89900000D01*
X92985205Y-90202507D01*
X92940961Y-90502126D01*
X92867690Y-90795999D01*
X92766093Y-91081318D01*
X92637138Y-91355362D01*
X92482056Y-91615514D01*
X92302328Y-91859291D01*
X92099669Y-92084366D01*
X91876014Y-92288591D01*
X91633498Y-92470016D01*
X91374435Y-92626911D01*
X91101298Y-92757776D01*
X90816695Y-92861363D01*
X90523342Y-92936683D01*
X90224038Y-92983018D01*
X89921642Y-92999924D01*
X89619039Y-92987242D01*
X89319118Y-92945090D01*
X89024741Y-92873873D01*
X88738720Y-92774270D01*
X88463782Y-92647231D01*
X88202554Y-92493969D01*
X87957528Y-92315948D01*
X87731044Y-92114865D01*
X87525262Y-91892642D01*
X87342148Y-91651398D01*
X87183449Y-91393436D01*
X87050680Y-91121220D01*
X86945109Y-90837347D01*
X86867742Y-90544526D01*
X86819319Y-90245554D01*
X86800302Y-89943283D01*
X86802739Y-89873472D01*
X88000185Y-89873472D01*
X88006664Y-90058988D01*
X88031214Y-90242986D01*
X88073603Y-90423711D01*
X88133425Y-90599437D01*
X88210109Y-90768486D01*
X88302923Y-90929246D01*
X88410982Y-91080181D01*
X88533254Y-91219851D01*
X88668572Y-91346923D01*
X88815644Y-91460183D01*
X88973067Y-91558552D01*
X89139337Y-91641089D01*
X89312868Y-91707007D01*
X89492003Y-91755677D01*
X89675032Y-91786634D01*
X89860209Y-91799583D01*
X90045766Y-91794400D01*
X90229932Y-91771135D01*
X90410948Y-91730009D01*
X90587087Y-91671415D01*
X90756667Y-91595913D01*
X90918071Y-91504223D01*
X91069757Y-91397220D01*
X91210277Y-91275927D01*
X91338291Y-91141499D01*
X91452575Y-90995221D01*
X91552040Y-90838490D01*
X91635736Y-90672800D01*
X91702864Y-90499733D01*
X91752784Y-90320942D01*
X91785018Y-90138133D01*
X91799259Y-89953051D01*
X91800000Y-89900000D01*
X91790932Y-89714592D01*
X91763815Y-89530955D01*
X91718907Y-89350840D01*
X91656637Y-89175966D01*
X91577600Y-89008004D01*
X91482550Y-88848556D01*
X91372395Y-88699144D01*
X91248184Y-88561195D01*
X91111106Y-88436025D01*
X90962467Y-88324829D01*
X90803686Y-88228668D01*
X90636280Y-88148460D01*
X90461845Y-88084971D01*
X90282048Y-88038807D01*
X90098604Y-88010408D01*
X89913264Y-88000046D01*
X89727798Y-88007820D01*
X89543976Y-88033654D01*
X89363551Y-88077303D01*
X89188247Y-88138351D01*
X89019738Y-88216213D01*
X88859630Y-88310148D01*
X88709453Y-88419258D01*
X88570640Y-88542502D01*
X88444516Y-88678704D01*
X88332284Y-88826563D01*
X88235017Y-88984668D01*
X88153643Y-89151510D01*
X88088938Y-89325497D01*
X88041520Y-89504968D01*
X88011841Y-89688209D01*
X88000185Y-89873472D01*
X86802739Y-89873472D01*
X86810872Y-89640599D01*
X86850928Y-89340391D01*
X86920089Y-89045524D01*
X87017693Y-88758814D01*
X87142809Y-88482996D01*
X87294244Y-88220705D01*
X87470550Y-87974442D01*
X87670047Y-87746559D01*
X87890828Y-87539231D01*
X88130788Y-87354437D01*
X88387635Y-87193942D01*
X88658918Y-87059276D01*
X88942047Y-86951725D01*
X89234320Y-86872316D01*
X89532948Y-86821807D01*
X89835078Y-86800680D01*
X90137829Y-86809136D01*
X90137829Y-86809136D01*
G37*
D12*
G04 #@! TO.P,S4,1*
G04 #@! TO.N,Net-(S3-Pad1)*
X89900000Y-89900000D03*
G04 #@! TD*
D13*
G04 #@! TO.N,GND*
X56000000Y-52000000D03*
X90000000Y-52000000D03*
X90000000Y-85600000D03*
X52500000Y-87500000D03*
X68000000Y-57000000D03*
X62500000Y-57500000D03*
G04 #@! TO.N,+3V3*
X76200000Y-77900000D03*
X77600000Y-72500000D03*
X56200000Y-60700000D03*
X75400000Y-80500000D03*
G04 #@! TO.N,Net-(S1-Pad1)*
X86000000Y-53800000D03*
X72600000Y-61900000D03*
X72400000Y-70100000D03*
X71100000Y-75100000D03*
X58300000Y-59700000D03*
G04 #@! TO.N,Net-(S3-Pad1)*
X60400000Y-89900000D03*
X65700000Y-74500000D03*
G04 #@! TD*
D14*
G04 #@! TO.N,GND*
X87400000Y-89900000D02*
X85200000Y-89900000D01*
X53600000Y-89900000D02*
X51700000Y-89900000D01*
X53600000Y-56100000D02*
X51900000Y-56100000D01*
X87400000Y-56100000D02*
X85700000Y-56100000D01*
G04 #@! TO.N,+3V3*
X76200000Y-77900000D02*
X76200000Y-73900000D01*
X76200000Y-73900000D02*
X77600000Y-72500000D01*
D15*
X77600000Y-71934315D02*
X77600000Y-72500000D01*
X77600000Y-69786810D02*
X77600000Y-71934315D01*
X68913189Y-61099999D02*
X77600000Y-69786810D01*
X56599999Y-61099999D02*
X68913189Y-61099999D01*
X56200000Y-60700000D02*
X56599999Y-61099999D01*
D14*
X76200000Y-79700000D02*
X75400000Y-80500000D01*
X76200000Y-77900000D02*
X76200000Y-79700000D01*
G04 #@! TO.N,Net-(S1-Pad1)*
X86000000Y-53800000D02*
X77900000Y-61900000D01*
X77900000Y-61900000D02*
X72600000Y-61900000D01*
X72400000Y-70100000D02*
X71100000Y-71400000D01*
X71100000Y-71400000D02*
X71100000Y-75100000D01*
X70400000Y-59700000D02*
X72600000Y-61900000D01*
X58300000Y-59700000D02*
X70400000Y-59700000D01*
G04 #@! TO.N,Net-(S3-Pad1)*
X60400000Y-89900000D02*
X60400000Y-79800000D01*
X60400000Y-79800000D02*
X65700000Y-74500000D01*
G04 #@! TD*
D16*
G04 #@! TO.N,GND*
G36*
X95340001Y-95340000D02*
X50660000Y-95340000D01*
X50660000Y-89889108D01*
X52355133Y-89889108D01*
X52356897Y-90015452D01*
X52424337Y-90616695D01*
X52450608Y-90740292D01*
X52633546Y-91316986D01*
X52683324Y-91433127D01*
X52974792Y-91963305D01*
X53046181Y-92067565D01*
X53435077Y-92531032D01*
X53525355Y-92619439D01*
X53996865Y-92998543D01*
X54102597Y-93067733D01*
X54638763Y-93348034D01*
X54755921Y-93395368D01*
X55336319Y-93566188D01*
X55460439Y-93589865D01*
X56062963Y-93644699D01*
X56189318Y-93643817D01*
X56791018Y-93580576D01*
X56914795Y-93555169D01*
X57492751Y-93376262D01*
X57609237Y-93327295D01*
X58141437Y-93039535D01*
X58246192Y-92968877D01*
X58712363Y-92583227D01*
X58801399Y-92493567D01*
X59183786Y-92024715D01*
X59253712Y-91919469D01*
X59537749Y-91385273D01*
X59585900Y-91268448D01*
X59752600Y-90716311D01*
X59813720Y-90777431D01*
X60194126Y-90935000D01*
X60605874Y-90935000D01*
X60986280Y-90777431D01*
X61277431Y-90486280D01*
X61435000Y-90105874D01*
X61435000Y-89889108D01*
X86155133Y-89889108D01*
X86156897Y-90015452D01*
X86224337Y-90616695D01*
X86250608Y-90740292D01*
X86433546Y-91316986D01*
X86483324Y-91433127D01*
X86774792Y-91963305D01*
X86846181Y-92067565D01*
X87235077Y-92531032D01*
X87325355Y-92619439D01*
X87796865Y-92998543D01*
X87902597Y-93067733D01*
X88438763Y-93348034D01*
X88555921Y-93395368D01*
X89136319Y-93566188D01*
X89260439Y-93589865D01*
X89862963Y-93644699D01*
X89989318Y-93643817D01*
X90591018Y-93580576D01*
X90714795Y-93555169D01*
X91292751Y-93376262D01*
X91409237Y-93327295D01*
X91941437Y-93039535D01*
X92046192Y-92968877D01*
X92512363Y-92583227D01*
X92601399Y-92493567D01*
X92983786Y-92024715D01*
X93053712Y-91919469D01*
X93337749Y-91385273D01*
X93385900Y-91268448D01*
X93560768Y-90689256D01*
X93585311Y-90565305D01*
X93644350Y-89963179D01*
X93647377Y-89890958D01*
X93646168Y-89804401D01*
X93641126Y-89732298D01*
X93565298Y-89132055D01*
X93537303Y-89008837D01*
X93346331Y-88434753D01*
X93294937Y-88319318D01*
X92996095Y-87793262D01*
X92923258Y-87690010D01*
X92527930Y-87232017D01*
X92436425Y-87144877D01*
X91959667Y-86772393D01*
X91852979Y-86704687D01*
X91312952Y-86431900D01*
X91195145Y-86386206D01*
X90612418Y-86223506D01*
X90487980Y-86201564D01*
X89884749Y-86155148D01*
X89758419Y-86157794D01*
X89157661Y-86229430D01*
X89034249Y-86256564D01*
X88458847Y-86443524D01*
X88343059Y-86494111D01*
X87814929Y-86789272D01*
X87711169Y-86861387D01*
X87250428Y-87253509D01*
X87162652Y-87344403D01*
X86786849Y-87818549D01*
X86718400Y-87924761D01*
X86441849Y-88462870D01*
X86395334Y-88580355D01*
X86228569Y-89161932D01*
X86205759Y-89286215D01*
X86160995Y-89819296D01*
X86160995Y-89819297D01*
X86155133Y-89889108D01*
X61435000Y-89889108D01*
X61435000Y-89694126D01*
X61285000Y-89331993D01*
X61285000Y-80166578D01*
X65924148Y-75527431D01*
X66286280Y-75377431D01*
X66577431Y-75086280D01*
X66657023Y-74894126D01*
X70065000Y-74894126D01*
X70065000Y-75305874D01*
X70222569Y-75686280D01*
X70513720Y-75977431D01*
X70894126Y-76135000D01*
X71305874Y-76135000D01*
X71686280Y-75977431D01*
X71977431Y-75686280D01*
X72135000Y-75305874D01*
X72135000Y-74894126D01*
X71985000Y-74531993D01*
X71985000Y-71766578D01*
X72624148Y-71127431D01*
X72986280Y-70977431D01*
X73277431Y-70686280D01*
X73435000Y-70305874D01*
X73435000Y-69894126D01*
X73277431Y-69513720D01*
X72986280Y-69222569D01*
X72605874Y-69065000D01*
X72194126Y-69065000D01*
X71813720Y-69222569D01*
X71522569Y-69513720D01*
X71372569Y-69875852D01*
X70535847Y-70712575D01*
X70461951Y-70761951D01*
X70266348Y-71054691D01*
X70215000Y-71312836D01*
X70215000Y-71312839D01*
X70197663Y-71400000D01*
X70215000Y-71487161D01*
X70215001Y-74531991D01*
X70065000Y-74894126D01*
X66657023Y-74894126D01*
X66735000Y-74705874D01*
X66735000Y-74294126D01*
X66577431Y-73913720D01*
X66286280Y-73622569D01*
X65905874Y-73465000D01*
X65494126Y-73465000D01*
X65113720Y-73622569D01*
X64822569Y-73913720D01*
X64672569Y-74275852D01*
X59835845Y-79112577D01*
X59761952Y-79161951D01*
X59712578Y-79235844D01*
X59712576Y-79235846D01*
X59566348Y-79454691D01*
X59497663Y-79800000D01*
X59515001Y-79887165D01*
X59515000Y-88364381D01*
X59494937Y-88319318D01*
X59196095Y-87793262D01*
X59123258Y-87690010D01*
X58727930Y-87232017D01*
X58636425Y-87144877D01*
X58159667Y-86772393D01*
X58052979Y-86704687D01*
X57512952Y-86431900D01*
X57395145Y-86386206D01*
X56812418Y-86223506D01*
X56687980Y-86201564D01*
X56084749Y-86155148D01*
X55958419Y-86157794D01*
X55357661Y-86229430D01*
X55234249Y-86256564D01*
X54658847Y-86443524D01*
X54543059Y-86494111D01*
X54014929Y-86789272D01*
X53911169Y-86861387D01*
X53450428Y-87253509D01*
X53362652Y-87344403D01*
X52986849Y-87818549D01*
X52918400Y-87924761D01*
X52641849Y-88462870D01*
X52595334Y-88580355D01*
X52428569Y-89161932D01*
X52405759Y-89286215D01*
X52360995Y-89819296D01*
X52360995Y-89819297D01*
X52355133Y-89889108D01*
X50660000Y-89889108D01*
X50660000Y-56089108D01*
X52355133Y-56089108D01*
X52356897Y-56215452D01*
X52424337Y-56816695D01*
X52450608Y-56940292D01*
X52633546Y-57516986D01*
X52683324Y-57633127D01*
X52974792Y-58163305D01*
X53046181Y-58267565D01*
X53435077Y-58731032D01*
X53525355Y-58819439D01*
X53996865Y-59198543D01*
X54102597Y-59267733D01*
X54638763Y-59548034D01*
X54755921Y-59595368D01*
X55336319Y-59766188D01*
X55460439Y-59789865D01*
X55650841Y-59807193D01*
X55613720Y-59822569D01*
X55322569Y-60113720D01*
X55165000Y-60494126D01*
X55165000Y-60905874D01*
X55322569Y-61286280D01*
X55613720Y-61577431D01*
X55674077Y-61602432D01*
X55815480Y-61743834D01*
X55871830Y-61828168D01*
X55938926Y-61873000D01*
X53000000Y-61873000D01*
X52951399Y-61882667D01*
X52910197Y-61910197D01*
X52882667Y-61951399D01*
X52873000Y-62000000D01*
X52873000Y-68000000D01*
X52882667Y-68048601D01*
X52910197Y-68089803D01*
X52951399Y-68117333D01*
X53000000Y-68127000D01*
X69000000Y-68127000D01*
X69048601Y-68117333D01*
X69089803Y-68089803D01*
X69117333Y-68048601D01*
X69127000Y-68000000D01*
X69127000Y-62742165D01*
X76590000Y-70205166D01*
X76590001Y-71834835D01*
X76590000Y-71834840D01*
X76590000Y-72233771D01*
X76572569Y-72275852D01*
X75635845Y-73212577D01*
X75561952Y-73261951D01*
X75512578Y-73335844D01*
X75512576Y-73335846D01*
X75366348Y-73554691D01*
X75297663Y-73900000D01*
X75315001Y-73987165D01*
X75315000Y-77331993D01*
X75165000Y-77694126D01*
X75165000Y-78105874D01*
X75315000Y-78468008D01*
X75315001Y-79333421D01*
X75175852Y-79472569D01*
X74813720Y-79622569D01*
X74522569Y-79913720D01*
X74365000Y-80294126D01*
X74365000Y-80705874D01*
X74522569Y-81086280D01*
X74813720Y-81377431D01*
X75194126Y-81535000D01*
X75605874Y-81535000D01*
X75986280Y-81377431D01*
X76277431Y-81086280D01*
X76427431Y-80724148D01*
X76764156Y-80387423D01*
X76838049Y-80338049D01*
X76966835Y-80145309D01*
X77033652Y-80045310D01*
X77085000Y-79787165D01*
X77085000Y-79787161D01*
X77102337Y-79700000D01*
X77085000Y-79612839D01*
X77085000Y-78468007D01*
X77235000Y-78105874D01*
X77235000Y-77694126D01*
X77085000Y-77331993D01*
X77085000Y-74266578D01*
X77824148Y-73527431D01*
X78186280Y-73377431D01*
X78477431Y-73086280D01*
X78635000Y-72705874D01*
X78635000Y-72294126D01*
X78610000Y-72233771D01*
X78610000Y-69886281D01*
X78629786Y-69786810D01*
X78610000Y-69687339D01*
X78610000Y-69687334D01*
X78551399Y-69392728D01*
X78466955Y-69266348D01*
X78384518Y-69142972D01*
X78384516Y-69142970D01*
X78328169Y-69058641D01*
X78243841Y-69002295D01*
X72022693Y-62781148D01*
X72394126Y-62935000D01*
X72805874Y-62935000D01*
X73168007Y-62785000D01*
X77812839Y-62785000D01*
X77900000Y-62802337D01*
X77987161Y-62785000D01*
X77987165Y-62785000D01*
X78245310Y-62733652D01*
X78538049Y-62538049D01*
X78587425Y-62464153D01*
X86224148Y-54827430D01*
X86406620Y-54751848D01*
X86395334Y-54780355D01*
X86228569Y-55361932D01*
X86205759Y-55486215D01*
X86160995Y-56019296D01*
X86160995Y-56019297D01*
X86155133Y-56089108D01*
X86156897Y-56215452D01*
X86224337Y-56816695D01*
X86250608Y-56940292D01*
X86433546Y-57516986D01*
X86483324Y-57633127D01*
X86774792Y-58163305D01*
X86846181Y-58267565D01*
X87235077Y-58731032D01*
X87325355Y-58819439D01*
X87796865Y-59198543D01*
X87902597Y-59267733D01*
X88438763Y-59548034D01*
X88555921Y-59595368D01*
X89136319Y-59766188D01*
X89260439Y-59789865D01*
X89862963Y-59844699D01*
X89989318Y-59843817D01*
X90591018Y-59780576D01*
X90714795Y-59755169D01*
X91292751Y-59576262D01*
X91409237Y-59527295D01*
X91941437Y-59239535D01*
X92046192Y-59168877D01*
X92512363Y-58783227D01*
X92601399Y-58693567D01*
X92983786Y-58224715D01*
X93053712Y-58119469D01*
X93337749Y-57585273D01*
X93385900Y-57468448D01*
X93560768Y-56889256D01*
X93585311Y-56765305D01*
X93644350Y-56163179D01*
X93647377Y-56090958D01*
X93646168Y-56004401D01*
X93641126Y-55932298D01*
X93565298Y-55332055D01*
X93537303Y-55208837D01*
X93346331Y-54634753D01*
X93294937Y-54519318D01*
X92996095Y-53993262D01*
X92923258Y-53890010D01*
X92527930Y-53432017D01*
X92436425Y-53344877D01*
X91959667Y-52972393D01*
X91852979Y-52904687D01*
X91312952Y-52631900D01*
X91195145Y-52586206D01*
X90612418Y-52423506D01*
X90487980Y-52401564D01*
X89884749Y-52355148D01*
X89758419Y-52357794D01*
X89157661Y-52429430D01*
X89034249Y-52456564D01*
X88458847Y-52643524D01*
X88343059Y-52694111D01*
X87814929Y-52989272D01*
X87711169Y-53061387D01*
X87250428Y-53453509D01*
X87162652Y-53544403D01*
X87035000Y-53705460D01*
X87035000Y-53594126D01*
X86877431Y-53213720D01*
X86586280Y-52922569D01*
X86205874Y-52765000D01*
X85794126Y-52765000D01*
X85413720Y-52922569D01*
X85122569Y-53213720D01*
X84972570Y-53575852D01*
X77533422Y-61015000D01*
X73168007Y-61015000D01*
X72824148Y-60872569D01*
X71087425Y-59135847D01*
X71038049Y-59061951D01*
X70745310Y-58866348D01*
X70487165Y-58815000D01*
X70487161Y-58815000D01*
X70400000Y-58797663D01*
X70312839Y-58815000D01*
X58868007Y-58815000D01*
X58735369Y-58760060D01*
X58801399Y-58693567D01*
X59183786Y-58224715D01*
X59253712Y-58119469D01*
X59537749Y-57585273D01*
X59585900Y-57468448D01*
X59760768Y-56889256D01*
X59785311Y-56765305D01*
X59844350Y-56163179D01*
X59847377Y-56090958D01*
X59846168Y-56004401D01*
X59841126Y-55932298D01*
X59765298Y-55332055D01*
X59737303Y-55208837D01*
X59546331Y-54634753D01*
X59494937Y-54519318D01*
X59196095Y-53993262D01*
X59123258Y-53890010D01*
X58727930Y-53432017D01*
X58636425Y-53344877D01*
X58159667Y-52972393D01*
X58052979Y-52904687D01*
X57512952Y-52631900D01*
X57395145Y-52586206D01*
X56812418Y-52423506D01*
X56687980Y-52401564D01*
X56084749Y-52355148D01*
X55958419Y-52357794D01*
X55357661Y-52429430D01*
X55234249Y-52456564D01*
X54658847Y-52643524D01*
X54543059Y-52694111D01*
X54014929Y-52989272D01*
X53911169Y-53061387D01*
X53450428Y-53453509D01*
X53362652Y-53544403D01*
X52986849Y-54018549D01*
X52918400Y-54124761D01*
X52641849Y-54662870D01*
X52595334Y-54780355D01*
X52428569Y-55361932D01*
X52405759Y-55486215D01*
X52360995Y-56019296D01*
X52360995Y-56019297D01*
X52355133Y-56089108D01*
X50660000Y-56089108D01*
X50660000Y-50660000D01*
X95340000Y-50660000D01*
X95340001Y-95340000D01*
X95340001Y-95340000D01*
G37*
X95340001Y-95340000D02*
X50660000Y-95340000D01*
X50660000Y-89889108D01*
X52355133Y-89889108D01*
X52356897Y-90015452D01*
X52424337Y-90616695D01*
X52450608Y-90740292D01*
X52633546Y-91316986D01*
X52683324Y-91433127D01*
X52974792Y-91963305D01*
X53046181Y-92067565D01*
X53435077Y-92531032D01*
X53525355Y-92619439D01*
X53996865Y-92998543D01*
X54102597Y-93067733D01*
X54638763Y-93348034D01*
X54755921Y-93395368D01*
X55336319Y-93566188D01*
X55460439Y-93589865D01*
X56062963Y-93644699D01*
X56189318Y-93643817D01*
X56791018Y-93580576D01*
X56914795Y-93555169D01*
X57492751Y-93376262D01*
X57609237Y-93327295D01*
X58141437Y-93039535D01*
X58246192Y-92968877D01*
X58712363Y-92583227D01*
X58801399Y-92493567D01*
X59183786Y-92024715D01*
X59253712Y-91919469D01*
X59537749Y-91385273D01*
X59585900Y-91268448D01*
X59752600Y-90716311D01*
X59813720Y-90777431D01*
X60194126Y-90935000D01*
X60605874Y-90935000D01*
X60986280Y-90777431D01*
X61277431Y-90486280D01*
X61435000Y-90105874D01*
X61435000Y-89889108D01*
X86155133Y-89889108D01*
X86156897Y-90015452D01*
X86224337Y-90616695D01*
X86250608Y-90740292D01*
X86433546Y-91316986D01*
X86483324Y-91433127D01*
X86774792Y-91963305D01*
X86846181Y-92067565D01*
X87235077Y-92531032D01*
X87325355Y-92619439D01*
X87796865Y-92998543D01*
X87902597Y-93067733D01*
X88438763Y-93348034D01*
X88555921Y-93395368D01*
X89136319Y-93566188D01*
X89260439Y-93589865D01*
X89862963Y-93644699D01*
X89989318Y-93643817D01*
X90591018Y-93580576D01*
X90714795Y-93555169D01*
X91292751Y-93376262D01*
X91409237Y-93327295D01*
X91941437Y-93039535D01*
X92046192Y-92968877D01*
X92512363Y-92583227D01*
X92601399Y-92493567D01*
X92983786Y-92024715D01*
X93053712Y-91919469D01*
X93337749Y-91385273D01*
X93385900Y-91268448D01*
X93560768Y-90689256D01*
X93585311Y-90565305D01*
X93644350Y-89963179D01*
X93647377Y-89890958D01*
X93646168Y-89804401D01*
X93641126Y-89732298D01*
X93565298Y-89132055D01*
X93537303Y-89008837D01*
X93346331Y-88434753D01*
X93294937Y-88319318D01*
X92996095Y-87793262D01*
X92923258Y-87690010D01*
X92527930Y-87232017D01*
X92436425Y-87144877D01*
X91959667Y-86772393D01*
X91852979Y-86704687D01*
X91312952Y-86431900D01*
X91195145Y-86386206D01*
X90612418Y-86223506D01*
X90487980Y-86201564D01*
X89884749Y-86155148D01*
X89758419Y-86157794D01*
X89157661Y-86229430D01*
X89034249Y-86256564D01*
X88458847Y-86443524D01*
X88343059Y-86494111D01*
X87814929Y-86789272D01*
X87711169Y-86861387D01*
X87250428Y-87253509D01*
X87162652Y-87344403D01*
X86786849Y-87818549D01*
X86718400Y-87924761D01*
X86441849Y-88462870D01*
X86395334Y-88580355D01*
X86228569Y-89161932D01*
X86205759Y-89286215D01*
X86160995Y-89819296D01*
X86160995Y-89819297D01*
X86155133Y-89889108D01*
X61435000Y-89889108D01*
X61435000Y-89694126D01*
X61285000Y-89331993D01*
X61285000Y-80166578D01*
X65924148Y-75527431D01*
X66286280Y-75377431D01*
X66577431Y-75086280D01*
X66657023Y-74894126D01*
X70065000Y-74894126D01*
X70065000Y-75305874D01*
X70222569Y-75686280D01*
X70513720Y-75977431D01*
X70894126Y-76135000D01*
X71305874Y-76135000D01*
X71686280Y-75977431D01*
X71977431Y-75686280D01*
X72135000Y-75305874D01*
X72135000Y-74894126D01*
X71985000Y-74531993D01*
X71985000Y-71766578D01*
X72624148Y-71127431D01*
X72986280Y-70977431D01*
X73277431Y-70686280D01*
X73435000Y-70305874D01*
X73435000Y-69894126D01*
X73277431Y-69513720D01*
X72986280Y-69222569D01*
X72605874Y-69065000D01*
X72194126Y-69065000D01*
X71813720Y-69222569D01*
X71522569Y-69513720D01*
X71372569Y-69875852D01*
X70535847Y-70712575D01*
X70461951Y-70761951D01*
X70266348Y-71054691D01*
X70215000Y-71312836D01*
X70215000Y-71312839D01*
X70197663Y-71400000D01*
X70215000Y-71487161D01*
X70215001Y-74531991D01*
X70065000Y-74894126D01*
X66657023Y-74894126D01*
X66735000Y-74705874D01*
X66735000Y-74294126D01*
X66577431Y-73913720D01*
X66286280Y-73622569D01*
X65905874Y-73465000D01*
X65494126Y-73465000D01*
X65113720Y-73622569D01*
X64822569Y-73913720D01*
X64672569Y-74275852D01*
X59835845Y-79112577D01*
X59761952Y-79161951D01*
X59712578Y-79235844D01*
X59712576Y-79235846D01*
X59566348Y-79454691D01*
X59497663Y-79800000D01*
X59515001Y-79887165D01*
X59515000Y-88364381D01*
X59494937Y-88319318D01*
X59196095Y-87793262D01*
X59123258Y-87690010D01*
X58727930Y-87232017D01*
X58636425Y-87144877D01*
X58159667Y-86772393D01*
X58052979Y-86704687D01*
X57512952Y-86431900D01*
X57395145Y-86386206D01*
X56812418Y-86223506D01*
X56687980Y-86201564D01*
X56084749Y-86155148D01*
X55958419Y-86157794D01*
X55357661Y-86229430D01*
X55234249Y-86256564D01*
X54658847Y-86443524D01*
X54543059Y-86494111D01*
X54014929Y-86789272D01*
X53911169Y-86861387D01*
X53450428Y-87253509D01*
X53362652Y-87344403D01*
X52986849Y-87818549D01*
X52918400Y-87924761D01*
X52641849Y-88462870D01*
X52595334Y-88580355D01*
X52428569Y-89161932D01*
X52405759Y-89286215D01*
X52360995Y-89819296D01*
X52360995Y-89819297D01*
X52355133Y-89889108D01*
X50660000Y-89889108D01*
X50660000Y-56089108D01*
X52355133Y-56089108D01*
X52356897Y-56215452D01*
X52424337Y-56816695D01*
X52450608Y-56940292D01*
X52633546Y-57516986D01*
X52683324Y-57633127D01*
X52974792Y-58163305D01*
X53046181Y-58267565D01*
X53435077Y-58731032D01*
X53525355Y-58819439D01*
X53996865Y-59198543D01*
X54102597Y-59267733D01*
X54638763Y-59548034D01*
X54755921Y-59595368D01*
X55336319Y-59766188D01*
X55460439Y-59789865D01*
X55650841Y-59807193D01*
X55613720Y-59822569D01*
X55322569Y-60113720D01*
X55165000Y-60494126D01*
X55165000Y-60905874D01*
X55322569Y-61286280D01*
X55613720Y-61577431D01*
X55674077Y-61602432D01*
X55815480Y-61743834D01*
X55871830Y-61828168D01*
X55938926Y-61873000D01*
X53000000Y-61873000D01*
X52951399Y-61882667D01*
X52910197Y-61910197D01*
X52882667Y-61951399D01*
X52873000Y-62000000D01*
X52873000Y-68000000D01*
X52882667Y-68048601D01*
X52910197Y-68089803D01*
X52951399Y-68117333D01*
X53000000Y-68127000D01*
X69000000Y-68127000D01*
X69048601Y-68117333D01*
X69089803Y-68089803D01*
X69117333Y-68048601D01*
X69127000Y-68000000D01*
X69127000Y-62742165D01*
X76590000Y-70205166D01*
X76590001Y-71834835D01*
X76590000Y-71834840D01*
X76590000Y-72233771D01*
X76572569Y-72275852D01*
X75635845Y-73212577D01*
X75561952Y-73261951D01*
X75512578Y-73335844D01*
X75512576Y-73335846D01*
X75366348Y-73554691D01*
X75297663Y-73900000D01*
X75315001Y-73987165D01*
X75315000Y-77331993D01*
X75165000Y-77694126D01*
X75165000Y-78105874D01*
X75315000Y-78468008D01*
X75315001Y-79333421D01*
X75175852Y-79472569D01*
X74813720Y-79622569D01*
X74522569Y-79913720D01*
X74365000Y-80294126D01*
X74365000Y-80705874D01*
X74522569Y-81086280D01*
X74813720Y-81377431D01*
X75194126Y-81535000D01*
X75605874Y-81535000D01*
X75986280Y-81377431D01*
X76277431Y-81086280D01*
X76427431Y-80724148D01*
X76764156Y-80387423D01*
X76838049Y-80338049D01*
X76966835Y-80145309D01*
X77033652Y-80045310D01*
X77085000Y-79787165D01*
X77085000Y-79787161D01*
X77102337Y-79700000D01*
X77085000Y-79612839D01*
X77085000Y-78468007D01*
X77235000Y-78105874D01*
X77235000Y-77694126D01*
X77085000Y-77331993D01*
X77085000Y-74266578D01*
X77824148Y-73527431D01*
X78186280Y-73377431D01*
X78477431Y-73086280D01*
X78635000Y-72705874D01*
X78635000Y-72294126D01*
X78610000Y-72233771D01*
X78610000Y-69886281D01*
X78629786Y-69786810D01*
X78610000Y-69687339D01*
X78610000Y-69687334D01*
X78551399Y-69392728D01*
X78466955Y-69266348D01*
X78384518Y-69142972D01*
X78384516Y-69142970D01*
X78328169Y-69058641D01*
X78243841Y-69002295D01*
X72022693Y-62781148D01*
X72394126Y-62935000D01*
X72805874Y-62935000D01*
X73168007Y-62785000D01*
X77812839Y-62785000D01*
X77900000Y-62802337D01*
X77987161Y-62785000D01*
X77987165Y-62785000D01*
X78245310Y-62733652D01*
X78538049Y-62538049D01*
X78587425Y-62464153D01*
X86224148Y-54827430D01*
X86406620Y-54751848D01*
X86395334Y-54780355D01*
X86228569Y-55361932D01*
X86205759Y-55486215D01*
X86160995Y-56019296D01*
X86160995Y-56019297D01*
X86155133Y-56089108D01*
X86156897Y-56215452D01*
X86224337Y-56816695D01*
X86250608Y-56940292D01*
X86433546Y-57516986D01*
X86483324Y-57633127D01*
X86774792Y-58163305D01*
X86846181Y-58267565D01*
X87235077Y-58731032D01*
X87325355Y-58819439D01*
X87796865Y-59198543D01*
X87902597Y-59267733D01*
X88438763Y-59548034D01*
X88555921Y-59595368D01*
X89136319Y-59766188D01*
X89260439Y-59789865D01*
X89862963Y-59844699D01*
X89989318Y-59843817D01*
X90591018Y-59780576D01*
X90714795Y-59755169D01*
X91292751Y-59576262D01*
X91409237Y-59527295D01*
X91941437Y-59239535D01*
X92046192Y-59168877D01*
X92512363Y-58783227D01*
X92601399Y-58693567D01*
X92983786Y-58224715D01*
X93053712Y-58119469D01*
X93337749Y-57585273D01*
X93385900Y-57468448D01*
X93560768Y-56889256D01*
X93585311Y-56765305D01*
X93644350Y-56163179D01*
X93647377Y-56090958D01*
X93646168Y-56004401D01*
X93641126Y-55932298D01*
X93565298Y-55332055D01*
X93537303Y-55208837D01*
X93346331Y-54634753D01*
X93294937Y-54519318D01*
X92996095Y-53993262D01*
X92923258Y-53890010D01*
X92527930Y-53432017D01*
X92436425Y-53344877D01*
X91959667Y-52972393D01*
X91852979Y-52904687D01*
X91312952Y-52631900D01*
X91195145Y-52586206D01*
X90612418Y-52423506D01*
X90487980Y-52401564D01*
X89884749Y-52355148D01*
X89758419Y-52357794D01*
X89157661Y-52429430D01*
X89034249Y-52456564D01*
X88458847Y-52643524D01*
X88343059Y-52694111D01*
X87814929Y-52989272D01*
X87711169Y-53061387D01*
X87250428Y-53453509D01*
X87162652Y-53544403D01*
X87035000Y-53705460D01*
X87035000Y-53594126D01*
X86877431Y-53213720D01*
X86586280Y-52922569D01*
X86205874Y-52765000D01*
X85794126Y-52765000D01*
X85413720Y-52922569D01*
X85122569Y-53213720D01*
X84972570Y-53575852D01*
X77533422Y-61015000D01*
X73168007Y-61015000D01*
X72824148Y-60872569D01*
X71087425Y-59135847D01*
X71038049Y-59061951D01*
X70745310Y-58866348D01*
X70487165Y-58815000D01*
X70487161Y-58815000D01*
X70400000Y-58797663D01*
X70312839Y-58815000D01*
X58868007Y-58815000D01*
X58735369Y-58760060D01*
X58801399Y-58693567D01*
X59183786Y-58224715D01*
X59253712Y-58119469D01*
X59537749Y-57585273D01*
X59585900Y-57468448D01*
X59760768Y-56889256D01*
X59785311Y-56765305D01*
X59844350Y-56163179D01*
X59847377Y-56090958D01*
X59846168Y-56004401D01*
X59841126Y-55932298D01*
X59765298Y-55332055D01*
X59737303Y-55208837D01*
X59546331Y-54634753D01*
X59494937Y-54519318D01*
X59196095Y-53993262D01*
X59123258Y-53890010D01*
X58727930Y-53432017D01*
X58636425Y-53344877D01*
X58159667Y-52972393D01*
X58052979Y-52904687D01*
X57512952Y-52631900D01*
X57395145Y-52586206D01*
X56812418Y-52423506D01*
X56687980Y-52401564D01*
X56084749Y-52355148D01*
X55958419Y-52357794D01*
X55357661Y-52429430D01*
X55234249Y-52456564D01*
X54658847Y-52643524D01*
X54543059Y-52694111D01*
X54014929Y-52989272D01*
X53911169Y-53061387D01*
X53450428Y-53453509D01*
X53362652Y-53544403D01*
X52986849Y-54018549D01*
X52918400Y-54124761D01*
X52641849Y-54662870D01*
X52595334Y-54780355D01*
X52428569Y-55361932D01*
X52405759Y-55486215D01*
X52360995Y-56019296D01*
X52360995Y-56019297D01*
X52355133Y-56089108D01*
X50660000Y-56089108D01*
X50660000Y-50660000D01*
X95340000Y-50660000D01*
X95340001Y-95340000D01*
G04 #@! TD*
M02*
