M48
;DRILL file {KiCad (6.0.0-rc1-dev-557-ge985f797c)} date 10/28/18 11:10:37
;FORMAT={-:-/ absolute / metric / decimal}
FMAT,2
METRIC,TZ
T1C0.400
%
G90
G05
M71
T1
X52.5Y-87.5
X56.Y-52.
X56.2Y-60.7
X58.3Y-59.7
X60.4Y-89.9
X62.5Y-57.5
X65.7Y-74.5
X68.Y-57.
X71.1Y-75.1
X72.4Y-70.1
X72.6Y-61.9
X75.4Y-80.5
X76.2Y-77.9
X77.6Y-72.5
X86.Y-53.8
X90.Y-52.
X90.Y-86.
X89.9Y-56.1
X56.1Y-89.9
X89.9Y-89.9
X56.1Y-56.1
T0
M30
