G04 #@! TF.GenerationSoftware,KiCad,Pcbnew,(6.0.0-rc1-dev-557-ge985f797c)*
G04 #@! TF.CreationDate,2018-10-28T11:13:32+01:00*
G04 #@! TF.ProjectId,GIRA ESP8266 Jalousiesteuerung,474952412045535038323636204A616C,1.0*
G04 #@! TF.SameCoordinates,Original*
G04 #@! TF.FileFunction,Soldermask,Bot*
G04 #@! TF.FilePolarity,Negative*
%FSLAX46Y46*%
G04 Gerber Fmt 4.6, Leading zero omitted, Abs format (unit mm)*
G04 Created by KiCad (PCBNEW (6.0.0-rc1-dev-557-ge985f797c)) date 10/28/18 11:13:32*
%MOMM*%
%LPD*%
G01*
G04 APERTURE LIST*
%ADD10C,0.100000*%
G04 APERTURE END LIST*
D10*
G36*
X56636191Y-86794928D02*
X56658147Y-86798800D01*
X57229093Y-86958210D01*
X57249872Y-86966269D01*
X57778986Y-87233544D01*
X57797801Y-87245485D01*
X58264926Y-87610443D01*
X58281073Y-87625819D01*
X58668399Y-88074542D01*
X58681255Y-88092766D01*
X58974059Y-88608192D01*
X58983120Y-88628544D01*
X59170237Y-89191039D01*
X59175172Y-89212764D01*
X59249796Y-89803480D01*
X59250687Y-89816207D01*
X59251798Y-89895793D01*
X59251264Y-89908536D01*
X59193163Y-90501102D01*
X59188834Y-90522961D01*
X59017500Y-91090451D01*
X59009003Y-91111064D01*
X58730710Y-91634457D01*
X58718376Y-91653021D01*
X58343710Y-92112406D01*
X58328012Y-92128214D01*
X57871263Y-92506070D01*
X57852780Y-92518537D01*
X57331343Y-92800477D01*
X57310787Y-92809118D01*
X56744514Y-92984409D01*
X56722680Y-92988890D01*
X56133145Y-93050853D01*
X56110858Y-93051008D01*
X55520499Y-92997281D01*
X55498613Y-92993107D01*
X54929951Y-92825741D01*
X54909272Y-92817386D01*
X54383950Y-92542754D01*
X54365304Y-92530552D01*
X53903317Y-92159105D01*
X53887393Y-92143511D01*
X53506353Y-91689405D01*
X53493764Y-91671021D01*
X53208189Y-91151562D01*
X53199406Y-91131070D01*
X53020166Y-90566035D01*
X53015531Y-90544228D01*
X52949455Y-89955139D01*
X52949143Y-89932854D01*
X52953042Y-89886413D01*
X54253306Y-89886413D01*
X54281433Y-90221369D01*
X54285837Y-90245364D01*
X54378489Y-90568478D01*
X54387470Y-90591160D01*
X54541114Y-90890120D01*
X54554329Y-90910626D01*
X54763118Y-91174053D01*
X54780065Y-91191602D01*
X55036045Y-91409457D01*
X55056078Y-91423380D01*
X55349499Y-91587367D01*
X55371854Y-91597134D01*
X55691533Y-91701004D01*
X55715359Y-91706243D01*
X56049129Y-91746043D01*
X56073520Y-91746554D01*
X56408667Y-91720766D01*
X56432692Y-91716529D01*
X56756437Y-91626137D01*
X56779181Y-91617315D01*
X57079217Y-91465757D01*
X57099816Y-91452685D01*
X57364691Y-91245742D01*
X57382357Y-91228918D01*
X57601990Y-90974470D01*
X57616053Y-90954536D01*
X57782086Y-90662266D01*
X57792008Y-90639979D01*
X57898110Y-90321025D01*
X57903515Y-90297235D01*
X57946576Y-89956368D01*
X57947550Y-89942448D01*
X57948015Y-89909161D01*
X57947430Y-89895217D01*
X57913902Y-89553273D01*
X57909164Y-89529342D01*
X57812010Y-89207552D01*
X57802713Y-89184997D01*
X57644908Y-88888209D01*
X57631408Y-88867889D01*
X57418963Y-88607406D01*
X57401773Y-88590096D01*
X57142776Y-88375835D01*
X57122551Y-88362193D01*
X56826871Y-88202319D01*
X56804381Y-88192865D01*
X56483277Y-88093467D01*
X56459380Y-88088562D01*
X56125090Y-88053427D01*
X56100695Y-88053256D01*
X55765948Y-88083720D01*
X55741984Y-88088292D01*
X55419520Y-88183199D01*
X55396901Y-88192338D01*
X55099017Y-88348068D01*
X55078604Y-88361426D01*
X54816644Y-88572047D01*
X54799213Y-88589115D01*
X54583153Y-88846605D01*
X54569371Y-88866735D01*
X54407436Y-89161294D01*
X54397825Y-89183717D01*
X54296188Y-89504119D01*
X54291116Y-89527981D01*
X54253647Y-89862019D01*
X54253306Y-89886413D01*
X52953042Y-89886413D01*
X52954494Y-89869133D01*
X52998747Y-89342138D01*
X53002768Y-89320229D01*
X53166167Y-88750392D01*
X53174369Y-88729676D01*
X53445329Y-88202446D01*
X53457408Y-88183703D01*
X53825612Y-87719145D01*
X53841098Y-87703108D01*
X54292528Y-87318911D01*
X54310830Y-87306190D01*
X54828277Y-87017000D01*
X54848713Y-87008072D01*
X55412481Y-86824892D01*
X55434251Y-86820105D01*
X56022867Y-86749917D01*
X56045152Y-86749450D01*
X56636191Y-86794928D01*
X56636191Y-86794928D01*
G37*
G36*
X56314795Y-88820156D02*
X56421150Y-88841311D01*
X56482529Y-88866735D01*
X56621516Y-88924305D01*
X56801850Y-89044801D01*
X56955199Y-89198150D01*
X56955201Y-89198153D01*
X56955202Y-89198154D01*
X56964964Y-89212764D01*
X57075695Y-89378484D01*
X57127734Y-89504119D01*
X57148095Y-89553273D01*
X57158689Y-89578851D01*
X57201000Y-89791560D01*
X57201000Y-90008440D01*
X57158689Y-90221149D01*
X57075695Y-90421516D01*
X56955199Y-90601850D01*
X56801850Y-90755199D01*
X56621516Y-90875695D01*
X56537184Y-90910626D01*
X56421150Y-90958689D01*
X56341814Y-90974470D01*
X56208440Y-91001000D01*
X55991560Y-91001000D01*
X55858186Y-90974470D01*
X55778850Y-90958689D01*
X55662816Y-90910626D01*
X55578484Y-90875695D01*
X55398150Y-90755199D01*
X55244801Y-90601850D01*
X55124305Y-90421516D01*
X55041311Y-90221149D01*
X54999000Y-90008440D01*
X54999000Y-89791560D01*
X55041311Y-89578851D01*
X55051906Y-89553273D01*
X55072266Y-89504119D01*
X55124305Y-89378484D01*
X55235036Y-89212764D01*
X55244798Y-89198154D01*
X55244799Y-89198153D01*
X55244801Y-89198150D01*
X55398150Y-89044801D01*
X55578484Y-88924305D01*
X55717471Y-88866735D01*
X55778850Y-88841311D01*
X55885205Y-88820156D01*
X55991560Y-88799000D01*
X56208440Y-88799000D01*
X56314795Y-88820156D01*
X56314795Y-88820156D01*
G37*
G36*
X90436191Y-86794928D02*
X90458147Y-86798800D01*
X91029093Y-86958210D01*
X91049872Y-86966269D01*
X91578986Y-87233544D01*
X91597801Y-87245485D01*
X92064926Y-87610443D01*
X92081073Y-87625819D01*
X92468399Y-88074542D01*
X92481255Y-88092766D01*
X92774059Y-88608192D01*
X92783120Y-88628544D01*
X92970237Y-89191039D01*
X92975172Y-89212764D01*
X93049796Y-89803480D01*
X93050687Y-89816207D01*
X93051798Y-89895793D01*
X93051264Y-89908536D01*
X92993163Y-90501102D01*
X92988834Y-90522961D01*
X92817500Y-91090451D01*
X92809003Y-91111064D01*
X92530710Y-91634457D01*
X92518376Y-91653021D01*
X92143710Y-92112406D01*
X92128012Y-92128214D01*
X91671263Y-92506070D01*
X91652780Y-92518537D01*
X91131343Y-92800477D01*
X91110787Y-92809118D01*
X90544514Y-92984409D01*
X90522680Y-92988890D01*
X89933145Y-93050853D01*
X89910858Y-93051008D01*
X89320499Y-92997281D01*
X89298613Y-92993107D01*
X88729951Y-92825741D01*
X88709272Y-92817386D01*
X88183950Y-92542754D01*
X88165304Y-92530552D01*
X87703317Y-92159105D01*
X87687393Y-92143511D01*
X87306353Y-91689405D01*
X87293764Y-91671021D01*
X87008189Y-91151562D01*
X86999406Y-91131070D01*
X86820166Y-90566035D01*
X86815531Y-90544228D01*
X86749455Y-89955139D01*
X86749143Y-89932854D01*
X86753042Y-89886413D01*
X88053306Y-89886413D01*
X88081433Y-90221369D01*
X88085837Y-90245364D01*
X88178489Y-90568478D01*
X88187470Y-90591160D01*
X88341114Y-90890120D01*
X88354329Y-90910626D01*
X88563118Y-91174053D01*
X88580065Y-91191602D01*
X88836045Y-91409457D01*
X88856078Y-91423380D01*
X89149499Y-91587367D01*
X89171854Y-91597134D01*
X89491533Y-91701004D01*
X89515359Y-91706243D01*
X89849129Y-91746043D01*
X89873520Y-91746554D01*
X90208667Y-91720766D01*
X90232692Y-91716529D01*
X90556437Y-91626137D01*
X90579181Y-91617315D01*
X90879217Y-91465757D01*
X90899816Y-91452685D01*
X91164691Y-91245742D01*
X91182357Y-91228918D01*
X91401990Y-90974470D01*
X91416053Y-90954536D01*
X91582086Y-90662266D01*
X91592008Y-90639979D01*
X91698110Y-90321025D01*
X91703515Y-90297235D01*
X91746576Y-89956368D01*
X91747550Y-89942448D01*
X91748015Y-89909161D01*
X91747430Y-89895217D01*
X91713902Y-89553273D01*
X91709164Y-89529342D01*
X91612010Y-89207552D01*
X91602713Y-89184997D01*
X91444908Y-88888209D01*
X91431408Y-88867889D01*
X91218963Y-88607406D01*
X91201773Y-88590096D01*
X90942776Y-88375835D01*
X90922551Y-88362193D01*
X90626871Y-88202319D01*
X90604381Y-88192865D01*
X90283277Y-88093467D01*
X90259380Y-88088562D01*
X89925090Y-88053427D01*
X89900695Y-88053256D01*
X89565948Y-88083720D01*
X89541984Y-88088292D01*
X89219520Y-88183199D01*
X89196901Y-88192338D01*
X88899017Y-88348068D01*
X88878604Y-88361426D01*
X88616644Y-88572047D01*
X88599213Y-88589115D01*
X88383153Y-88846605D01*
X88369371Y-88866735D01*
X88207436Y-89161294D01*
X88197825Y-89183717D01*
X88096188Y-89504119D01*
X88091116Y-89527981D01*
X88053647Y-89862019D01*
X88053306Y-89886413D01*
X86753042Y-89886413D01*
X86754494Y-89869133D01*
X86798747Y-89342138D01*
X86802768Y-89320229D01*
X86966167Y-88750392D01*
X86974369Y-88729676D01*
X87245329Y-88202446D01*
X87257408Y-88183703D01*
X87625612Y-87719145D01*
X87641098Y-87703108D01*
X88092528Y-87318911D01*
X88110830Y-87306190D01*
X88628277Y-87017000D01*
X88648713Y-87008072D01*
X89212481Y-86824892D01*
X89234251Y-86820105D01*
X89822867Y-86749917D01*
X89845152Y-86749450D01*
X90436191Y-86794928D01*
X90436191Y-86794928D01*
G37*
G36*
X90114795Y-88820156D02*
X90221150Y-88841311D01*
X90282529Y-88866735D01*
X90421516Y-88924305D01*
X90601850Y-89044801D01*
X90755199Y-89198150D01*
X90755201Y-89198153D01*
X90755202Y-89198154D01*
X90764964Y-89212764D01*
X90875695Y-89378484D01*
X90927734Y-89504119D01*
X90948095Y-89553273D01*
X90958689Y-89578851D01*
X91001000Y-89791560D01*
X91001000Y-90008440D01*
X90958689Y-90221149D01*
X90875695Y-90421516D01*
X90755199Y-90601850D01*
X90601850Y-90755199D01*
X90421516Y-90875695D01*
X90337184Y-90910626D01*
X90221150Y-90958689D01*
X90141814Y-90974470D01*
X90008440Y-91001000D01*
X89791560Y-91001000D01*
X89658186Y-90974470D01*
X89578850Y-90958689D01*
X89462816Y-90910626D01*
X89378484Y-90875695D01*
X89198150Y-90755199D01*
X89044801Y-90601850D01*
X88924305Y-90421516D01*
X88841311Y-90221149D01*
X88799000Y-90008440D01*
X88799000Y-89791560D01*
X88841311Y-89578851D01*
X88851906Y-89553273D01*
X88872266Y-89504119D01*
X88924305Y-89378484D01*
X89035036Y-89212764D01*
X89044798Y-89198154D01*
X89044799Y-89198153D01*
X89044801Y-89198150D01*
X89198150Y-89044801D01*
X89378484Y-88924305D01*
X89517471Y-88866735D01*
X89578850Y-88841311D01*
X89685205Y-88820156D01*
X89791560Y-88799000D01*
X90008440Y-88799000D01*
X90114795Y-88820156D01*
X90114795Y-88820156D01*
G37*
G36*
X90436191Y-52994928D02*
X90458147Y-52998800D01*
X91029093Y-53158210D01*
X91049872Y-53166269D01*
X91578986Y-53433544D01*
X91597801Y-53445485D01*
X92064926Y-53810443D01*
X92081073Y-53825819D01*
X92468399Y-54274542D01*
X92481255Y-54292766D01*
X92774059Y-54808192D01*
X92783120Y-54828544D01*
X92970237Y-55391039D01*
X92975172Y-55412764D01*
X93049796Y-56003480D01*
X93050687Y-56016207D01*
X93051798Y-56095793D01*
X93051264Y-56108536D01*
X92993163Y-56701102D01*
X92988834Y-56722961D01*
X92817500Y-57290451D01*
X92809003Y-57311064D01*
X92530710Y-57834457D01*
X92518376Y-57853021D01*
X92143710Y-58312406D01*
X92128012Y-58328214D01*
X91671263Y-58706070D01*
X91652780Y-58718537D01*
X91131343Y-59000477D01*
X91110787Y-59009118D01*
X90544514Y-59184409D01*
X90522680Y-59188890D01*
X89933145Y-59250853D01*
X89910858Y-59251008D01*
X89320499Y-59197281D01*
X89298613Y-59193107D01*
X88729951Y-59025741D01*
X88709272Y-59017386D01*
X88183950Y-58742754D01*
X88165304Y-58730552D01*
X87703317Y-58359105D01*
X87687393Y-58343511D01*
X87306353Y-57889405D01*
X87293764Y-57871021D01*
X87008189Y-57351562D01*
X86999406Y-57331070D01*
X86820166Y-56766035D01*
X86815531Y-56744228D01*
X86749455Y-56155139D01*
X86749143Y-56132854D01*
X86753042Y-56086413D01*
X88053306Y-56086413D01*
X88081433Y-56421369D01*
X88085837Y-56445364D01*
X88178489Y-56768478D01*
X88187470Y-56791160D01*
X88341114Y-57090120D01*
X88354329Y-57110626D01*
X88563118Y-57374053D01*
X88580065Y-57391602D01*
X88836045Y-57609457D01*
X88856078Y-57623380D01*
X89149499Y-57787367D01*
X89171854Y-57797134D01*
X89491533Y-57901004D01*
X89515359Y-57906243D01*
X89849129Y-57946043D01*
X89873520Y-57946554D01*
X90208667Y-57920766D01*
X90232692Y-57916529D01*
X90556437Y-57826137D01*
X90579181Y-57817315D01*
X90879217Y-57665757D01*
X90899816Y-57652685D01*
X91164691Y-57445742D01*
X91182357Y-57428918D01*
X91401990Y-57174470D01*
X91416053Y-57154536D01*
X91582086Y-56862266D01*
X91592008Y-56839979D01*
X91698110Y-56521025D01*
X91703515Y-56497235D01*
X91746576Y-56156368D01*
X91747550Y-56142448D01*
X91748015Y-56109161D01*
X91747430Y-56095217D01*
X91713902Y-55753273D01*
X91709164Y-55729342D01*
X91612010Y-55407552D01*
X91602713Y-55384997D01*
X91444908Y-55088209D01*
X91431408Y-55067889D01*
X91218963Y-54807406D01*
X91201773Y-54790096D01*
X90942776Y-54575835D01*
X90922551Y-54562193D01*
X90626871Y-54402319D01*
X90604381Y-54392865D01*
X90283277Y-54293467D01*
X90259380Y-54288562D01*
X89925090Y-54253427D01*
X89900695Y-54253256D01*
X89565948Y-54283720D01*
X89541984Y-54288292D01*
X89219520Y-54383199D01*
X89196901Y-54392338D01*
X88899017Y-54548068D01*
X88878604Y-54561426D01*
X88616644Y-54772047D01*
X88599213Y-54789115D01*
X88383153Y-55046605D01*
X88369371Y-55066735D01*
X88207436Y-55361294D01*
X88197825Y-55383717D01*
X88096188Y-55704119D01*
X88091116Y-55727981D01*
X88053647Y-56062019D01*
X88053306Y-56086413D01*
X86753042Y-56086413D01*
X86754494Y-56069133D01*
X86798747Y-55542138D01*
X86802768Y-55520229D01*
X86966167Y-54950392D01*
X86974369Y-54929676D01*
X87245329Y-54402446D01*
X87257408Y-54383703D01*
X87625612Y-53919145D01*
X87641098Y-53903108D01*
X88092528Y-53518911D01*
X88110830Y-53506190D01*
X88628277Y-53217000D01*
X88648713Y-53208072D01*
X89212481Y-53024892D01*
X89234251Y-53020105D01*
X89822867Y-52949917D01*
X89845152Y-52949450D01*
X90436191Y-52994928D01*
X90436191Y-52994928D01*
G37*
G36*
X90114795Y-55020156D02*
X90221150Y-55041311D01*
X90282529Y-55066735D01*
X90421516Y-55124305D01*
X90601850Y-55244801D01*
X90755199Y-55398150D01*
X90755201Y-55398153D01*
X90755202Y-55398154D01*
X90764964Y-55412764D01*
X90875695Y-55578484D01*
X90927734Y-55704119D01*
X90948095Y-55753273D01*
X90958689Y-55778851D01*
X91001000Y-55991560D01*
X91001000Y-56208440D01*
X90958689Y-56421149D01*
X90875695Y-56621516D01*
X90755199Y-56801850D01*
X90601850Y-56955199D01*
X90421516Y-57075695D01*
X90337184Y-57110626D01*
X90221150Y-57158689D01*
X90141814Y-57174470D01*
X90008440Y-57201000D01*
X89791560Y-57201000D01*
X89658186Y-57174470D01*
X89578850Y-57158689D01*
X89462816Y-57110626D01*
X89378484Y-57075695D01*
X89198150Y-56955199D01*
X89044801Y-56801850D01*
X88924305Y-56621516D01*
X88841311Y-56421149D01*
X88799000Y-56208440D01*
X88799000Y-55991560D01*
X88841311Y-55778851D01*
X88851906Y-55753273D01*
X88872266Y-55704119D01*
X88924305Y-55578484D01*
X89035036Y-55412764D01*
X89044798Y-55398154D01*
X89044799Y-55398153D01*
X89044801Y-55398150D01*
X89198150Y-55244801D01*
X89378484Y-55124305D01*
X89517471Y-55066735D01*
X89578850Y-55041311D01*
X89685205Y-55020156D01*
X89791560Y-54999000D01*
X90008440Y-54999000D01*
X90114795Y-55020156D01*
X90114795Y-55020156D01*
G37*
G36*
X56636191Y-52994928D02*
X56658147Y-52998800D01*
X57229093Y-53158210D01*
X57249872Y-53166269D01*
X57778986Y-53433544D01*
X57797801Y-53445485D01*
X58264926Y-53810443D01*
X58281073Y-53825819D01*
X58668399Y-54274542D01*
X58681255Y-54292766D01*
X58974059Y-54808192D01*
X58983120Y-54828544D01*
X59170237Y-55391039D01*
X59175172Y-55412764D01*
X59249796Y-56003480D01*
X59250687Y-56016207D01*
X59251798Y-56095793D01*
X59251264Y-56108536D01*
X59193163Y-56701102D01*
X59188834Y-56722961D01*
X59017500Y-57290451D01*
X59009003Y-57311064D01*
X58730710Y-57834457D01*
X58718376Y-57853021D01*
X58343710Y-58312406D01*
X58328012Y-58328214D01*
X57871263Y-58706070D01*
X57852780Y-58718537D01*
X57331343Y-59000477D01*
X57310787Y-59009118D01*
X56744514Y-59184409D01*
X56722680Y-59188890D01*
X56133145Y-59250853D01*
X56110858Y-59251008D01*
X55520499Y-59197281D01*
X55498613Y-59193107D01*
X54929951Y-59025741D01*
X54909272Y-59017386D01*
X54383950Y-58742754D01*
X54365304Y-58730552D01*
X53903317Y-58359105D01*
X53887393Y-58343511D01*
X53506353Y-57889405D01*
X53493764Y-57871021D01*
X53208189Y-57351562D01*
X53199406Y-57331070D01*
X53020166Y-56766035D01*
X53015531Y-56744228D01*
X52949455Y-56155139D01*
X52949143Y-56132854D01*
X52953042Y-56086413D01*
X54253306Y-56086413D01*
X54281433Y-56421369D01*
X54285837Y-56445364D01*
X54378489Y-56768478D01*
X54387470Y-56791160D01*
X54541114Y-57090120D01*
X54554329Y-57110626D01*
X54763118Y-57374053D01*
X54780065Y-57391602D01*
X55036045Y-57609457D01*
X55056078Y-57623380D01*
X55349499Y-57787367D01*
X55371854Y-57797134D01*
X55691533Y-57901004D01*
X55715359Y-57906243D01*
X56049129Y-57946043D01*
X56073520Y-57946554D01*
X56408667Y-57920766D01*
X56432692Y-57916529D01*
X56756437Y-57826137D01*
X56779181Y-57817315D01*
X57079217Y-57665757D01*
X57099816Y-57652685D01*
X57364691Y-57445742D01*
X57382357Y-57428918D01*
X57601990Y-57174470D01*
X57616053Y-57154536D01*
X57782086Y-56862266D01*
X57792008Y-56839979D01*
X57898110Y-56521025D01*
X57903515Y-56497235D01*
X57946576Y-56156368D01*
X57947550Y-56142448D01*
X57948015Y-56109161D01*
X57947430Y-56095217D01*
X57913902Y-55753273D01*
X57909164Y-55729342D01*
X57812010Y-55407552D01*
X57802713Y-55384997D01*
X57644908Y-55088209D01*
X57631408Y-55067889D01*
X57418963Y-54807406D01*
X57401773Y-54790096D01*
X57142776Y-54575835D01*
X57122551Y-54562193D01*
X56826871Y-54402319D01*
X56804381Y-54392865D01*
X56483277Y-54293467D01*
X56459380Y-54288562D01*
X56125090Y-54253427D01*
X56100695Y-54253256D01*
X55765948Y-54283720D01*
X55741984Y-54288292D01*
X55419520Y-54383199D01*
X55396901Y-54392338D01*
X55099017Y-54548068D01*
X55078604Y-54561426D01*
X54816644Y-54772047D01*
X54799213Y-54789115D01*
X54583153Y-55046605D01*
X54569371Y-55066735D01*
X54407436Y-55361294D01*
X54397825Y-55383717D01*
X54296188Y-55704119D01*
X54291116Y-55727981D01*
X54253647Y-56062019D01*
X54253306Y-56086413D01*
X52953042Y-56086413D01*
X52954494Y-56069133D01*
X52998747Y-55542138D01*
X53002768Y-55520229D01*
X53166167Y-54950392D01*
X53174369Y-54929676D01*
X53445329Y-54402446D01*
X53457408Y-54383703D01*
X53825612Y-53919145D01*
X53841098Y-53903108D01*
X54292528Y-53518911D01*
X54310830Y-53506190D01*
X54828277Y-53217000D01*
X54848713Y-53208072D01*
X55412481Y-53024892D01*
X55434251Y-53020105D01*
X56022867Y-52949917D01*
X56045152Y-52949450D01*
X56636191Y-52994928D01*
X56636191Y-52994928D01*
G37*
G36*
X56314795Y-55020156D02*
X56421150Y-55041311D01*
X56482529Y-55066735D01*
X56621516Y-55124305D01*
X56801850Y-55244801D01*
X56955199Y-55398150D01*
X56955201Y-55398153D01*
X56955202Y-55398154D01*
X56964964Y-55412764D01*
X57075695Y-55578484D01*
X57127734Y-55704119D01*
X57148095Y-55753273D01*
X57158689Y-55778851D01*
X57201000Y-55991560D01*
X57201000Y-56208440D01*
X57158689Y-56421149D01*
X57075695Y-56621516D01*
X56955199Y-56801850D01*
X56801850Y-56955199D01*
X56621516Y-57075695D01*
X56537184Y-57110626D01*
X56421150Y-57158689D01*
X56341814Y-57174470D01*
X56208440Y-57201000D01*
X55991560Y-57201000D01*
X55858186Y-57174470D01*
X55778850Y-57158689D01*
X55662816Y-57110626D01*
X55578484Y-57075695D01*
X55398150Y-56955199D01*
X55244801Y-56801850D01*
X55124305Y-56621516D01*
X55041311Y-56421149D01*
X54999000Y-56208440D01*
X54999000Y-55991560D01*
X55041311Y-55778851D01*
X55051906Y-55753273D01*
X55072266Y-55704119D01*
X55124305Y-55578484D01*
X55235036Y-55412764D01*
X55244798Y-55398154D01*
X55244799Y-55398153D01*
X55244801Y-55398150D01*
X55398150Y-55244801D01*
X55578484Y-55124305D01*
X55717471Y-55066735D01*
X55778850Y-55041311D01*
X55885205Y-55020156D01*
X55991560Y-54999000D01*
X56208440Y-54999000D01*
X56314795Y-55020156D01*
X56314795Y-55020156D01*
G37*
M02*
